<ttFont>
    <TTGlyph name="A" xMin="60" yMin="0" xMax="680" yMax="732">
      <contour>
        <pt x="379" y="643" on="1"/>
        <pt x="370" y="670" on="1"/>
        <pt x="339" y="584" on="0"/>
        <pt x="266" y="419" on="0"/>
        <pt x="231" y="335" on="1"/>
        <pt x="509" y="335" on="1"/>
        <pt x="477" y="413" on="0"/>
        <pt x="412" y="565" on="0"/>
      </contour>
      <contour>
        <pt x="680" y="0" on="1"/>
        <pt x="652" y="0" on="1"/>
        <pt x="619" y="77" on="0"/>
        <pt x="554" y="231" on="0"/>
        <pt x="521" y="308" on="1"/>
        <pt x="219" y="308" on="1"/>
        <pt x="187" y="231" on="0"/>
        <pt x="122" y="77" on="0"/>
        <pt x="89" y="0" on="1"/>
        <pt x="60" y="0" on="1"/>
        <pt x="138" y="184" on="0"/>
        <pt x="292" y="548" on="0"/>
        <pt x="370" y="732" on="1"/>
        <pt x="448" y="548" on="0"/>
        <pt x="602" y="184" on="0"/>
      </contour>
    </TTGlyph>
    <TTGlyph name="AE" xMin="60" yMin="0" xMax="699" yMax="700">
      <contour>
        <pt x="359" y="333" on="1"/>
        <pt x="359" y="642" on="1"/>
        <pt x="330" y="563" on="0"/>
        <pt x="262" y="411" on="0"/>
        <pt x="230" y="333" on="1"/>
      </contour>
      <contour>
        <pt x="60" y="0" on="1"/>
        <pt x="135" y="176" on="0"/>
        <pt x="281" y="524" on="0"/>
        <pt x="356" y="700" on="1"/>
        <pt x="685" y="700" on="1"/>
        <pt x="685" y="673" on="1"/>
        <pt x="387" y="673" on="1"/>
        <pt x="387" y="366" on="1"/>
        <pt x="646" y="366" on="1"/>
        <pt x="646" y="339" on="1"/>
        <pt x="387" y="339" on="1"/>
        <pt x="387" y="27" on="1"/>
        <pt x="699" y="27" on="1"/>
        <pt x="699" y="0" on="1"/>
        <pt x="359" y="0" on="1"/>
        <pt x="359" y="306" on="1"/>
        <pt x="218" y="306" on="1"/>
        <pt x="89" y="0" on="1"/>
      </contour>
    </TTGlyph>
    <TTGlyph name="Aacute" xMin="60" yMin="0" xMax="680" yMax="883">
      <component glyphName="A" x="0" y="0" flags="0x204"/>
      <component glyphName="acute" x="253" y="271" flags="0x4"/>
    </TTGlyph>
    <TTGlyph name="Acircumflex" xMin="60" yMin="0" xMax="680" yMax="931">
      <component glyphName="A" x="0" y="0" flags="0x204"/>
      <component glyphName="asciicircum" x="139" y="271" flags="0x4"/>
    </TTGlyph>
    <TTGlyph name="Adieresis" xMin="60" yMin="0" xMax="680" yMax="821">
      <component glyphName="A" x="0" y="0" flags="0x204"/>
      <component glyphName="dieresis" x="187" y="290" flags="0x4"/>
    </TTGlyph>
    <TTGlyph name="Agrave" xMin="60" yMin="0" xMax="680" yMax="883">
      <component glyphName="A" x="0" y="0" flags="0x204"/>
      <component glyphName="grave" x="290" y="271" flags="0x4"/>
    </TTGlyph>
    <TTGlyph name="Aring" xMin="60" yMin="0" xMax="680" yMax="903">
      <contour>
        <pt x="325" y="835" on="1"/>
        <pt x="325" y="816" on="0"/>
        <pt x="353" y="789" on="0"/>
        <pt x="371" y="789" on="1"/>
        <pt x="390" y="789" on="0"/>
        <pt x="417" y="816" on="0"/>
        <pt x="417" y="835" on="1"/>
        <pt x="417" y="853" on="0"/>
        <pt x="390" y="880" on="0"/>
        <pt x="371" y="880" on="1"/>
        <pt x="353" y="880" on="0"/>
        <pt x="325" y="853" on="0"/>
      </contour>
      <contour>
        <pt x="303" y="835" on="1"/>
        <pt x="303" y="864" on="0"/>
        <pt x="342" y="903" on="0"/>
        <pt x="371" y="903" on="1"/>
        <pt x="400" y="903" on="0"/>
        <pt x="439" y="864" on="0"/>
        <pt x="439" y="835" on="1"/>
        <pt x="439" y="806" on="0"/>
        <pt x="400" y="767" on="0"/>
        <pt x="371" y="767" on="1"/>
        <pt x="342" y="767" on="0"/>
        <pt x="303" y="806" on="0"/>
      </contour>
      <contour>
        <pt x="379" y="643" on="1"/>
        <pt x="370" y="670" on="1"/>
        <pt x="339" y="584" on="0"/>
        <pt x="266" y="419" on="0"/>
        <pt x="231" y="335" on="1"/>
        <pt x="509" y="335" on="1"/>
        <pt x="477" y="413" on="0"/>
        <pt x="412" y="565" on="0"/>
      </contour>
      <contour>
        <pt x="680" y="0" on="1"/>
        <pt x="652" y="0" on="1"/>
        <pt x="619" y="77" on="0"/>
        <pt x="554" y="231" on="0"/>
        <pt x="521" y="308" on="1"/>
        <pt x="219" y="308" on="1"/>
        <pt x="187" y="231" on="0"/>
        <pt x="122" y="77" on="0"/>
        <pt x="89" y="0" on="1"/>
        <pt x="60" y="0" on="1"/>
        <pt x="138" y="184" on="0"/>
        <pt x="292" y="548" on="0"/>
        <pt x="370" y="732" on="1"/>
        <pt x="448" y="548" on="0"/>
        <pt x="602" y="184" on="0"/>
      </contour>
    </TTGlyph>
    <TTGlyph name="Atilde" xMin="60" yMin="0" xMax="680" yMax="834">
      <component glyphName="A" x="0" y="0" flags="0x204"/>
      <component glyphName="asciitilde" x="91" y="291" flags="0x4"/>
    </TTGlyph>
    <TTGlyph name="B" xMin="79" yMin="0" xMax="464" yMax="700">
      <contour>
        <pt x="107" y="673" on="1"/>
        <pt x="107" y="365" on="1"/>
        <pt x="246" y="365" on="1"/>
        <pt x="283" y="365" on="0"/>
        <pt x="344" y="388" on="0"/>
        <pt x="387" y="430" on="0"/>
        <pt x="410" y="489" on="0"/>
        <pt x="410" y="525" on="1"/>
        <pt x="410" y="565" on="0"/>
        <pt x="385" y="621" on="0"/>
        <pt x="341" y="657" on="0"/>
        <pt x="279" y="673" on="0"/>
        <pt x="242" y="673" on="1"/>
      </contour>
      <contour>
        <pt x="107" y="338" on="1"/>
        <pt x="107" y="27" on="1"/>
        <pt x="247" y="27" on="1"/>
        <pt x="286" y="27" on="0"/>
        <pt x="354" y="46" on="0"/>
        <pt x="406" y="84" on="0"/>
        <pt x="436" y="142" on="0"/>
        <pt x="436" y="180" on="1"/>
        <pt x="436" y="221" on="0"/>
        <pt x="401" y="281" on="0"/>
        <pt x="343" y="320" on="0"/>
        <pt x="269" y="338" on="0"/>
        <pt x="229" y="338" on="1"/>
      </contour>
      <contour>
        <pt x="79" y="0" on="1"/>
        <pt x="79" y="700" on="1"/>
        <pt x="231" y="700" on="1"/>
        <pt x="277" y="700" on="0"/>
        <pt x="353" y="680" on="0"/>
        <pt x="408" y="638" on="0"/>
        <pt x="438" y="571" on="0"/>
        <pt x="438" y="525" on="1"/>
        <pt x="438" y="463" on="0"/>
        <pt x="376" y="369" on="0"/>
        <pt x="312" y="352" on="1"/>
        <pt x="342" y="346" on="0"/>
        <pt x="397" y="318" on="0"/>
        <pt x="439" y="274" on="0"/>
        <pt x="464" y="216" on="0"/>
        <pt x="464" y="180" on="1"/>
        <pt x="464" y="135" on="0"/>
        <pt x="428" y="68" on="0"/>
        <pt x="368" y="23" on="0"/>
        <pt x="291" y="0" on="0"/>
        <pt x="249" y="0" on="1"/>
      </contour>
    </TTGlyph>
    <TTGlyph name="C" xMin="62" yMin="-8" xMax="602" yMax="708">
      <contour>
        <pt x="585" y="65" on="1"/>
        <pt x="601" y="42" on="1"/>
        <pt x="561" y="19" on="0"/>
        <pt x="470" y="-8" on="0"/>
        <pt x="419" y="-8" on="1"/>
        <pt x="345" y="-8" on="0"/>
        <pt x="215" y="48" on="0"/>
        <pt x="118" y="145" on="0"/>
        <pt x="62" y="275" on="0"/>
        <pt x="62" y="349" on="1"/>
        <pt x="62" y="423" on="0"/>
        <pt x="118" y="554" on="0"/>
        <pt x="215" y="651" on="0"/>
        <pt x="345" y="708" on="0"/>
        <pt x="419" y="708" on="1"/>
        <pt x="470" y="708" on="0"/>
        <pt x="561" y="682" on="0"/>
        <pt x="602" y="658" on="1"/>
        <pt x="596" y="648" on="0"/>
        <pt x="586" y="635" on="1"/>
        <pt x="511" y="681" on="0"/>
        <pt x="419" y="681" on="1"/>
        <pt x="351" y="681" on="0"/>
        <pt x="231" y="628" on="0"/>
        <pt x="142" y="538" on="0"/>
        <pt x="90" y="417" on="0"/>
        <pt x="90" y="348" on="1"/>
        <pt x="90" y="280" on="0"/>
        <pt x="142" y="160" on="0"/>
        <pt x="230" y="71" on="0"/>
        <pt x="349" y="19" on="0"/>
        <pt x="417" y="19" on="1"/>
        <pt x="463" y="19" on="0"/>
        <pt x="547" y="43" on="0"/>
      </contour>
    </TTGlyph>
    <TTGlyph name="Ccedilla" xMin="62" yMin="-228" xMax="602" yMax="708">
      <contour>
        <pt x="585" y="65" on="1"/>
        <pt x="601" y="42" on="1"/>
        <pt x="562" y="19" on="0"/>
        <pt x="472" y="-7" on="0"/>
        <pt x="422" y="-8" on="1"/>
        <pt x="422" y="-21" on="0"/>
        <pt x="430" y="-37" on="0"/>
        <pt x="442" y="-49" on="0"/>
        <pt x="457" y="-57" on="0"/>
        <pt x="463" y="-61" on="1"/>
        <pt x="486" y="-76" on="0"/>
        <pt x="504" y="-114" on="0"/>
        <pt x="504" y="-130" on="1"/>
        <pt x="504" y="-180" on="0"/>
        <pt x="453" y="-228" on="0"/>
        <pt x="416" y="-228" on="1"/>
        <pt x="388" y="-228" on="0"/>
        <pt x="341" y="-198" on="0"/>
        <pt x="330" y="-167" on="1"/>
        <pt x="335" y="-165" on="0"/>
        <pt x="347" y="-161" on="0"/>
        <pt x="352" y="-159" on="1"/>
        <pt x="357" y="-179" on="0"/>
        <pt x="391" y="-205" on="0"/>
        <pt x="415" y="-205" on="1"/>
        <pt x="444" y="-205" on="0"/>
        <pt x="481" y="-165" on="0"/>
        <pt x="481" y="-136" on="1"/>
        <pt x="481" y="-110" on="0"/>
        <pt x="456" y="-81" on="0"/>
        <pt x="425" y="-60" on="0"/>
        <pt x="400" y="-39" on="0"/>
        <pt x="400" y="-20" on="1"/>
        <pt x="400" y="-7" on="1"/>
        <pt x="329" y="-4" on="0"/>
        <pt x="206" y="55" on="0"/>
        <pt x="115" y="151" on="0"/>
        <pt x="62" y="277" on="0"/>
        <pt x="62" y="349" on="1"/>
        <pt x="62" y="423" on="0"/>
        <pt x="118" y="554" on="0"/>
        <pt x="215" y="651" on="0"/>
        <pt x="345" y="708" on="0"/>
        <pt x="419" y="708" on="1"/>
        <pt x="470" y="708" on="0"/>
        <pt x="561" y="682" on="0"/>
        <pt x="602" y="658" on="1"/>
        <pt x="596" y="648" on="0"/>
        <pt x="586" y="635" on="1"/>
        <pt x="511" y="681" on="0"/>
        <pt x="419" y="681" on="1"/>
        <pt x="351" y="681" on="0"/>
        <pt x="231" y="628" on="0"/>
        <pt x="142" y="538" on="0"/>
        <pt x="90" y="417" on="0"/>
        <pt x="90" y="348" on="1"/>
        <pt x="90" y="280" on="0"/>
        <pt x="142" y="160" on="0"/>
        <pt x="230" y="71" on="0"/>
        <pt x="349" y="19" on="0"/>
        <pt x="417" y="19" on="1"/>
        <pt x="463" y="19" on="0"/>
        <pt x="547" y="43" on="0"/>
      </contour>
    </TTGlyph>
    <TTGlyph name="D" xMin="81" yMin="0" xMax="575" yMax="700">
      <contour>
        <pt x="81" y="700" on="1"/>
        <pt x="223" y="700" on="1"/>
        <pt x="295" y="700" on="0"/>
        <pt x="423" y="651" on="0"/>
        <pt x="519" y="560" on="0"/>
        <pt x="575" y="430" on="0"/>
        <pt x="575" y="350" on="1"/>
        <pt x="575" y="291" on="0"/>
        <pt x="534" y="167" on="0"/>
        <pt x="442" y="65" on="0"/>
        <pt x="295" y="0" on="0"/>
        <pt x="189" y="0" on="1"/>
        <pt x="81" y="0" on="1"/>
      </contour>
      <contour>
        <pt x="109" y="673" on="1"/>
        <pt x="109" y="28" on="1"/>
        <pt x="201" y="28" on="1"/>
        <pt x="292" y="28" on="0"/>
        <pt x="423" y="85" on="0"/>
        <pt x="508" y="177" on="0"/>
        <pt x="548" y="292" on="0"/>
        <pt x="548" y="350" on="1"/>
        <pt x="548" y="424" on="0"/>
        <pt x="497" y="544" on="0"/>
        <pt x="409" y="628" on="0"/>
        <pt x="292" y="673" on="0"/>
        <pt x="226" y="673" on="1"/>
      </contour>
    </TTGlyph>
    <TTGlyph name="E" xMin="90" yMin="0" xMax="514" yMax="700">
      <contour>
        <pt x="90" y="0" on="1"/>
        <pt x="90" y="700" on="1"/>
        <pt x="500" y="700" on="1"/>
        <pt x="500" y="673" on="1"/>
        <pt x="118" y="673" on="1"/>
        <pt x="118" y="366" on="1"/>
        <pt x="461" y="366" on="1"/>
        <pt x="461" y="339" on="1"/>
        <pt x="118" y="339" on="1"/>
        <pt x="118" y="27" on="1"/>
        <pt x="514" y="27" on="1"/>
        <pt x="514" y="0" on="1"/>
      </contour>
    </TTGlyph>
    <TTGlyph name="Eacute" xMin="90" yMin="0" xMax="514" yMax="883">
      <component glyphName="E" x="0" y="0" flags="0x204"/>
      <component glyphName="acute" x="174" y="271" flags="0x4"/>
    </TTGlyph>
    <TTGlyph name="Ecircumflex" xMin="90" yMin="0" xMax="514" yMax="931">
      <component glyphName="E" x="0" y="0" flags="0x204"/>
      <component glyphName="asciicircum" x="68" y="271" flags="0x4"/>
    </TTGlyph>
    <TTGlyph name="Edieresis" xMin="90" yMin="0" xMax="514" yMax="821">
      <component glyphName="E" x="0" y="0" flags="0x204"/>
      <component glyphName="dieresis" x="111" y="290" flags="0x4"/>
    </TTGlyph>
    <TTGlyph name="Egrave" xMin="90" yMin="0" xMax="514" yMax="883">
      <component glyphName="E" x="0" y="0" flags="0x204"/>
      <component glyphName="grave" x="210" y="271" flags="0x4"/>
    </TTGlyph>
    <TTGlyph name="Eth" xMin="22" yMin="0" xMax="581" yMax="700">
      <contour>
        <pt x="109" y="339" on="1"/>
        <pt x="109" y="27" on="1"/>
        <pt x="204" y="27" on="1"/>
        <pt x="278" y="27" on="0"/>
        <pt x="406" y="73" on="0"/>
        <pt x="500" y="157" on="0"/>
        <pt x="554" y="276" on="0"/>
        <pt x="554" y="350" on="1"/>
        <pt x="554" y="425" on="0"/>
        <pt x="502" y="544" on="0"/>
        <pt x="409" y="628" on="0"/>
        <pt x="281" y="673" on="0"/>
        <pt x="204" y="673" on="1"/>
        <pt x="109" y="673" on="1"/>
        <pt x="109" y="366" on="1"/>
        <pt x="324" y="366" on="1"/>
        <pt x="324" y="339" on="1"/>
      </contour>
      <contour>
        <pt x="81" y="366" on="1"/>
        <pt x="81" y="700" on="1"/>
        <pt x="221" y="700" on="1"/>
        <pt x="294" y="700" on="0"/>
        <pt x="425" y="651" on="0"/>
        <pt x="523" y="560" on="0"/>
        <pt x="581" y="430" on="0"/>
        <pt x="581" y="350" on="1"/>
        <pt x="581" y="291" on="0"/>
        <pt x="539" y="167" on="0"/>
        <pt x="444" y="65" on="0"/>
        <pt x="294" y="0" on="0"/>
        <pt x="186" y="0" on="1"/>
        <pt x="81" y="0" on="1"/>
        <pt x="81" y="339" on="1"/>
        <pt x="22" y="339" on="1"/>
        <pt x="22" y="366" on="1"/>
      </contour>
    </TTGlyph>
    <TTGlyph name="F" xMin="90" yMin="0" xMax="500" yMax="700">
      <contour>
        <pt x="90" y="0" on="1"/>
        <pt x="90" y="700" on="1"/>
        <pt x="500" y="700" on="1"/>
        <pt x="500" y="673" on="1"/>
        <pt x="118" y="673" on="1"/>
        <pt x="118" y="366" on="1"/>
        <pt x="461" y="366" on="1"/>
        <pt x="461" y="339" on="1"/>
        <pt x="118" y="339" on="1"/>
        <pt x="118" y="0" on="1"/>
      </contour>
    </TTGlyph>
    <TTGlyph name="G" xMin="62" yMin="-8" xMax="602" yMax="708">
      <contour>
        <pt x="415" y="273" on="1"/>
        <pt x="415" y="300" on="1"/>
        <pt x="545" y="300" on="1"/>
        <pt x="575" y="300" on="0"/>
        <pt x="601" y="281" on="0"/>
        <pt x="601" y="252" on="1"/>
        <pt x="601" y="42" on="1"/>
        <pt x="561" y="19" on="0"/>
        <pt x="470" y="-8" on="0"/>
        <pt x="419" y="-8" on="1"/>
        <pt x="345" y="-8" on="0"/>
        <pt x="215" y="48" on="0"/>
        <pt x="118" y="145" on="0"/>
        <pt x="62" y="275" on="0"/>
        <pt x="62" y="349" on="1"/>
        <pt x="62" y="423" on="0"/>
        <pt x="118" y="554" on="0"/>
        <pt x="215" y="651" on="0"/>
        <pt x="345" y="708" on="0"/>
        <pt x="419" y="708" on="1"/>
        <pt x="470" y="708" on="0"/>
        <pt x="561" y="682" on="0"/>
        <pt x="602" y="658" on="1"/>
        <pt x="596" y="648" on="0"/>
        <pt x="586" y="635" on="1"/>
        <pt x="511" y="681" on="0"/>
        <pt x="419" y="681" on="1"/>
        <pt x="351" y="681" on="0"/>
        <pt x="231" y="628" on="0"/>
        <pt x="142" y="538" on="0"/>
        <pt x="90" y="417" on="0"/>
        <pt x="90" y="348" on="1"/>
        <pt x="90" y="280" on="0"/>
        <pt x="142" y="160" on="0"/>
        <pt x="230" y="71" on="0"/>
        <pt x="349" y="19" on="0"/>
        <pt x="417" y="19" on="1"/>
        <pt x="501" y="19" on="0"/>
        <pt x="573" y="59" on="1"/>
        <pt x="573" y="192" on="1"/>
        <pt x="573" y="249" on="1"/>
        <pt x="573" y="260" on="0"/>
        <pt x="561" y="273" on="0"/>
        <pt x="545" y="273" on="1"/>
      </contour>
    </TTGlyph>
    <TTGlyph name="H" xMin="99" yMin="0" xMax="604" yMax="700">
      <contour>
        <pt x="99" y="0" on="1"/>
        <pt x="99" y="700" on="1"/>
        <pt x="127" y="700" on="1"/>
        <pt x="127" y="366" on="1"/>
        <pt x="573" y="366" on="1"/>
        <pt x="573" y="700" on="1"/>
        <pt x="604" y="700" on="1"/>
        <pt x="604" y="524" on="0"/>
        <pt x="602" y="176" on="0"/>
        <pt x="601" y="0" on="1"/>
        <pt x="573" y="0" on="1"/>
        <pt x="573" y="339" on="1"/>
        <pt x="127" y="339" on="1"/>
        <pt x="127" y="0" on="1"/>
      </contour>
    </TTGlyph>
    <TTGlyph name="I" xMin="105" yMin="0" xMax="133" yMax="700">
      <contour>
        <pt x="105" y="700" on="1"/>
        <pt x="133" y="700" on="1"/>
        <pt x="133" y="0" on="1"/>
        <pt x="105" y="0" on="1"/>
      </contour>
    </TTGlyph>
    <TTGlyph name="Iacute" xMin="101" yMin="0" xMax="221" yMax="883">
      <component glyphName="I" x="0" y="0" flags="0x4"/>
      <component glyphName="acute" x="1" y="271" flags="0x4"/>
    </TTGlyph>
    <TTGlyph name="Icircumflex" xMin="0" yMin="0" xMax="240" yMax="931">
      <component glyphName="I" x="0" y="0" flags="0x4"/>
      <component glyphName="asciicircum" x="-112" y="271" flags="0x4"/>
    </TTGlyph>
    <TTGlyph name="Idieresis" xMin="10" yMin="0" xMax="228" yMax="821">
      <component glyphName="I" x="0" y="0" flags="0x4"/>
      <component glyphName="dieresis" x="-65" y="290" flags="0x4"/>
    </TTGlyph>
    <TTGlyph name="Igrave" xMin="15" yMin="0" xMax="134" yMax="883">
      <component glyphName="I" x="0" y="0" flags="0x4"/>
      <component glyphName="grave" x="36" y="271" flags="0x4"/>
    </TTGlyph>
    <TTGlyph name="J" xMin="18" yMin="-142" xMax="214" yMax="700">
      <contour>
        <pt x="18" y="-142" on="1"/>
        <pt x="18" y="-115" on="1"/>
        <pt x="54" y="-113" on="0"/>
        <pt x="116" y="-84" on="0"/>
        <pt x="161" y="-31" on="0"/>
        <pt x="186" y="45" on="0"/>
        <pt x="186" y="93" on="1"/>
        <pt x="186" y="700" on="1"/>
        <pt x="214" y="700" on="1"/>
        <pt x="214" y="90" on="1"/>
        <pt x="214" y="34" on="0"/>
        <pt x="183" y="-51" on="0"/>
        <pt x="130" y="-109" on="0"/>
        <pt x="58" y="-141" on="0"/>
      </contour>
    </TTGlyph>
    <TTGlyph name="K" xMin="72" yMin="0" xMax="548" yMax="700">
      <contour>
        <pt x="548" y="0" on="1"/>
        <pt x="512" y="0" on="1"/>
        <pt x="432" y="102" on="0"/>
        <pt x="275" y="302" on="0"/>
        <pt x="194" y="404" on="1"/>
        <pt x="170" y="381" on="0"/>
        <pt x="123" y="337" on="0"/>
        <pt x="99" y="314" on="1"/>
        <pt x="99" y="235" on="0"/>
        <pt x="100" y="78" on="0"/>
        <pt x="100" y="0" on="1"/>
        <pt x="72" y="0" on="1"/>
        <pt x="72" y="700" on="1"/>
        <pt x="100" y="700" on="1"/>
        <pt x="100" y="373" on="1"/>
        <pt x="99" y="365" on="0"/>
        <pt x="98" y="352" on="0"/>
        <pt x="98" y="344" on="1"/>
        <pt x="103" y="349" on="0"/>
        <pt x="111" y="359" on="0"/>
        <pt x="116" y="364" on="1"/>
        <pt x="204" y="449" on="0"/>
        <pt x="379" y="615" on="0"/>
        <pt x="468" y="700" on="1"/>
        <pt x="506" y="700" on="1"/>
        <pt x="432" y="630" on="0"/>
        <pt x="288" y="492" on="0"/>
        <pt x="214" y="422" on="1"/>
        <pt x="299" y="316" on="0"/>
        <pt x="464" y="106" on="0"/>
      </contour>
    </TTGlyph>
    <TTGlyph name="L" xMin="90" yMin="0" xMax="514" yMax="700">
      <contour>
        <pt x="90" y="0" on="1"/>
        <pt x="90" y="700" on="1"/>
        <pt x="118" y="700" on="1"/>
        <pt x="118" y="27" on="1"/>
        <pt x="514" y="27" on="1"/>
        <pt x="514" y="0" on="1"/>
      </contour>
    </TTGlyph>
    <TTGlyph name="M" xMin="100" yMin="0" xMax="832" yMax="732">
      <contour>
        <pt x="100" y="732" on="1"/>
        <pt x="192" y="613" on="0"/>
        <pt x="374" y="376" on="0"/>
        <pt x="466" y="257" on="1"/>
        <pt x="558" y="376" on="0"/>
        <pt x="740" y="613" on="0"/>
        <pt x="832" y="732" on="1"/>
        <pt x="832" y="0" on="1"/>
        <pt x="804" y="0" on="1"/>
        <pt x="804" y="438" on="1"/>
        <pt x="804" y="610" on="1"/>
        <pt x="804" y="621" on="0"/>
        <pt x="805" y="641" on="0"/>
        <pt x="806" y="652" on="1"/>
        <pt x="722" y="539" on="0"/>
        <pt x="551" y="319" on="0"/>
        <pt x="466" y="207" on="1"/>
        <pt x="397" y="298" on="0"/>
        <pt x="261" y="474" on="0"/>
        <pt x="192" y="565" on="1"/>
        <pt x="137" y="637" on="1"/>
        <pt x="135" y="641" on="0"/>
        <pt x="129" y="648" on="0"/>
        <pt x="126" y="652" on="1"/>
        <pt x="127" y="641" on="0"/>
        <pt x="128" y="621" on="0"/>
        <pt x="128" y="610" on="1"/>
        <pt x="128" y="0" on="1"/>
        <pt x="100" y="0" on="1"/>
      </contour>
    </TTGlyph>
    <TTGlyph name="N" xMin="100" yMin="-32" xMax="711" yMax="732">
      <contour>
        <pt x="711" y="700" on="1"/>
        <pt x="711" y="-32" on="1"/>
        <pt x="568" y="136" on="0"/>
        <pt x="287" y="469" on="0"/>
        <pt x="144" y="638" on="1"/>
        <pt x="139" y="645" on="0"/>
        <pt x="130" y="657" on="0"/>
        <pt x="125" y="664" on="1"/>
        <pt x="126" y="656" on="0"/>
        <pt x="127" y="640" on="0"/>
        <pt x="128" y="632" on="1"/>
        <pt x="128" y="0" on="1"/>
        <pt x="100" y="0" on="1"/>
        <pt x="100" y="732" on="1"/>
        <pt x="243" y="561" on="0"/>
        <pt x="524" y="228" on="0"/>
        <pt x="667" y="58" on="1"/>
        <pt x="672" y="51" on="0"/>
        <pt x="681" y="39" on="0"/>
        <pt x="686" y="32" on="1"/>
        <pt x="685" y="40" on="0"/>
        <pt x="684" y="56" on="0"/>
        <pt x="683" y="64" on="1"/>
        <pt x="683" y="700" on="1"/>
      </contour>
    </TTGlyph>
    <TTGlyph name="Ntilde" xMin="100" yMin="-32" xMax="711" yMax="836">
      <component glyphName="N" x="0" y="0" flags="0x204"/>
      <component glyphName="asciitilde" x="137" y="293" flags="0x4"/>
    </TTGlyph>
    <TTGlyph name="O" xMin="62" yMin="-8" xMax="778" yMax="708">
      <contour>
        <pt x="62" y="349" on="1"/>
        <pt x="62" y="423" on="0"/>
        <pt x="118" y="554" on="0"/>
        <pt x="215" y="651" on="0"/>
        <pt x="345" y="708" on="0"/>
        <pt x="419" y="708" on="1"/>
        <pt x="493" y="708" on="0"/>
        <pt x="624" y="651" on="0"/>
        <pt x="721" y="554" on="0"/>
        <pt x="778" y="423" on="0"/>
        <pt x="778" y="349" on="1"/>
        <pt x="778" y="275" on="0"/>
        <pt x="721" y="145" on="0"/>
        <pt x="624" y="48" on="0"/>
        <pt x="493" y="-8" on="0"/>
        <pt x="419" y="-8" on="1"/>
        <pt x="345" y="-8" on="0"/>
        <pt x="215" y="48" on="0"/>
        <pt x="118" y="145" on="0"/>
        <pt x="62" y="275" on="0"/>
      </contour>
      <contour>
        <pt x="90" y="348" on="1"/>
        <pt x="90" y="280" on="0"/>
        <pt x="142" y="160" on="0"/>
        <pt x="230" y="71" on="0"/>
        <pt x="349" y="19" on="0"/>
        <pt x="417" y="19" on="1"/>
        <pt x="485" y="19" on="0"/>
        <pt x="606" y="71" on="0"/>
        <pt x="697" y="161" on="0"/>
        <pt x="750" y="281" on="0"/>
        <pt x="750" y="349" on="1"/>
        <pt x="750" y="417" on="0"/>
        <pt x="698" y="538" on="0"/>
        <pt x="608" y="628" on="0"/>
        <pt x="487" y="681" on="0"/>
        <pt x="419" y="681" on="1"/>
        <pt x="351" y="681" on="0"/>
        <pt x="231" y="628" on="0"/>
        <pt x="142" y="538" on="0"/>
        <pt x="90" y="417" on="0"/>
      </contour>
    </TTGlyph>
    <TTGlyph name="Oacute" xMin="62" yMin="-8" xMax="778" yMax="883">
      <component glyphName="O" x="0" y="0" flags="0x204"/>
      <component glyphName="acute" x="300" y="271" flags="0x4"/>
    </TTGlyph>
    <TTGlyph name="Ocircumflex" xMin="62" yMin="-8" xMax="778" yMax="931">
      <component glyphName="O" x="0" y="0" flags="0x4"/>
      <component glyphName="asciicircum" x="184" y="271" flags="0x4"/>
    </TTGlyph>
    <TTGlyph name="Odieresis" xMin="62" yMin="-8" xMax="778" yMax="821">
      <component glyphName="O" x="0" y="0" flags="0x4"/>
      <component glyphName="dieresis" x="235" y="290" flags="0x4"/>
    </TTGlyph>
    <TTGlyph name="Ograve" xMin="62" yMin="-8" xMax="778" yMax="883">
      <component glyphName="O" x="0" y="0" flags="0x4"/>
      <component glyphName="grave" x="336" y="271" flags="0x4"/>
    </TTGlyph>
    <TTGlyph name="Oslash" xMin="62" yMin="-10" xMax="778" yMax="710">
      <contour>
        <pt x="90" y="348" on="1"/>
        <pt x="90" y="276" on="0"/>
        <pt x="144" y="154" on="0"/>
        <pt x="192" y="109" on="1"/>
        <pt x="299" y="237" on="0"/>
        <pt x="510" y="486" on="0"/>
        <pt x="616" y="614" on="1"/>
        <pt x="574" y="646" on="0"/>
        <pt x="474" y="681" on="0"/>
        <pt x="419" y="681" on="1"/>
        <pt x="351" y="681" on="0"/>
        <pt x="231" y="628" on="0"/>
        <pt x="142" y="538" on="0"/>
        <pt x="90" y="417" on="0"/>
      </contour>
      <contour>
        <pt x="417" y="19" on="1"/>
        <pt x="485" y="19" on="0"/>
        <pt x="606" y="71" on="0"/>
        <pt x="697" y="161" on="0"/>
        <pt x="750" y="281" on="0"/>
        <pt x="750" y="349" on="1"/>
        <pt x="750" y="424" on="0"/>
        <pt x="688" y="552" on="0"/>
        <pt x="635" y="598" on="1"/>
        <pt x="529" y="471" on="0"/>
        <pt x="317" y="220" on="0"/>
        <pt x="211" y="93" on="1"/>
        <pt x="254" y="58" on="0"/>
        <pt x="357" y="19" on="0"/>
      </contour>
      <contour>
        <pt x="62" y="349" on="1"/>
        <pt x="62" y="423" on="0"/>
        <pt x="118" y="554" on="0"/>
        <pt x="215" y="651" on="0"/>
        <pt x="345" y="708" on="0"/>
        <pt x="419" y="708" on="1"/>
        <pt x="480" y="708" on="0"/>
        <pt x="590" y="670" on="0"/>
        <pt x="635" y="635" on="1"/>
        <pt x="651" y="654" on="0"/>
        <pt x="681" y="691" on="0"/>
        <pt x="697" y="710" on="1"/>
        <pt x="702" y="705" on="0"/>
        <pt x="711" y="698" on="0"/>
        <pt x="716" y="694" on="1"/>
        <pt x="700" y="675" on="0"/>
        <pt x="670" y="639" on="0"/>
        <pt x="654" y="620" on="1"/>
        <pt x="711" y="570" on="0"/>
        <pt x="778" y="430" on="0"/>
        <pt x="778" y="349" on="1"/>
        <pt x="778" y="275" on="0"/>
        <pt x="721" y="145" on="0"/>
        <pt x="624" y="48" on="0"/>
        <pt x="493" y="-8" on="0"/>
        <pt x="419" y="-8" on="1"/>
        <pt x="355" y="-8" on="0"/>
        <pt x="240" y="34" on="0"/>
        <pt x="194" y="72" on="1"/>
        <pt x="177" y="52" on="0"/>
        <pt x="142" y="10" on="0"/>
        <pt x="125" y="-10" on="1"/>
        <pt x="120" y="-5" on="0"/>
        <pt x="111" y="2" on="0"/>
        <pt x="106" y="7" on="1"/>
        <pt x="124" y="27" on="0"/>
        <pt x="158" y="69" on="0"/>
        <pt x="175" y="89" on="1"/>
        <pt x="122" y="137" on="0"/>
        <pt x="62" y="271" on="0"/>
      </contour>
    </TTGlyph>
    <TTGlyph name="Otilde" xMin="62" yMin="-8" xMax="778" yMax="870">
      <component glyphName="O" x="0" y="0" flags="0x4"/>
      <component glyphName="asciitilde" x="141" y="327" flags="0x4"/>
    </TTGlyph>
    <TTGlyph name="P" xMin="79" yMin="0" xMax="431" yMax="700">
      <contour>
        <pt x="107" y="362" on="1"/>
        <pt x="216" y="362" on="1"/>
        <pt x="271" y="362" on="0"/>
        <pt x="343" y="392" on="0"/>
        <pt x="386" y="439" on="0"/>
        <pt x="403" y="494" on="0"/>
        <pt x="403" y="520" on="1"/>
        <pt x="403" y="550" on="0"/>
        <pt x="375" y="606" on="0"/>
        <pt x="325" y="648" on="0"/>
        <pt x="257" y="673" on="0"/>
        <pt x="217" y="673" on="1"/>
        <pt x="107" y="673" on="1"/>
      </contour>
      <contour>
        <pt x="79" y="0" on="1"/>
        <pt x="79" y="700" on="1"/>
        <pt x="224" y="700" on="1"/>
        <pt x="254" y="700" on="0"/>
        <pt x="326" y="680" on="0"/>
        <pt x="389" y="637" on="0"/>
        <pt x="431" y="568" on="0"/>
        <pt x="431" y="520" on="1"/>
        <pt x="431" y="435" on="0"/>
        <pt x="321" y="335" on="0"/>
        <pt x="218" y="335" on="1"/>
        <pt x="107" y="335" on="1"/>
        <pt x="107" y="0" on="1"/>
      </contour>
    </TTGlyph>
    <TTGlyph name="Q" xMin="62" yMin="-8" xMax="800" yMax="708">
      <contour>
        <pt x="90" y="348" on="1"/>
        <pt x="90" y="280" on="0"/>
        <pt x="142" y="160" on="0"/>
        <pt x="230" y="71" on="0"/>
        <pt x="349" y="19" on="0"/>
        <pt x="417" y="19" on="1"/>
        <pt x="485" y="19" on="0"/>
        <pt x="606" y="71" on="0"/>
        <pt x="697" y="161" on="0"/>
        <pt x="750" y="281" on="0"/>
        <pt x="750" y="349" on="1"/>
        <pt x="750" y="417" on="0"/>
        <pt x="697" y="538" on="0"/>
        <pt x="607" y="628" on="0"/>
        <pt x="487" y="681" on="0"/>
        <pt x="419" y="681" on="1"/>
        <pt x="351" y="681" on="0"/>
        <pt x="231" y="628" on="0"/>
        <pt x="142" y="538" on="0"/>
        <pt x="90" y="417" on="0"/>
      </contour>
      <contour>
        <pt x="62" y="349" on="1"/>
        <pt x="62" y="423" on="0"/>
        <pt x="118" y="554" on="0"/>
        <pt x="215" y="651" on="0"/>
        <pt x="345" y="708" on="0"/>
        <pt x="419" y="708" on="1"/>
        <pt x="493" y="708" on="0"/>
        <pt x="624" y="651" on="0"/>
        <pt x="721" y="554" on="0"/>
        <pt x="778" y="423" on="0"/>
        <pt x="778" y="349" on="1"/>
        <pt x="778" y="295" on="0"/>
        <pt x="747" y="195" on="0"/>
        <pt x="690" y="112" on="0"/>
        <pt x="612" y="47" on="0"/>
        <pt x="565" y="27" on="1"/>
        <pt x="800" y="27" on="1"/>
        <pt x="800" y="0" on="1"/>
        <pt x="493" y="0" on="1"/>
        <pt x="455" y="-8" on="0"/>
        <pt x="419" y="-8" on="1"/>
        <pt x="345" y="-8" on="0"/>
        <pt x="215" y="48" on="0"/>
        <pt x="118" y="145" on="0"/>
        <pt x="62" y="275" on="0"/>
      </contour>
    </TTGlyph>
    <TTGlyph name="R" xMin="79" yMin="0" xMax="441" yMax="700">
      <contour>
        <pt x="107" y="362" on="1"/>
        <pt x="216" y="362" on="1"/>
        <pt x="271" y="362" on="0"/>
        <pt x="343" y="392" on="0"/>
        <pt x="386" y="439" on="0"/>
        <pt x="403" y="494" on="0"/>
        <pt x="403" y="520" on="1"/>
        <pt x="403" y="550" on="0"/>
        <pt x="375" y="606" on="0"/>
        <pt x="325" y="648" on="0"/>
        <pt x="257" y="673" on="0"/>
        <pt x="217" y="673" on="1"/>
        <pt x="107" y="673" on="1"/>
      </contour>
      <contour>
        <pt x="79" y="0" on="1"/>
        <pt x="79" y="700" on="1"/>
        <pt x="224" y="700" on="1"/>
        <pt x="254" y="700" on="0"/>
        <pt x="326" y="680" on="0"/>
        <pt x="389" y="637" on="0"/>
        <pt x="431" y="568" on="0"/>
        <pt x="431" y="520" on="1"/>
        <pt x="431" y="449" on="0"/>
        <pt x="354" y="355" on="0"/>
        <pt x="280" y="340" on="1"/>
        <pt x="320" y="255" on="0"/>
        <pt x="400" y="85" on="0"/>
        <pt x="441" y="0" on="1"/>
        <pt x="411" y="0" on="1"/>
        <pt x="371" y="85" on="0"/>
        <pt x="291" y="253" on="0"/>
        <pt x="251" y="338" on="1"/>
        <pt x="231" y="335" on="0"/>
        <pt x="210" y="335" on="1"/>
        <pt x="107" y="335" on="1"/>
        <pt x="107" y="0" on="1"/>
      </contour>
    </TTGlyph>
    <TTGlyph name="S" xMin="73" yMin="-8" xMax="484" yMax="704">
      <contour>
        <pt x="426" y="644" on="1"/>
        <pt x="421" y="639" on="0"/>
        <pt x="415" y="627" on="0"/>
        <pt x="410" y="622" on="1"/>
        <pt x="401" y="630" on="0"/>
        <pt x="374" y="649" on="0"/>
        <pt x="339" y="666" on="0"/>
        <pt x="295" y="677" on="0"/>
        <pt x="270" y="677" on="1"/>
        <pt x="233" y="677" on="0"/>
        <pt x="178" y="652" on="0"/>
        <pt x="141" y="610" on="0"/>
        <pt x="123" y="556" on="0"/>
        <pt x="123" y="527" on="1"/>
        <pt x="123" y="497" on="0"/>
        <pt x="141" y="454" on="0"/>
        <pt x="175" y="424" on="0"/>
        <pt x="223" y="402" on="0"/>
        <pt x="253" y="392" on="1"/>
        <pt x="284" y="381" on="0"/>
        <pt x="364" y="356" on="0"/>
        <pt x="435" y="311" on="0"/>
        <pt x="484" y="241" on="0"/>
        <pt x="484" y="186" on="1"/>
        <pt x="484" y="142" on="0"/>
        <pt x="451" y="70" on="0"/>
        <pt x="393" y="19" on="0"/>
        <pt x="316" y="-8" on="0"/>
        <pt x="273" y="-8" on="1"/>
        <pt x="234" y="-8" on="0"/>
        <pt x="169" y="13" on="0"/>
        <pt x="119" y="42" on="0"/>
        <pt x="83" y="73" on="0"/>
        <pt x="73" y="84" on="1"/>
        <pt x="93" y="104" on="1"/>
        <pt x="107" y="89" on="0"/>
        <pt x="143" y="59" on="0"/>
        <pt x="187" y="35" on="0"/>
        <pt x="239" y="19" on="0"/>
        <pt x="270" y="19" on="1"/>
        <pt x="306" y="19" on="0"/>
        <pt x="373" y="42" on="0"/>
        <pt x="425" y="84" on="0"/>
        <pt x="456" y="145" on="0"/>
        <pt x="456" y="183" on="1"/>
        <pt x="456" y="229" on="0"/>
        <pt x="416" y="290" on="0"/>
        <pt x="355" y="330" on="0"/>
        <pt x="283" y="354" on="0"/>
        <pt x="250" y="365" on="1"/>
        <pt x="232" y="370" on="0"/>
        <pt x="180" y="389" on="0"/>
        <pt x="132" y="424" on="0"/>
        <pt x="97" y="477" on="0"/>
        <pt x="95" y="517" on="1"/>
        <pt x="93" y="550" on="0"/>
        <pt x="112" y="617" on="0"/>
        <pt x="155" y="671" on="0"/>
        <pt x="224" y="704" on="0"/>
        <pt x="272" y="704" on="1"/>
        <pt x="310" y="704" on="0"/>
        <pt x="386" y="678" on="0"/>
      </contour>
    </TTGlyph>
    <TTGlyph name="T" xMin="0" yMin="0" xMax="553" yMax="700">
      <contour>
        <pt x="553" y="700" on="1"/>
        <pt x="553" y="673" on="1"/>
        <pt x="290" y="673" on="1"/>
        <pt x="290" y="0" on="1"/>
        <pt x="262" y="0" on="1"/>
        <pt x="262" y="673" on="1"/>
        <pt x="0" y="673" on="1"/>
        <pt x="0" y="700" on="1"/>
      </contour>
    </TTGlyph>
    <TTGlyph name="Thorn" xMin="100" yMin="0" xMax="452" yMax="700">
      <contour>
        <pt x="128" y="197" on="1"/>
        <pt x="237" y="197" on="1"/>
        <pt x="292" y="197" on="0"/>
        <pt x="365" y="227" on="0"/>
        <pt x="408" y="274" on="0"/>
        <pt x="425" y="329" on="0"/>
        <pt x="425" y="355" on="1"/>
        <pt x="425" y="385" on="0"/>
        <pt x="396" y="441" on="0"/>
        <pt x="346" y="483" on="0"/>
        <pt x="278" y="508" on="0"/>
        <pt x="238" y="508" on="1"/>
        <pt x="128" y="508" on="1"/>
      </contour>
      <contour>
        <pt x="128" y="0" on="1"/>
        <pt x="100" y="0" on="1"/>
        <pt x="100" y="700" on="1"/>
        <pt x="128" y="700" on="1"/>
        <pt x="128" y="535" on="1"/>
        <pt x="245" y="535" on="1"/>
        <pt x="275" y="535" on="0"/>
        <pt x="347" y="515" on="0"/>
        <pt x="410" y="472" on="0"/>
        <pt x="452" y="403" on="0"/>
        <pt x="452" y="355" on="1"/>
        <pt x="452" y="270" on="0"/>
        <pt x="342" y="170" on="0"/>
        <pt x="239" y="170" on="1"/>
        <pt x="128" y="170" on="1"/>
      </contour>
    </TTGlyph>
    <TTGlyph name="U" xMin="97" yMin="-8" xMax="558" yMax="700">
      <contour>
        <pt x="327" y="-8" on="1"/>
        <pt x="277" y="-8" on="0"/>
        <pt x="193" y="22" on="0"/>
        <pt x="132" y="81" on="0"/>
        <pt x="97" y="169" on="0"/>
        <pt x="97" y="226" on="1"/>
        <pt x="97" y="700" on="1"/>
        <pt x="125" y="700" on="1"/>
        <pt x="125" y="229" on="1"/>
        <pt x="125" y="178" on="0"/>
        <pt x="155" y="100" on="0"/>
        <pt x="209" y="47" on="0"/>
        <pt x="283" y="19" on="0"/>
        <pt x="327" y="19" on="1"/>
        <pt x="371" y="19" on="0"/>
        <pt x="445" y="47" on="0"/>
        <pt x="499" y="100" on="0"/>
        <pt x="530" y="178" on="0"/>
        <pt x="530" y="229" on="1"/>
        <pt x="530" y="700" on="1"/>
        <pt x="558" y="700" on="1"/>
        <pt x="558" y="226" on="1"/>
        <pt x="558" y="169" on="0"/>
        <pt x="522" y="81" on="0"/>
        <pt x="460" y="22" on="0"/>
        <pt x="376" y="-8" on="0"/>
      </contour>
    </TTGlyph>
    <TTGlyph name="Uacute" xMin="99" yMin="-8" xMax="560" yMax="883">
      <component glyphName="U" x="2" y="0" flags="0x204"/>
      <component glyphName="acute" x="200" y="271" flags="0x4"/>
    </TTGlyph>
    <TTGlyph name="Ucircumflex" xMin="99" yMin="-8" xMax="560" yMax="971">
      <component glyphName="U" x="2" y="0" flags="0x204"/>
      <component glyphName="asciicircum" x="94" y="311" flags="0x4"/>
    </TTGlyph>
    <TTGlyph name="Udieresis" xMin="99" yMin="-8" xMax="560" yMax="821">
      <component glyphName="U" x="2" y="0" flags="0x204"/>
      <component glyphName="dieresis" x="145" y="290" flags="0x4"/>
    </TTGlyph>
    <TTGlyph name="Ugrave" xMin="99" yMin="-8" xMax="560" yMax="883">
      <component glyphName="U" x="2" y="0" flags="0x204"/>
      <component glyphName="grave" x="245" y="271" flags="0x4"/>
    </TTGlyph>
    <TTGlyph name="V" xMin="54" yMin="-32" xMax="674" yMax="700">
      <contour>
        <pt x="645" y="700" on="1"/>
        <pt x="674" y="700" on="1"/>
        <pt x="596" y="516" on="0"/>
        <pt x="442" y="152" on="0"/>
        <pt x="364" y="-32" on="1"/>
        <pt x="286" y="152" on="0"/>
        <pt x="132" y="516" on="0"/>
        <pt x="54" y="700" on="1"/>
        <pt x="83" y="700" on="1"/>
        <pt x="151" y="539" on="0"/>
        <pt x="286" y="218" on="0"/>
        <pt x="355" y="57" on="1"/>
        <pt x="364" y="30" on="1"/>
        <pt x="373" y="57" on="1"/>
        <pt x="442" y="218" on="0"/>
        <pt x="577" y="539" on="0"/>
      </contour>
    </TTGlyph>
    <TTGlyph name="W" xMin="54" yMin="-32" xMax="1046" yMax="700">
      <contour>
        <pt x="1018" y="700" on="1"/>
        <pt x="1046" y="700" on="1"/>
        <pt x="968" y="516" on="0"/>
        <pt x="814" y="152" on="0"/>
        <pt x="736" y="-32" on="1"/>
        <pt x="559" y="385" on="1"/>
        <pt x="557" y="391" on="0"/>
        <pt x="552" y="404" on="0"/>
        <pt x="550" y="410" on="1"/>
        <pt x="506" y="299" on="0"/>
        <pt x="411" y="78" on="0"/>
        <pt x="364" y="-32" on="1"/>
        <pt x="286" y="152" on="0"/>
        <pt x="132" y="516" on="0"/>
        <pt x="54" y="700" on="1"/>
        <pt x="83" y="700" on="1"/>
        <pt x="150" y="539" on="0"/>
        <pt x="285" y="218" on="0"/>
        <pt x="355" y="57" on="1"/>
        <pt x="364" y="30" on="1"/>
        <pt x="401" y="135" on="0"/>
        <pt x="493" y="338" on="0"/>
        <pt x="535" y="441" on="1"/>
        <pt x="508" y="507" on="0"/>
        <pt x="454" y="634" on="0"/>
        <pt x="426" y="700" on="1"/>
        <pt x="455" y="700" on="1"/>
        <pt x="523" y="539" on="0"/>
        <pt x="657" y="218" on="0"/>
        <pt x="727" y="57" on="1"/>
        <pt x="736" y="30" on="1"/>
        <pt x="745" y="57" on="1"/>
        <pt x="814" y="218" on="0"/>
        <pt x="949" y="539" on="0"/>
      </contour>
    </TTGlyph>
    <TTGlyph name="X" xMin="93" yMin="0" xMax="592" yMax="700">
      <contour>
        <pt x="324" y="359" on="1"/>
        <pt x="268" y="445" on="0"/>
        <pt x="158" y="615" on="0"/>
        <pt x="103" y="700" on="1"/>
        <pt x="136" y="700" on="1"/>
        <pt x="186" y="623" on="0"/>
        <pt x="285" y="471" on="0"/>
        <pt x="335" y="395" on="1"/>
        <pt x="337" y="391" on="0"/>
        <pt x="342" y="383" on="0"/>
        <pt x="344" y="379" on="1"/>
        <pt x="346" y="383" on="0"/>
        <pt x="351" y="391" on="0"/>
        <pt x="353" y="395" on="1"/>
        <pt x="402" y="471" on="0"/>
        <pt x="500" y="623" on="0"/>
        <pt x="549" y="700" on="1"/>
        <pt x="582" y="700" on="1"/>
        <pt x="527" y="613" on="0"/>
        <pt x="416" y="442" on="0"/>
        <pt x="361" y="355" on="1"/>
        <pt x="419" y="265" on="0"/>
        <pt x="534" y="90" on="0"/>
        <pt x="592" y="0" on="1"/>
        <pt x="558" y="0" on="1"/>
        <pt x="378" y="275" on="1"/>
        <pt x="368" y="289" on="0"/>
        <pt x="351" y="322" on="0"/>
        <pt x="340" y="336" on="1"/>
        <pt x="338" y="332" on="0"/>
        <pt x="333" y="324" on="0"/>
        <pt x="331" y="320" on="1"/>
        <pt x="280" y="239" on="0"/>
        <pt x="177" y="81" on="0"/>
        <pt x="126" y="0" on="1"/>
        <pt x="93" y="0" on="1"/>
        <pt x="151" y="91" on="0"/>
        <pt x="265" y="269" on="0"/>
      </contour>
    </TTGlyph>
    <TTGlyph name="Y" xMin="41" yMin="0" xMax="594" yMax="700">
      <contour>
        <pt x="334" y="263" on="1"/>
        <pt x="334" y="0" on="1"/>
        <pt x="302" y="0" on="1"/>
        <pt x="302" y="264" on="1"/>
        <pt x="236" y="373" on="0"/>
        <pt x="107" y="591" on="0"/>
        <pt x="41" y="700" on="1"/>
        <pt x="75" y="700" on="1"/>
        <pt x="133" y="603" on="0"/>
        <pt x="249" y="411" on="0"/>
        <pt x="306" y="314" on="1"/>
        <pt x="318" y="287" on="1"/>
        <pt x="319" y="287" on="1"/>
        <pt x="322" y="294" on="0"/>
        <pt x="327" y="307" on="0"/>
        <pt x="330" y="314" on="1"/>
        <pt x="388" y="411" on="0"/>
        <pt x="502" y="603" on="0"/>
        <pt x="560" y="700" on="1"/>
        <pt x="594" y="700" on="1"/>
        <pt x="529" y="590" on="0"/>
        <pt x="399" y="373" on="0"/>
      </contour>
    </TTGlyph>
    <TTGlyph name="Yacute" xMin="41" yMin="0" xMax="594" yMax="883">
      <component glyphName="Y" x="0" y="0" flags="0x204"/>
      <component glyphName="acute" x="199" y="271" flags="0x4"/>
    </TTGlyph>
    <TTGlyph name="Z" xMin="81" yMin="0" xMax="640" yMax="735">
      <contour>
        <pt x="157" y="700" on="1"/>
        <pt x="611" y="700" on="1"/>
        <pt x="611" y="673" on="1"/>
        <pt x="486" y="511" on="0"/>
        <pt x="242" y="189" on="0"/>
        <pt x="117" y="27" on="1"/>
        <pt x="640" y="27" on="1"/>
        <pt x="640" y="0" on="1"/>
        <pt x="81" y="0" on="1"/>
        <pt x="81" y="27" on="1"/>
        <pt x="206" y="189" on="0"/>
        <pt x="450" y="511" on="0"/>
        <pt x="575" y="673" on="1"/>
        <pt x="161" y="673" on="1"/>
        <pt x="130" y="673" on="0"/>
        <pt x="98" y="693" on="0"/>
        <pt x="98" y="722" on="1"/>
        <pt x="98" y="735" on="1"/>
        <pt x="127" y="735" on="1"/>
        <pt x="127" y="723" on="1"/>
        <pt x="127" y="712" on="0"/>
        <pt x="140" y="700" on="0"/>
      </contour>
    </TTGlyph>
    <TTGlyph name="a" xMin="49" yMin="-7" xMax="440" yMax="383">
      <contour>
        <pt x="77" y="188" on="1"/>
        <pt x="77" y="153" on="0"/>
        <pt x="103" y="92" on="0"/>
        <pt x="148" y="47" on="0"/>
        <pt x="209" y="21" on="0"/>
        <pt x="244" y="21" on="1"/>
        <pt x="279" y="21" on="0"/>
        <pt x="341" y="47" on="0"/>
        <pt x="387" y="92" on="0"/>
        <pt x="413" y="153" on="0"/>
        <pt x="413" y="188" on="1"/>
        <pt x="413" y="223" on="0"/>
        <pt x="387" y="284" on="0"/>
        <pt x="341" y="330" on="0"/>
        <pt x="279" y="356" on="0"/>
        <pt x="244" y="356" on="1"/>
        <pt x="209" y="356" on="0"/>
        <pt x="148" y="330" on="0"/>
        <pt x="103" y="284" on="0"/>
        <pt x="77" y="223" on="0"/>
      </contour>
      <contour>
        <pt x="49" y="188" on="1"/>
        <pt x="49" y="228" on="0"/>
        <pt x="79" y="299" on="0"/>
        <pt x="132" y="352" on="0"/>
        <pt x="203" y="383" on="0"/>
        <pt x="244" y="383" on="1"/>
        <pt x="274" y="383" on="0"/>
        <pt x="328" y="366" on="0"/>
        <pt x="373" y="336" on="0"/>
        <pt x="406" y="296" on="0"/>
        <pt x="415" y="274" on="1"/>
        <pt x="415" y="299" on="0"/>
        <pt x="417" y="349" on="0"/>
        <pt x="419" y="375" on="1"/>
        <pt x="440" y="375" on="1"/>
        <pt x="440" y="0" on="1"/>
        <pt x="415" y="0" on="1"/>
        <pt x="415" y="50" on="1"/>
        <pt x="415" y="102" on="1"/>
        <pt x="398" y="57" on="0"/>
        <pt x="307" y="-6" on="0"/>
        <pt x="244" y="-7" on="1"/>
        <pt x="203" y="-7" on="0"/>
        <pt x="132" y="24" on="0"/>
        <pt x="79" y="76" on="0"/>
        <pt x="49" y="147" on="0"/>
      </contour>
    </TTGlyph>
    <TTGlyph name="aacute" xMin="49" yMin="-7" xMax="440" yMax="612">
      <component glyphName="a" x="0" y="0" flags="0x4"/>
      <component glyphName="acute" x="132" y="0" flags="0x4"/>
    </TTGlyph>
    <TTGlyph name="acircumflex" xMin="49" yMin="-7" xMax="440" yMax="660">
      <component glyphName="a" x="0" y="0" flags="0x4"/>
      <component glyphName="asciicircum" x="29" y="0" flags="0x4"/>
    </TTGlyph>
    <TTGlyph name="acute" xMin="100" yMin="479" xMax="220" yMax="612">
      <contour>
        <pt x="100" y="479" on="1"/>
        <pt x="123" y="512" on="0"/>
        <pt x="167" y="579" on="0"/>
        <pt x="190" y="612" on="1"/>
        <pt x="220" y="612" on="1"/>
        <pt x="196" y="579" on="0"/>
        <pt x="148" y="512" on="0"/>
        <pt x="125" y="479" on="1"/>
      </contour>
    </TTGlyph>
    <TTGlyph name="adieresis" xMin="49" yMin="-7" xMax="440" yMax="531">
      <component glyphName="a" x="0" y="0" flags="0x4"/>
      <component glyphName="dieresis" x="79" y="0" flags="0x4"/>
    </TTGlyph>
    <TTGlyph name="ae" xMin="48" yMin="-8" xMax="564" yMax="383">
      <contour>
        <pt x="360" y="243" on="1"/>
        <pt x="360" y="199" on="1"/>
        <pt x="402" y="216" on="0"/>
        <pt x="487" y="249" on="0"/>
        <pt x="529" y="266" on="1"/>
        <pt x="510" y="306" on="0"/>
        <pt x="438" y="356" on="0"/>
        <pt x="394" y="356" on="1"/>
        <pt x="362" y="356" on="0"/>
        <pt x="331" y="343" on="1"/>
        <pt x="348" y="329" on="0"/>
        <pt x="360" y="279" on="0"/>
      </contour>
      <contour>
        <pt x="332" y="170" on="1"/>
        <pt x="246" y="170" on="1"/>
        <pt x="230" y="170" on="0"/>
        <pt x="173" y="170" on="0"/>
        <pt x="117" y="159" on="0"/>
        <pt x="76" y="130" on="0"/>
        <pt x="76" y="101" on="1"/>
        <pt x="76" y="75" on="0"/>
        <pt x="101" y="43" on="0"/>
        <pt x="140" y="25" on="0"/>
        <pt x="186" y="19" on="0"/>
        <pt x="207" y="19" on="1"/>
        <pt x="229" y="19" on="0"/>
        <pt x="274" y="27" on="0"/>
        <pt x="310" y="46" on="0"/>
        <pt x="332" y="81" on="0"/>
        <pt x="332" y="108" on="1"/>
      </contour>
      <contour>
        <pt x="96" y="322" on="1"/>
        <pt x="91" y="327" on="0"/>
        <pt x="81" y="338" on="0"/>
        <pt x="76" y="343" on="1"/>
        <pt x="86" y="351" on="0"/>
        <pt x="116" y="366" on="0"/>
        <pt x="151" y="377" on="0"/>
        <pt x="188" y="383" on="0"/>
        <pt x="205" y="383" on="1"/>
        <pt x="241" y="383" on="0"/>
        <pt x="294" y="375" on="0"/>
        <pt x="311" y="365" on="1"/>
        <pt x="348" y="383" on="0"/>
        <pt x="394" y="383" on="1"/>
        <pt x="453" y="383" on="0"/>
        <pt x="545" y="310" on="0"/>
        <pt x="564" y="251" on="1"/>
        <pt x="513" y="231" on="0"/>
        <pt x="411" y="190" on="0"/>
        <pt x="360" y="169" on="1"/>
        <pt x="360" y="149" on="1"/>
        <pt x="360" y="130" on="1"/>
        <pt x="360" y="96" on="0"/>
        <pt x="346" y="51" on="0"/>
        <pt x="326" y="34" on="1"/>
        <pt x="342" y="28" on="0"/>
        <pt x="375" y="21" on="0"/>
        <pt x="394" y="21" on="1"/>
        <pt x="427" y="21" on="0"/>
        <pt x="486" y="46" on="0"/>
        <pt x="508" y="67" on="1"/>
        <pt x="513" y="61" on="0"/>
        <pt x="521" y="51" on="0"/>
        <pt x="526" y="46" on="1"/>
        <pt x="500" y="22" on="0"/>
        <pt x="433" y="-6" on="0"/>
        <pt x="394" y="-6" on="1"/>
        <pt x="345" y="-6" on="0"/>
        <pt x="307" y="13" on="1"/>
        <pt x="271" y="-8" on="0"/>
        <pt x="205" y="-8" on="1"/>
        <pt x="170" y="-8" on="0"/>
        <pt x="112" y="2" on="0"/>
        <pt x="71" y="28" on="0"/>
        <pt x="48" y="69" on="0"/>
        <pt x="48" y="101" on="1"/>
        <pt x="48" y="129" on="0"/>
        <pt x="73" y="166" on="0"/>
        <pt x="115" y="189" on="0"/>
        <pt x="168" y="199" on="0"/>
        <pt x="197" y="199" on="1"/>
        <pt x="332" y="199" on="1"/>
        <pt x="332" y="245" on="1"/>
        <pt x="332" y="273" on="0"/>
        <pt x="323" y="314" on="0"/>
        <pt x="296" y="342" on="0"/>
        <pt x="246" y="356" on="0"/>
        <pt x="204" y="356" on="1"/>
        <pt x="190" y="356" on="0"/>
        <pt x="159" y="350" on="0"/>
        <pt x="129" y="341" on="0"/>
        <pt x="103" y="328" on="0"/>
      </contour>
    </TTGlyph>
    <TTGlyph name="agrave" xMin="49" yMin="-7" xMax="440" yMax="612">
      <component glyphName="a" x="0" y="0" flags="0x4"/>
      <component glyphName="grave" x="165" y="0" flags="0x4"/>
    </TTGlyph>
    <TTGlyph name="ampersand" xMin="106" yMin="-19" xMax="603" yMax="750">
      <contour>
        <pt x="134" y="187" on="1"/>
        <pt x="134" y="152" on="0"/>
        <pt x="160" y="91" on="0"/>
        <pt x="205" y="46" on="0"/>
        <pt x="266" y="20" on="0"/>
        <pt x="301" y="20" on="1"/>
        <pt x="346" y="20" on="0"/>
        <pt x="420" y="61" on="0"/>
        <pt x="442" y="96" on="1"/>
        <pt x="403" y="161" on="0"/>
        <pt x="324" y="288" on="0"/>
        <pt x="284" y="353" on="1"/>
        <pt x="252" y="350" on="0"/>
        <pt x="197" y="322" on="0"/>
        <pt x="157" y="278" on="0"/>
        <pt x="134" y="220" on="0"/>
      </contour>
      <contour>
        <pt x="497" y="238" on="1"/>
        <pt x="497" y="187" on="1"/>
        <pt x="497" y="162" on="0"/>
        <pt x="484" y="116" on="0"/>
        <pt x="473" y="96" on="1"/>
        <pt x="489" y="71" on="0"/>
        <pt x="519" y="22" on="0"/>
        <pt x="535" y="-4" on="1"/>
        <pt x="530" y="-8" on="0"/>
        <pt x="519" y="-15" on="0"/>
        <pt x="513" y="-19" on="1"/>
        <pt x="499" y="3" on="0"/>
        <pt x="472" y="48" on="0"/>
        <pt x="458" y="70" on="1"/>
        <pt x="431" y="35" on="0"/>
        <pt x="350" y="-7" on="0"/>
        <pt x="301" y="-7" on="1"/>
        <pt x="260" y="-7" on="0"/>
        <pt x="189" y="23" on="0"/>
        <pt x="136" y="76" on="0"/>
        <pt x="106" y="146" on="0"/>
        <pt x="106" y="187" on="1"/>
        <pt x="106" y="223" on="0"/>
        <pt x="131" y="288" on="0"/>
        <pt x="174" y="339" on="0"/>
        <pt x="233" y="373" on="0"/>
        <pt x="268" y="379" on="1"/>
        <pt x="251" y="408" on="0"/>
        <pt x="215" y="467" on="0"/>
        <pt x="197" y="496" on="1"/>
        <pt x="179" y="526" on="0"/>
        <pt x="164" y="590" on="0"/>
        <pt x="174" y="652" on="0"/>
        <pt x="210" y="706" on="0"/>
        <pt x="243" y="726" on="1"/>
        <pt x="271" y="743" on="0"/>
        <pt x="330" y="750" on="0"/>
        <pt x="386" y="740" on="0"/>
        <pt x="435" y="718" on="0"/>
        <pt x="454" y="706" on="1"/>
        <pt x="451" y="700" on="0"/>
        <pt x="445" y="688" on="0"/>
        <pt x="443" y="682" on="1"/>
        <pt x="422" y="694" on="0"/>
        <pt x="377" y="715" on="0"/>
        <pt x="331" y="724" on="0"/>
        <pt x="284" y="718" on="0"/>
        <pt x="261" y="704" on="1"/>
        <pt x="232" y="686" on="0"/>
        <pt x="200" y="639" on="0"/>
        <pt x="192" y="586" on="0"/>
        <pt x="205" y="532" on="0"/>
        <pt x="221" y="506" on="1"/>
        <pt x="278" y="412" on="0"/>
        <pt x="393" y="227" on="0"/>
        <pt x="450" y="133" on="1"/>
        <pt x="459" y="152" on="0"/>
        <pt x="470" y="193" on="0"/>
        <pt x="471" y="215" on="1"/>
        <pt x="471" y="271" on="1"/>
        <pt x="472" y="312" on="0"/>
        <pt x="489" y="355" on="0"/>
        <pt x="515" y="373" on="0"/>
        <pt x="547" y="375" on="0"/>
        <pt x="564" y="375" on="1"/>
        <pt x="603" y="375" on="1"/>
        <pt x="603" y="348" on="1"/>
        <pt x="549" y="348" on="1"/>
        <pt x="518" y="348" on="0"/>
        <pt x="497" y="299" on="0"/>
      </contour>
    </TTGlyph>
    <TTGlyph name="aring" xMin="49" yMin="-7" xMax="440" yMax="608">
      <contour>
        <pt x="204" y="540" on="1"/>
        <pt x="204" y="521" on="0"/>
        <pt x="232" y="494" on="0"/>
        <pt x="250" y="494" on="1"/>
        <pt x="269" y="494" on="0"/>
        <pt x="296" y="521" on="0"/>
        <pt x="296" y="540" on="1"/>
        <pt x="296" y="558" on="0"/>
        <pt x="269" y="586" on="0"/>
        <pt x="250" y="586" on="1"/>
        <pt x="232" y="586" on="0"/>
        <pt x="204" y="558" on="0"/>
      </contour>
      <contour>
        <pt x="182" y="540" on="1"/>
        <pt x="182" y="569" on="0"/>
        <pt x="221" y="608" on="0"/>
        <pt x="250" y="608" on="1"/>
        <pt x="279" y="608" on="0"/>
        <pt x="318" y="569" on="0"/>
        <pt x="318" y="540" on="1"/>
        <pt x="318" y="511" on="0"/>
        <pt x="279" y="472" on="0"/>
        <pt x="250" y="472" on="1"/>
        <pt x="221" y="472" on="0"/>
        <pt x="182" y="511" on="0"/>
      </contour>
      <contour>
        <pt x="77" y="188" on="1"/>
        <pt x="77" y="153" on="0"/>
        <pt x="103" y="92" on="0"/>
        <pt x="148" y="47" on="0"/>
        <pt x="209" y="21" on="0"/>
        <pt x="244" y="21" on="1"/>
        <pt x="279" y="21" on="0"/>
        <pt x="341" y="47" on="0"/>
        <pt x="387" y="92" on="0"/>
        <pt x="413" y="153" on="0"/>
        <pt x="413" y="188" on="1"/>
        <pt x="413" y="223" on="0"/>
        <pt x="387" y="284" on="0"/>
        <pt x="341" y="330" on="0"/>
        <pt x="279" y="356" on="0"/>
        <pt x="244" y="356" on="1"/>
        <pt x="209" y="356" on="0"/>
        <pt x="148" y="330" on="0"/>
        <pt x="103" y="284" on="0"/>
        <pt x="77" y="223" on="0"/>
      </contour>
      <contour>
        <pt x="49" y="188" on="1"/>
        <pt x="49" y="228" on="0"/>
        <pt x="79" y="299" on="0"/>
        <pt x="132" y="352" on="0"/>
        <pt x="203" y="383" on="0"/>
        <pt x="244" y="383" on="1"/>
        <pt x="274" y="383" on="0"/>
        <pt x="328" y="366" on="0"/>
        <pt x="373" y="336" on="0"/>
        <pt x="406" y="296" on="0"/>
        <pt x="415" y="274" on="1"/>
        <pt x="415" y="299" on="0"/>
        <pt x="417" y="349" on="0"/>
        <pt x="419" y="375" on="1"/>
        <pt x="440" y="375" on="1"/>
        <pt x="440" y="0" on="1"/>
        <pt x="415" y="0" on="1"/>
        <pt x="415" y="50" on="1"/>
        <pt x="415" y="102" on="1"/>
        <pt x="398" y="57" on="0"/>
        <pt x="307" y="-6" on="0"/>
        <pt x="244" y="-7" on="1"/>
        <pt x="203" y="-7" on="0"/>
        <pt x="132" y="24" on="0"/>
        <pt x="79" y="76" on="0"/>
        <pt x="49" y="147" on="0"/>
      </contour>
    </TTGlyph>
    <TTGlyph name="asciicircum" xMin="112" yMin="479" xMax="352" yMax="660">
      <contour>
        <pt x="232" y="660" on="1"/>
        <pt x="262" y="615" on="0"/>
        <pt x="322" y="524" on="0"/>
        <pt x="352" y="479" on="1"/>
        <pt x="327" y="479" on="1"/>
        <pt x="303" y="514" on="0"/>
        <pt x="256" y="582" on="0"/>
        <pt x="232" y="617" on="1"/>
        <pt x="208" y="582" on="0"/>
        <pt x="161" y="514" on="0"/>
        <pt x="137" y="479" on="1"/>
        <pt x="112" y="479" on="1"/>
        <pt x="142" y="524" on="0"/>
        <pt x="202" y="615" on="0"/>
      </contour>
    </TTGlyph>
    <TTGlyph name="asciitilde" xMin="130" yMin="457" xMax="421" yMax="543">
      <contour>
        <pt x="266" y="494" on="1"/>
        <pt x="250" y="511" on="0"/>
        <pt x="227" y="523" on="0"/>
        <pt x="213" y="523" on="1"/>
        <pt x="205" y="523" on="0"/>
        <pt x="185" y="519" on="0"/>
        <pt x="165" y="507" on="0"/>
        <pt x="151" y="486" on="0"/>
        <pt x="149" y="470" on="1"/>
        <pt x="144" y="471" on="0"/>
        <pt x="135" y="471" on="0"/>
        <pt x="130" y="472" on="1"/>
        <pt x="131" y="491" on="0"/>
        <pt x="147" y="518" on="0"/>
        <pt x="171" y="535" on="0"/>
        <pt x="200" y="543" on="0"/>
        <pt x="214" y="543" on="1"/>
        <pt x="234" y="543" on="0"/>
        <pt x="268" y="523" on="0"/>
        <pt x="284" y="506" on="1"/>
        <pt x="300" y="489" on="0"/>
        <pt x="324" y="477" on="0"/>
        <pt x="338" y="477" on="1"/>
        <pt x="345" y="477" on="0"/>
        <pt x="366" y="481" on="0"/>
        <pt x="385" y="493" on="0"/>
        <pt x="399" y="514" on="0"/>
        <pt x="401" y="530" on="1"/>
        <pt x="406" y="529" on="0"/>
        <pt x="416" y="529" on="0"/>
        <pt x="421" y="528" on="1"/>
        <pt x="420" y="509" on="0"/>
        <pt x="404" y="482" on="0"/>
        <pt x="380" y="465" on="0"/>
        <pt x="351" y="457" on="0"/>
        <pt x="337" y="457" on="1"/>
        <pt x="317" y="457" on="0"/>
        <pt x="282" y="477" on="0"/>
      </contour>
    </TTGlyph>
    <TTGlyph name="asterisk" xMin="36" yMin="434" xMax="299" yMax="720">
      <contour>
        <pt x="196" y="575" on="1"/>
        <pt x="221" y="561" on="0"/>
        <pt x="272" y="531" on="0"/>
        <pt x="298" y="517" on="1"/>
        <pt x="294" y="510" on="0"/>
        <pt x="286" y="497" on="0"/>
        <pt x="282" y="490" on="1"/>
        <pt x="256" y="505" on="0"/>
        <pt x="207" y="535" on="0"/>
        <pt x="181" y="550" on="1"/>
        <pt x="180" y="521" on="0"/>
        <pt x="180" y="463" on="0"/>
        <pt x="179" y="434" on="1"/>
        <pt x="152" y="434" on="1"/>
        <pt x="152" y="550" on="1"/>
        <pt x="126" y="535" on="0"/>
        <pt x="77" y="506" on="0"/>
        <pt x="52" y="492" on="1"/>
        <pt x="48" y="499" on="0"/>
        <pt x="40" y="512" on="0"/>
        <pt x="36" y="519" on="1"/>
        <pt x="62" y="533" on="0"/>
        <pt x="112" y="562" on="0"/>
        <pt x="137" y="576" on="1"/>
        <pt x="112" y="591" on="0"/>
        <pt x="62" y="621" on="0"/>
        <pt x="36" y="636" on="1"/>
        <pt x="40" y="642" on="0"/>
        <pt x="47" y="654" on="0"/>
        <pt x="50" y="660" on="1"/>
        <pt x="152" y="600" on="1"/>
        <pt x="152" y="720" on="1"/>
        <pt x="183" y="720" on="1"/>
        <pt x="182" y="690" on="0"/>
        <pt x="182" y="630" on="0"/>
        <pt x="181" y="600" on="1"/>
        <pt x="207" y="614" on="0"/>
        <pt x="259" y="644" on="0"/>
        <pt x="285" y="659" on="1"/>
        <pt x="289" y="653" on="0"/>
        <pt x="296" y="641" on="0"/>
        <pt x="299" y="635" on="1"/>
        <pt x="273" y="620" on="0"/>
        <pt x="222" y="590" on="0"/>
      </contour>
    </TTGlyph>
    <TTGlyph name="at" xMin="88" yMin="-212" xMax="890" yMax="590">
      <contour>
        <pt x="322" y="188" on="1"/>
        <pt x="322" y="153" on="0"/>
        <pt x="348" y="92" on="0"/>
        <pt x="393" y="47" on="0"/>
        <pt x="454" y="21" on="0"/>
        <pt x="489" y="21" on="1"/>
        <pt x="524" y="21" on="0"/>
        <pt x="586" y="47" on="0"/>
        <pt x="631" y="92" on="0"/>
        <pt x="657" y="153" on="0"/>
        <pt x="657" y="188" on="1"/>
        <pt x="657" y="223" on="0"/>
        <pt x="631" y="284" on="0"/>
        <pt x="586" y="330" on="0"/>
        <pt x="524" y="356" on="0"/>
        <pt x="489" y="356" on="1"/>
        <pt x="454" y="356" on="0"/>
        <pt x="393" y="330" on="0"/>
        <pt x="348" y="284" on="0"/>
        <pt x="322" y="223" on="0"/>
      </contour>
      <contour>
        <pt x="890" y="188" on="1"/>
        <pt x="888" y="130" on="0"/>
        <pt x="860" y="57" on="0"/>
        <pt x="819" y="15" on="0"/>
        <pt x="768" y="0" on="0"/>
        <pt x="743" y="0" on="1"/>
        <pt x="659" y="0" on="1"/>
        <pt x="659" y="47" on="1"/>
        <pt x="659" y="61" on="0"/>
        <pt x="660" y="88" on="0"/>
        <pt x="660" y="102" on="1"/>
        <pt x="651" y="79" on="0"/>
        <pt x="619" y="40" on="0"/>
        <pt x="574" y="11" on="0"/>
        <pt x="520" y="-7" on="0"/>
        <pt x="489" y="-7" on="1"/>
        <pt x="448" y="-7" on="0"/>
        <pt x="377" y="24" on="0"/>
        <pt x="324" y="76" on="0"/>
        <pt x="294" y="147" on="0"/>
        <pt x="294" y="188" on="1"/>
        <pt x="294" y="228" on="0"/>
        <pt x="324" y="299" on="0"/>
        <pt x="377" y="352" on="0"/>
        <pt x="448" y="383" on="0"/>
        <pt x="489" y="383" on="1"/>
        <pt x="519" y="383" on="0"/>
        <pt x="572" y="366" on="0"/>
        <pt x="617" y="336" on="0"/>
        <pt x="650" y="296" on="0"/>
        <pt x="659" y="274" on="1"/>
        <pt x="659" y="299" on="0"/>
        <pt x="662" y="349" on="0"/>
        <pt x="663" y="375" on="1"/>
        <pt x="685" y="375" on="1"/>
        <pt x="685" y="27" on="1"/>
        <pt x="748" y="27" on="1"/>
        <pt x="799" y="27" on="0"/>
        <pt x="860" y="103" on="0"/>
        <pt x="862" y="188" on="1"/>
        <pt x="862" y="266" on="0"/>
        <pt x="803" y="402" on="0"/>
        <pt x="702" y="504" on="0"/>
        <pt x="566" y="563" on="0"/>
        <pt x="489" y="563" on="1"/>
        <pt x="412" y="563" on="0"/>
        <pt x="276" y="504" on="0"/>
        <pt x="175" y="402" on="0"/>
        <pt x="116" y="266" on="0"/>
        <pt x="116" y="188" on="1"/>
        <pt x="116" y="111" on="0"/>
        <pt x="175" y="-25" on="0"/>
        <pt x="276" y="-126" on="0"/>
        <pt x="412" y="-185" on="0"/>
        <pt x="489" y="-185" on="1"/>
        <pt x="550" y="-185" on="0"/>
        <pt x="660" y="-147" on="0"/>
        <pt x="706" y="-115" on="1"/>
        <pt x="711" y="-121" on="0"/>
        <pt x="718" y="-131" on="0"/>
        <pt x="723" y="-136" on="1"/>
        <pt x="673" y="-172" on="0"/>
        <pt x="555" y="-212" on="0"/>
        <pt x="489" y="-212" on="1"/>
        <pt x="406" y="-212" on="0"/>
        <pt x="260" y="-149" on="0"/>
        <pt x="151" y="-40" on="0"/>
        <pt x="88" y="106" on="0"/>
        <pt x="88" y="189" on="1"/>
        <pt x="88" y="272" on="0"/>
        <pt x="151" y="418" on="0"/>
        <pt x="260" y="527" on="0"/>
        <pt x="406" y="590" on="0"/>
        <pt x="489" y="590" on="1"/>
        <pt x="572" y="590" on="0"/>
        <pt x="718" y="527" on="0"/>
        <pt x="827" y="418" on="0"/>
        <pt x="890" y="272" on="0"/>
      </contour>
    </TTGlyph>
    <TTGlyph name="atilde" xMin="49" yMin="-7" xMax="440" yMax="543">
      <component glyphName="a" x="0" y="0" flags="0x4"/>
      <component glyphName="asciitilde" x="-5" y="0" flags="0x4"/>
    </TTGlyph>
    <TTGlyph name="b" xMin="82" yMin="-7" xMax="473" yMax="750">
      <contour>
        <pt x="445" y="188" on="1"/>
        <pt x="445" y="223" on="0"/>
        <pt x="419" y="284" on="0"/>
        <pt x="374" y="330" on="0"/>
        <pt x="313" y="356" on="0"/>
        <pt x="278" y="356" on="1"/>
        <pt x="243" y="356" on="0"/>
        <pt x="181" y="330" on="0"/>
        <pt x="136" y="284" on="0"/>
        <pt x="110" y="223" on="0"/>
        <pt x="110" y="188" on="1"/>
        <pt x="110" y="153" on="0"/>
        <pt x="136" y="92" on="0"/>
        <pt x="181" y="47" on="0"/>
        <pt x="243" y="21" on="0"/>
        <pt x="278" y="21" on="1"/>
        <pt x="313" y="21" on="0"/>
        <pt x="374" y="47" on="0"/>
        <pt x="419" y="92" on="0"/>
        <pt x="445" y="153" on="0"/>
      </contour>
      <contour>
        <pt x="473" y="188" on="1"/>
        <pt x="473" y="147" on="0"/>
        <pt x="443" y="76" on="0"/>
        <pt x="390" y="24" on="0"/>
        <pt x="319" y="-7" on="0"/>
        <pt x="278" y="-7" on="1"/>
        <pt x="216" y="-6" on="0"/>
        <pt x="124" y="57" on="0"/>
        <pt x="107" y="102" on="1"/>
        <pt x="107" y="88" on="0"/>
        <pt x="108" y="63" on="0"/>
        <pt x="108" y="50" on="1"/>
        <pt x="108" y="0" on="1"/>
        <pt x="82" y="0" on="1"/>
        <pt x="82" y="750" on="1"/>
        <pt x="110" y="750" on="1"/>
        <pt x="110" y="324" on="1"/>
        <pt x="109" y="311" on="0"/>
        <pt x="108" y="287" on="0"/>
        <pt x="108" y="274" on="1"/>
        <pt x="116" y="296" on="0"/>
        <pt x="149" y="336" on="0"/>
        <pt x="193" y="366" on="0"/>
        <pt x="248" y="383" on="0"/>
        <pt x="278" y="383" on="1"/>
        <pt x="319" y="383" on="0"/>
        <pt x="390" y="352" on="0"/>
        <pt x="443" y="300" on="0"/>
        <pt x="473" y="228" on="0"/>
      </contour>
    </TTGlyph>
    <TTGlyph name="backslash" xMin="14" yMin="-19" xMax="322" yMax="736">
      <contour>
        <pt x="44" y="736" on="1"/>
        <pt x="114" y="546" on="0"/>
        <pt x="252" y="171" on="0"/>
        <pt x="322" y="-19" on="1"/>
        <pt x="292" y="-19" on="1"/>
        <pt x="222" y="171" on="0"/>
        <pt x="84" y="546" on="0"/>
        <pt x="14" y="736" on="1"/>
      </contour>
    </TTGlyph>
    <TTGlyph name="bar" xMin="97" yMin="-232" xMax="125" yMax="700">
      <contour>
        <pt x="97" y="-232" on="1"/>
        <pt x="97" y="700" on="1"/>
        <pt x="125" y="700" on="1"/>
        <pt x="125" y="-232" on="1"/>
      </contour>
    </TTGlyph>
    <TTGlyph name="braceleft" xMin="30" yMin="-148" xMax="244" yMax="746">
      <contour>
        <pt x="30" y="281" on="1"/>
        <pt x="30" y="316" on="1"/>
        <pt x="54" y="317" on="0"/>
        <pt x="85" y="344" on="0"/>
        <pt x="103" y="384" on="0"/>
        <pt x="109" y="431" on="0"/>
        <pt x="109" y="451" on="1"/>
        <pt x="109" y="628" on="1"/>
        <pt x="109" y="674" on="0"/>
        <pt x="125" y="722" on="0"/>
        <pt x="150" y="743" on="0"/>
        <pt x="183" y="746" on="0"/>
        <pt x="201" y="746" on="1"/>
        <pt x="244" y="746" on="1"/>
        <pt x="244" y="719" on="1"/>
        <pt x="189" y="719" on="1"/>
        <pt x="158" y="719" on="0"/>
        <pt x="137" y="670" on="0"/>
        <pt x="137" y="608" on="1"/>
        <pt x="137" y="463" on="1"/>
        <pt x="137" y="419" on="0"/>
        <pt x="126" y="362" on="0"/>
        <pt x="108" y="326" on="0"/>
        <pt x="84" y="306" on="0"/>
        <pt x="71" y="299" on="1"/>
        <pt x="84" y="292" on="0"/>
        <pt x="108" y="271" on="0"/>
        <pt x="126" y="234" on="0"/>
        <pt x="137" y="178" on="0"/>
        <pt x="137" y="135" on="1"/>
        <pt x="137" y="-11" on="1"/>
        <pt x="137" y="-72" on="0"/>
        <pt x="158" y="-121" on="0"/>
        <pt x="189" y="-121" on="1"/>
        <pt x="244" y="-121" on="1"/>
        <pt x="244" y="-148" on="1"/>
        <pt x="201" y="-148" on="1"/>
        <pt x="181" y="-148" on="0"/>
        <pt x="147" y="-145" on="0"/>
        <pt x="123" y="-118" on="0"/>
        <pt x="109" y="-58" on="0"/>
        <pt x="109" y="-1" on="1"/>
        <pt x="109" y="146" on="1"/>
        <pt x="109" y="166" on="0"/>
        <pt x="103" y="213" on="0"/>
        <pt x="85" y="253" on="0"/>
        <pt x="54" y="280" on="0"/>
      </contour>
    </TTGlyph>
    <TTGlyph name="braceright" xMin="76" yMin="-148" xMax="290" yMax="746">
      <contour>
        <pt x="290" y="316" on="1"/>
        <pt x="290" y="281" on="1"/>
        <pt x="260" y="279" on="0"/>
        <pt x="228" y="241" on="0"/>
        <pt x="213" y="189" on="0"/>
        <pt x="211" y="135" on="0"/>
        <pt x="211" y="117" on="1"/>
        <pt x="211" y="-30" on="1"/>
        <pt x="211" y="-76" on="0"/>
        <pt x="195" y="-125" on="0"/>
        <pt x="170" y="-146" on="0"/>
        <pt x="137" y="-148" on="0"/>
        <pt x="119" y="-148" on="1"/>
        <pt x="76" y="-148" on="1"/>
        <pt x="76" y="-121" on="1"/>
        <pt x="131" y="-121" on="1"/>
        <pt x="162" y="-121" on="0"/>
        <pt x="183" y="-72" on="0"/>
        <pt x="183" y="-11" on="1"/>
        <pt x="183" y="165" on="1"/>
        <pt x="183" y="198" on="0"/>
        <pt x="197" y="244" on="0"/>
        <pt x="217" y="275" on="0"/>
        <pt x="240" y="293" on="0"/>
        <pt x="249" y="299" on="1"/>
        <pt x="236" y="306" on="0"/>
        <pt x="212" y="326" on="0"/>
        <pt x="194" y="362" on="0"/>
        <pt x="183" y="419" on="0"/>
        <pt x="183" y="463" on="1"/>
        <pt x="183" y="608" on="1"/>
        <pt x="183" y="670" on="0"/>
        <pt x="162" y="719" on="0"/>
        <pt x="131" y="719" on="1"/>
        <pt x="76" y="719" on="1"/>
        <pt x="76" y="746" on="1"/>
        <pt x="119" y="746" on="1"/>
        <pt x="137" y="746" on="0"/>
        <pt x="170" y="744" on="0"/>
        <pt x="195" y="723" on="0"/>
        <pt x="211" y="674" on="0"/>
        <pt x="211" y="628" on="1"/>
        <pt x="211" y="480" on="1"/>
        <pt x="211" y="462" on="0"/>
        <pt x="213" y="407" on="0"/>
        <pt x="228" y="356" on="0"/>
        <pt x="260" y="317" on="0"/>
      </contour>
    </TTGlyph>
    <TTGlyph name="bracketleft" xMin="83" yMin="-149" xMax="252" yMax="746">
      <contour>
        <pt x="83" y="-149" on="1"/>
        <pt x="83" y="746" on="1"/>
        <pt x="252" y="746" on="1"/>
        <pt x="252" y="719" on="1"/>
        <pt x="112" y="719" on="1"/>
        <pt x="112" y="-122" on="1"/>
        <pt x="252" y="-122" on="1"/>
        <pt x="252" y="-149" on="1"/>
      </contour>
    </TTGlyph>
    <TTGlyph name="bracketright" xMin="82" yMin="-149" xMax="251" yMax="746">
      <contour>
        <pt x="251" y="746" on="1"/>
        <pt x="251" y="-149" on="1"/>
        <pt x="82" y="-149" on="1"/>
        <pt x="82" y="-122" on="1"/>
        <pt x="222" y="-122" on="1"/>
        <pt x="222" y="719" on="1"/>
        <pt x="82" y="719" on="1"/>
        <pt x="82" y="746" on="1"/>
      </contour>
    </TTGlyph>
    <TTGlyph name="brokenbar" xMin="95" yMin="-233" xMax="123" yMax="700">
      <contour>
        <pt x="123" y="-233" on="1"/>
        <pt x="95" y="-233" on="1"/>
        <pt x="95" y="117" on="1"/>
        <pt x="123" y="117" on="1"/>
      </contour>
      <contour>
        <pt x="123" y="350" on="1"/>
        <pt x="95" y="350" on="1"/>
        <pt x="95" y="700" on="1"/>
        <pt x="123" y="700" on="1"/>
      </contour>
    </TTGlyph>
    <TTGlyph name="bullet" xMin="162" yMin="223" xMax="317" yMax="378">
      <contour>
        <pt x="162" y="300" on="1"/>
        <pt x="162" y="333" on="0"/>
        <pt x="207" y="378" on="0"/>
        <pt x="239" y="378" on="1"/>
        <pt x="272" y="378" on="0"/>
        <pt x="317" y="333" on="0"/>
        <pt x="317" y="300" on="1"/>
        <pt x="317" y="268" on="0"/>
        <pt x="272" y="223" on="0"/>
        <pt x="239" y="223" on="1"/>
        <pt x="207" y="223" on="0"/>
        <pt x="162" y="268" on="0"/>
      </contour>
    </TTGlyph>
    <TTGlyph name="c" xMin="36" yMin="-7" xMax="355" yMax="383">
      <contour>
        <pt x="337" y="57" on="1"/>
        <pt x="341" y="52" on="0"/>
        <pt x="350" y="41" on="0"/>
        <pt x="355" y="36" on="1"/>
        <pt x="329" y="16" on="0"/>
        <pt x="266" y="-7" on="0"/>
        <pt x="231" y="-7" on="1"/>
        <pt x="190" y="-7" on="0"/>
        <pt x="119" y="24" on="0"/>
        <pt x="67" y="76" on="0"/>
        <pt x="36" y="147" on="0"/>
        <pt x="36" y="188" on="1"/>
        <pt x="36" y="228" on="0"/>
        <pt x="67" y="300" on="0"/>
        <pt x="119" y="352" on="0"/>
        <pt x="190" y="383" on="0"/>
        <pt x="231" y="383" on="1"/>
        <pt x="267" y="383" on="0"/>
        <pt x="330" y="360" on="0"/>
        <pt x="355" y="340" on="1"/>
        <pt x="350" y="335" on="0"/>
        <pt x="341" y="324" on="0"/>
        <pt x="337" y="319" on="1"/>
        <pt x="315" y="336" on="0"/>
        <pt x="261" y="356" on="0"/>
        <pt x="231" y="356" on="1"/>
        <pt x="196" y="356" on="0"/>
        <pt x="135" y="330" on="0"/>
        <pt x="90" y="284" on="0"/>
        <pt x="64" y="223" on="0"/>
        <pt x="64" y="188" on="1"/>
        <pt x="64" y="153" on="0"/>
        <pt x="90" y="92" on="0"/>
        <pt x="135" y="47" on="0"/>
        <pt x="196" y="21" on="0"/>
        <pt x="231" y="21" on="1"/>
        <pt x="262" y="21" on="0"/>
        <pt x="315" y="40" on="0"/>
      </contour>
    </TTGlyph>
    <TTGlyph name="ccedilla" xMin="36" yMin="-228" xMax="355" yMax="383">
      <contour>
        <pt x="337" y="57" on="1"/>
        <pt x="341" y="52" on="0"/>
        <pt x="350" y="41" on="0"/>
        <pt x="355" y="36" on="1"/>
        <pt x="304" y="-3" on="0"/>
        <pt x="239" y="-7" on="1"/>
        <pt x="239" y="-33" on="0"/>
        <pt x="267" y="-53" on="0"/>
        <pt x="280" y="-61" on="1"/>
        <pt x="303" y="-76" on="0"/>
        <pt x="321" y="-114" on="0"/>
        <pt x="321" y="-130" on="1"/>
        <pt x="321" y="-178" on="0"/>
        <pt x="274" y="-225" on="0"/>
        <pt x="241" y="-227" on="1"/>
        <pt x="224" y="-228" on="0"/>
        <pt x="206" y="-224" on="1"/>
        <pt x="186" y="-218" on="0"/>
        <pt x="156" y="-190" on="0"/>
        <pt x="148" y="-167" on="1"/>
        <pt x="153" y="-165" on="0"/>
        <pt x="164" y="-161" on="0"/>
        <pt x="169" y="-159" on="1"/>
        <pt x="175" y="-179" on="0"/>
        <pt x="208" y="-205" on="0"/>
        <pt x="232" y="-205" on="1"/>
        <pt x="261" y="-205" on="0"/>
        <pt x="298" y="-165" on="0"/>
        <pt x="298" y="-136" on="1"/>
        <pt x="298" y="-110" on="0"/>
        <pt x="273" y="-81" on="0"/>
        <pt x="243" y="-60" on="0"/>
        <pt x="218" y="-39" on="0"/>
        <pt x="218" y="-20" on="1"/>
        <pt x="218" y="-5" on="1"/>
        <pt x="180" y="-3" on="0"/>
        <pt x="113" y="29" on="0"/>
        <pt x="64" y="81" on="0"/>
        <pt x="36" y="149" on="0"/>
        <pt x="36" y="188" on="1"/>
        <pt x="36" y="228" on="0"/>
        <pt x="67" y="300" on="0"/>
        <pt x="119" y="352" on="0"/>
        <pt x="190" y="383" on="0"/>
        <pt x="231" y="383" on="1"/>
        <pt x="267" y="383" on="0"/>
        <pt x="330" y="360" on="0"/>
        <pt x="355" y="340" on="1"/>
        <pt x="350" y="335" on="0"/>
        <pt x="341" y="324" on="0"/>
        <pt x="337" y="319" on="1"/>
        <pt x="315" y="336" on="0"/>
        <pt x="261" y="356" on="0"/>
        <pt x="231" y="356" on="1"/>
        <pt x="196" y="356" on="0"/>
        <pt x="135" y="330" on="0"/>
        <pt x="90" y="284" on="0"/>
        <pt x="64" y="223" on="0"/>
        <pt x="64" y="188" on="1"/>
        <pt x="64" y="153" on="0"/>
        <pt x="90" y="92" on="0"/>
        <pt x="135" y="47" on="0"/>
        <pt x="196" y="21" on="0"/>
        <pt x="231" y="21" on="1"/>
        <pt x="262" y="21" on="0"/>
        <pt x="315" y="40" on="0"/>
      </contour>
    </TTGlyph>
    <TTGlyph name="cedilla" xMin="121" yMin="-228" xMax="295" yMax="0">
      <contour>
        <pt x="191" y="0" on="1"/>
        <pt x="213" y="0" on="1"/>
        <pt x="213" y="-6" on="1"/>
        <pt x="213" y="-20" on="0"/>
        <pt x="221" y="-37" on="0"/>
        <pt x="233" y="-49" on="0"/>
        <pt x="248" y="-57" on="0"/>
        <pt x="254" y="-61" on="1"/>
        <pt x="276" y="-76" on="0"/>
        <pt x="295" y="-114" on="0"/>
        <pt x="295" y="-130" on="1"/>
        <pt x="295" y="-180" on="0"/>
        <pt x="244" y="-228" on="0"/>
        <pt x="207" y="-228" on="1"/>
        <pt x="179" y="-228" on="0"/>
        <pt x="132" y="-198" on="0"/>
        <pt x="121" y="-167" on="1"/>
        <pt x="126" y="-165" on="0"/>
        <pt x="137" y="-161" on="0"/>
        <pt x="142" y="-159" on="1"/>
        <pt x="148" y="-179" on="0"/>
        <pt x="182" y="-205" on="0"/>
        <pt x="205" y="-205" on="1"/>
        <pt x="235" y="-205" on="0"/>
        <pt x="271" y="-165" on="0"/>
        <pt x="271" y="-136" on="1"/>
        <pt x="271" y="-110" on="0"/>
        <pt x="246" y="-81" on="0"/>
        <pt x="216" y="-60" on="0"/>
        <pt x="191" y="-39" on="0"/>
        <pt x="191" y="-20" on="1"/>
      </contour>
    </TTGlyph>
    <TTGlyph name="cent" xMin="36" yMin="-68" xMax="355" yMax="438">
      <contour>
        <pt x="64" y="188" on="1"/>
        <pt x="64" y="156" on="0"/>
        <pt x="86" y="100" on="0"/>
        <pt x="125" y="56" on="0"/>
        <pt x="177" y="27" on="0"/>
        <pt x="208" y="23" on="1"/>
        <pt x="208" y="352" on="1"/>
        <pt x="177" y="349" on="0"/>
        <pt x="125" y="320" on="0"/>
        <pt x="86" y="277" on="0"/>
        <pt x="64" y="220" on="0"/>
      </contour>
      <contour>
        <pt x="337" y="57" on="1"/>
        <pt x="341" y="52" on="0"/>
        <pt x="350" y="41" on="0"/>
        <pt x="355" y="36" on="1"/>
        <pt x="304" y="-4" on="0"/>
        <pt x="236" y="-6" on="1"/>
        <pt x="236" y="-68" on="1"/>
        <pt x="208" y="-68" on="1"/>
        <pt x="208" y="-4" on="1"/>
        <pt x="171" y="0" on="0"/>
        <pt x="108" y="33" on="0"/>
        <pt x="62" y="84" on="0"/>
        <pt x="36" y="150" on="0"/>
        <pt x="36" y="188" on="1"/>
        <pt x="36" y="225" on="0"/>
        <pt x="62" y="292" on="0"/>
        <pt x="108" y="344" on="0"/>
        <pt x="171" y="377" on="0"/>
        <pt x="208" y="381" on="1"/>
        <pt x="208" y="438" on="1"/>
        <pt x="236" y="438" on="1"/>
        <pt x="236" y="383" on="1"/>
        <pt x="270" y="382" on="0"/>
        <pt x="331" y="360" on="0"/>
        <pt x="355" y="340" on="1"/>
        <pt x="350" y="335" on="0"/>
        <pt x="341" y="324" on="0"/>
        <pt x="337" y="319" on="1"/>
        <pt x="293" y="353" on="0"/>
        <pt x="236" y="355" on="1"/>
        <pt x="236" y="21" on="1"/>
        <pt x="265" y="22" on="0"/>
        <pt x="316" y="41" on="0"/>
      </contour>
    </TTGlyph>
    <TTGlyph name="colon" xMin="59" yMin="0" xMax="111" yMax="303">
      <contour>
        <pt x="59" y="276" on="1"/>
        <pt x="59" y="287" on="0"/>
        <pt x="74" y="303" on="0"/>
        <pt x="85" y="303" on="1"/>
        <pt x="96" y="303" on="0"/>
        <pt x="111" y="287" on="0"/>
        <pt x="111" y="276" on="1"/>
        <pt x="111" y="265" on="0"/>
        <pt x="96" y="250" on="0"/>
        <pt x="85" y="250" on="1"/>
        <pt x="74" y="250" on="0"/>
        <pt x="59" y="265" on="0"/>
      </contour>
      <contour>
        <pt x="59" y="26" on="1"/>
        <pt x="59" y="37" on="0"/>
        <pt x="74" y="53" on="0"/>
        <pt x="85" y="53" on="1"/>
        <pt x="96" y="53" on="0"/>
        <pt x="111" y="37" on="0"/>
        <pt x="111" y="26" on="1"/>
        <pt x="111" y="15" on="0"/>
        <pt x="96" y="0" on="0"/>
        <pt x="85" y="0" on="1"/>
        <pt x="74" y="0" on="0"/>
        <pt x="59" y="15" on="0"/>
      </contour>
    </TTGlyph>
    <TTGlyph name="comma" xMin="22" yMin="-120" xMax="134" yMax="86">
      <contour>
        <pt x="134" y="86" on="1"/>
        <pt x="112" y="34" on="0"/>
        <pt x="70" y="-68" on="0"/>
        <pt x="48" y="-120" on="1"/>
        <pt x="22" y="-120" on="1"/>
        <pt x="42" y="-68" on="0"/>
        <pt x="79" y="34" on="0"/>
        <pt x="99" y="86" on="1"/>
      </contour>
    </TTGlyph>
    <TTGlyph name="copyright" xMin="143" yMin="117" xMax="657" yMax="628">
      <contour>
        <pt x="399" y="135" on="1"/>
        <pt x="448" y="135" on="0"/>
        <pt x="535" y="171" on="0"/>
        <pt x="600" y="234" on="0"/>
        <pt x="637" y="321" on="0"/>
        <pt x="637" y="371" on="1"/>
        <pt x="637" y="423" on="0"/>
        <pt x="600" y="510" on="0"/>
        <pt x="535" y="574" on="0"/>
        <pt x="448" y="610" on="0"/>
        <pt x="399" y="610" on="1"/>
        <pt x="350" y="610" on="0"/>
        <pt x="264" y="574" on="0"/>
        <pt x="200" y="510" on="0"/>
        <pt x="163" y="423" on="0"/>
        <pt x="163" y="371" on="1"/>
        <pt x="163" y="321" on="0"/>
        <pt x="200" y="234" on="0"/>
        <pt x="264" y="171" on="0"/>
        <pt x="350" y="135" on="0"/>
      </contour>
      <contour>
        <pt x="400" y="117" on="1"/>
        <pt x="346" y="117" on="0"/>
        <pt x="252" y="155" on="0"/>
        <pt x="183" y="223" on="0"/>
        <pt x="143" y="317" on="0"/>
        <pt x="143" y="372" on="1"/>
        <pt x="143" y="427" on="0"/>
        <pt x="183" y="521" on="0"/>
        <pt x="252" y="590" on="0"/>
        <pt x="346" y="628" on="0"/>
        <pt x="400" y="628" on="1"/>
        <pt x="454" y="628" on="0"/>
        <pt x="548" y="590" on="0"/>
        <pt x="617" y="521" on="0"/>
        <pt x="657" y="427" on="0"/>
        <pt x="657" y="372" on="1"/>
        <pt x="657" y="317" on="0"/>
        <pt x="617" y="223" on="0"/>
        <pt x="548" y="155" on="0"/>
        <pt x="454" y="117" on="0"/>
      </contour>
      <contour>
        <pt x="480" y="246" on="1"/>
        <pt x="488" y="236" on="1"/>
        <pt x="470" y="225" on="0"/>
        <pt x="428" y="213" on="0"/>
        <pt x="405" y="213" on="1"/>
        <pt x="372" y="213" on="0"/>
        <pt x="313" y="239" on="0"/>
        <pt x="269" y="283" on="0"/>
        <pt x="244" y="342" on="0"/>
        <pt x="244" y="375" on="1"/>
        <pt x="244" y="409" on="0"/>
        <pt x="269" y="468" on="0"/>
        <pt x="313" y="512" on="0"/>
        <pt x="372" y="537" on="0"/>
        <pt x="405" y="537" on="1"/>
        <pt x="450" y="537" on="0"/>
        <pt x="488" y="515" on="1"/>
        <pt x="486" y="512" on="0"/>
        <pt x="483" y="507" on="0"/>
        <pt x="481" y="504" on="1"/>
        <pt x="448" y="525" on="0"/>
        <pt x="405" y="525" on="1"/>
        <pt x="375" y="525" on="0"/>
        <pt x="321" y="501" on="0"/>
        <pt x="280" y="460" on="0"/>
        <pt x="257" y="405" on="0"/>
        <pt x="257" y="374" on="1"/>
        <pt x="257" y="343" on="0"/>
        <pt x="280" y="289" on="0"/>
        <pt x="320" y="249" on="0"/>
        <pt x="374" y="226" on="0"/>
        <pt x="404" y="226" on="1"/>
        <pt x="446" y="226" on="0"/>
      </contour>
    </TTGlyph>
    <TTGlyph name="currency" xMin="104" yMin="214" xMax="390" yMax="501">
      <contour>
        <pt x="137" y="361" on="1"/>
        <pt x="137" y="338" on="0"/>
        <pt x="154" y="298" on="0"/>
        <pt x="184" y="268" on="0"/>
        <pt x="224" y="250" on="0"/>
        <pt x="247" y="250" on="1"/>
        <pt x="270" y="250" on="0"/>
        <pt x="310" y="268" on="0"/>
        <pt x="340" y="298" on="0"/>
        <pt x="357" y="338" on="0"/>
        <pt x="357" y="361" on="1"/>
        <pt x="357" y="384" on="0"/>
        <pt x="340" y="424" on="0"/>
        <pt x="310" y="454" on="0"/>
        <pt x="270" y="472" on="0"/>
        <pt x="247" y="472" on="1"/>
        <pt x="224" y="472" on="0"/>
        <pt x="184" y="454" on="0"/>
        <pt x="154" y="424" on="0"/>
        <pt x="137" y="384" on="0"/>
      </contour>
      <contour>
        <pt x="109" y="361" on="1"/>
        <pt x="109" y="385" on="0"/>
        <pt x="125" y="428" on="0"/>
        <pt x="139" y="446" on="1"/>
        <pt x="104" y="481" on="1"/>
        <pt x="124" y="501" on="1"/>
        <pt x="159" y="466" on="1"/>
        <pt x="177" y="481" on="0"/>
        <pt x="221" y="499" on="0"/>
        <pt x="247" y="499" on="1"/>
        <pt x="273" y="499" on="0"/>
        <pt x="318" y="481" on="0"/>
        <pt x="335" y="465" on="1"/>
        <pt x="370" y="500" on="1"/>
        <pt x="390" y="481" on="1"/>
        <pt x="355" y="446" on="1"/>
        <pt x="385" y="410" on="0"/>
        <pt x="385" y="361" on="1"/>
        <pt x="385" y="335" on="0"/>
        <pt x="367" y="291" on="0"/>
        <pt x="353" y="273" on="1"/>
        <pt x="390" y="235" on="1"/>
        <pt x="370" y="215" on="1"/>
        <pt x="332" y="253" on="1"/>
        <pt x="296" y="223" on="0"/>
        <pt x="247" y="223" on="1"/>
        <pt x="223" y="223" on="0"/>
        <pt x="179" y="238" on="0"/>
        <pt x="162" y="252" on="1"/>
        <pt x="124" y="214" on="1"/>
        <pt x="104" y="234" on="1"/>
        <pt x="142" y="272" on="1"/>
        <pt x="109" y="310" on="0"/>
      </contour>
    </TTGlyph>
    <TTGlyph name="d" xMin="54" yMin="-7" xMax="445" yMax="750">
      <contour>
        <pt x="82" y="188" on="1"/>
        <pt x="82" y="153" on="0"/>
        <pt x="108" y="92" on="0"/>
        <pt x="153" y="47" on="0"/>
        <pt x="214" y="21" on="0"/>
        <pt x="249" y="21" on="1"/>
        <pt x="284" y="21" on="0"/>
        <pt x="346" y="47" on="0"/>
        <pt x="391" y="92" on="0"/>
        <pt x="417" y="153" on="0"/>
        <pt x="417" y="188" on="1"/>
        <pt x="417" y="223" on="0"/>
        <pt x="391" y="284" on="0"/>
        <pt x="346" y="330" on="0"/>
        <pt x="284" y="356" on="0"/>
        <pt x="249" y="356" on="1"/>
        <pt x="214" y="356" on="0"/>
        <pt x="153" y="330" on="0"/>
        <pt x="108" y="284" on="0"/>
        <pt x="82" y="223" on="0"/>
      </contour>
      <contour>
        <pt x="54" y="188" on="1"/>
        <pt x="54" y="228" on="0"/>
        <pt x="84" y="300" on="0"/>
        <pt x="137" y="352" on="0"/>
        <pt x="208" y="383" on="0"/>
        <pt x="249" y="383" on="1"/>
        <pt x="279" y="383" on="0"/>
        <pt x="334" y="366" on="0"/>
        <pt x="378" y="336" on="0"/>
        <pt x="411" y="296" on="0"/>
        <pt x="419" y="274" on="1"/>
        <pt x="419" y="287" on="0"/>
        <pt x="418" y="311" on="0"/>
        <pt x="417" y="324" on="1"/>
        <pt x="417" y="750" on="1"/>
        <pt x="445" y="750" on="1"/>
        <pt x="445" y="0" on="1"/>
        <pt x="419" y="0" on="1"/>
        <pt x="419" y="50" on="1"/>
        <pt x="419" y="63" on="0"/>
        <pt x="420" y="88" on="0"/>
        <pt x="420" y="102" on="1"/>
        <pt x="403" y="57" on="0"/>
        <pt x="312" y="-6" on="0"/>
        <pt x="249" y="-7" on="1"/>
        <pt x="208" y="-7" on="0"/>
        <pt x="137" y="24" on="0"/>
        <pt x="84" y="76" on="0"/>
        <pt x="54" y="147" on="0"/>
      </contour>
    </TTGlyph>
    <TTGlyph name="degree" xMin="56" yMin="479" xMax="219" yMax="641">
      <contour>
        <pt x="138" y="501" on="1"/>
        <pt x="163" y="501" on="0"/>
        <pt x="197" y="534" on="0"/>
        <pt x="197" y="560" on="1"/>
        <pt x="197" y="585" on="0"/>
        <pt x="163" y="619" on="0"/>
        <pt x="138" y="619" on="1"/>
        <pt x="113" y="619" on="0"/>
        <pt x="78" y="585" on="0"/>
        <pt x="78" y="560" on="1"/>
        <pt x="78" y="534" on="0"/>
        <pt x="113" y="501" on="0"/>
      </contour>
      <contour>
        <pt x="56" y="559" on="1"/>
        <pt x="56" y="594" on="0"/>
        <pt x="103" y="641" on="0"/>
        <pt x="138" y="641" on="1"/>
        <pt x="172" y="641" on="0"/>
        <pt x="219" y="594" on="0"/>
        <pt x="219" y="559" on="1"/>
        <pt x="219" y="525" on="0"/>
        <pt x="172" y="479" on="0"/>
        <pt x="138" y="479" on="1"/>
        <pt x="103" y="479" on="0"/>
        <pt x="56" y="525" on="0"/>
      </contour>
    </TTGlyph>
    <TTGlyph name="dieresis" xMin="75" yMin="478" xMax="293" yMax="531">
      <contour>
        <pt x="241" y="504" on="1"/>
        <pt x="241" y="515" on="0"/>
        <pt x="256" y="531" on="0"/>
        <pt x="267" y="531" on="1"/>
        <pt x="278" y="531" on="0"/>
        <pt x="293" y="515" on="0"/>
        <pt x="293" y="504" on="1"/>
        <pt x="293" y="493" on="0"/>
        <pt x="278" y="478" on="0"/>
        <pt x="267" y="478" on="1"/>
        <pt x="256" y="478" on="0"/>
        <pt x="241" y="493" on="0"/>
      </contour>
      <contour>
        <pt x="75" y="504" on="1"/>
        <pt x="75" y="515" on="0"/>
        <pt x="91" y="531" on="0"/>
        <pt x="102" y="531" on="1"/>
        <pt x="113" y="531" on="0"/>
        <pt x="128" y="515" on="0"/>
        <pt x="128" y="504" on="1"/>
        <pt x="128" y="493" on="0"/>
        <pt x="113" y="478" on="0"/>
        <pt x="102" y="478" on="1"/>
        <pt x="91" y="478" on="0"/>
        <pt x="75" y="493" on="0"/>
      </contour>
    </TTGlyph>
    <TTGlyph name="divide" xMin="68" yMin="71" xMax="428" yMax="374">
      <contour>
        <pt x="428" y="209" on="1"/>
        <pt x="68" y="209" on="1"/>
        <pt x="68" y="237" on="1"/>
        <pt x="428" y="237" on="1"/>
      </contour>
      <contour>
        <pt x="225" y="347" on="1"/>
        <pt x="225" y="358" on="0"/>
        <pt x="240" y="374" on="0"/>
        <pt x="251" y="374" on="1"/>
        <pt x="262" y="374" on="0"/>
        <pt x="277" y="358" on="0"/>
        <pt x="277" y="347" on="1"/>
        <pt x="277" y="336" on="0"/>
        <pt x="262" y="321" on="0"/>
        <pt x="251" y="321" on="1"/>
        <pt x="240" y="321" on="0"/>
        <pt x="225" y="336" on="0"/>
      </contour>
      <contour>
        <pt x="225" y="97" on="1"/>
        <pt x="225" y="108" on="0"/>
        <pt x="240" y="124" on="0"/>
        <pt x="251" y="124" on="1"/>
        <pt x="262" y="124" on="0"/>
        <pt x="277" y="108" on="0"/>
        <pt x="277" y="97" on="1"/>
        <pt x="277" y="86" on="0"/>
        <pt x="262" y="71" on="0"/>
        <pt x="251" y="71" on="1"/>
        <pt x="240" y="71" on="0"/>
        <pt x="225" y="86" on="0"/>
      </contour>
    </TTGlyph>
    <TTGlyph name="dollar" xMin="73" yMin="-68" xMax="484" yMax="764">
      <contour>
        <pt x="123" y="527" on="1"/>
        <pt x="123" y="471" on="0"/>
        <pt x="186" y="415" on="0"/>
        <pt x="241" y="397" on="1"/>
        <pt x="244" y="395" on="0"/>
        <pt x="253" y="392" on="0"/>
        <pt x="258" y="391" on="1"/>
        <pt x="258" y="676" on="1"/>
        <pt x="224" y="674" on="0"/>
        <pt x="173" y="648" on="0"/>
        <pt x="140" y="607" on="0"/>
        <pt x="123" y="555" on="0"/>
      </contour>
      <contour>
        <pt x="456" y="183" on="1"/>
        <pt x="456" y="223" on="0"/>
        <pt x="425" y="279" on="0"/>
        <pt x="377" y="317" on="0"/>
        <pt x="316" y="342" on="0"/>
        <pt x="286" y="352" on="1"/>
        <pt x="286" y="20" on="1"/>
        <pt x="319" y="22" on="0"/>
        <pt x="381" y="47" on="0"/>
        <pt x="428" y="89" on="0"/>
        <pt x="456" y="147" on="0"/>
      </contour>
      <contour>
        <pt x="426" y="644" on="1"/>
        <pt x="421" y="639" on="0"/>
        <pt x="415" y="627" on="0"/>
        <pt x="410" y="622" on="1"/>
        <pt x="393" y="637" on="0"/>
        <pt x="331" y="672" on="0"/>
        <pt x="286" y="676" on="1"/>
        <pt x="286" y="381" on="1"/>
        <pt x="317" y="370" on="0"/>
        <pt x="387" y="343" on="0"/>
        <pt x="445" y="300" on="0"/>
        <pt x="484" y="234" on="0"/>
        <pt x="484" y="186" on="1"/>
        <pt x="484" y="143" on="0"/>
        <pt x="453" y="74" on="0"/>
        <pt x="399" y="24" on="0"/>
        <pt x="327" y="-5" on="0"/>
        <pt x="286" y="-7" on="1"/>
        <pt x="286" y="-68" on="1"/>
        <pt x="258" y="-68" on="1"/>
        <pt x="258" y="-7" on="1"/>
        <pt x="221" y="-5" on="0"/>
        <pt x="161" y="16" on="0"/>
        <pt x="115" y="44" on="0"/>
        <pt x="82" y="73" on="0"/>
        <pt x="73" y="84" on="1"/>
        <pt x="93" y="104" on="1"/>
        <pt x="106" y="90" on="0"/>
        <pt x="140" y="62" on="0"/>
        <pt x="181" y="38" on="0"/>
        <pt x="229" y="21" on="0"/>
        <pt x="258" y="20" on="1"/>
        <pt x="258" y="362" on="1"/>
        <pt x="256" y="363" on="0"/>
        <pt x="250" y="364" on="0"/>
        <pt x="247" y="366" on="1"/>
        <pt x="228" y="372" on="0"/>
        <pt x="177" y="391" on="0"/>
        <pt x="131" y="425" on="0"/>
        <pt x="97" y="478" on="0"/>
        <pt x="95" y="517" on="1"/>
        <pt x="93" y="549" on="0"/>
        <pt x="110" y="613" on="0"/>
        <pt x="150" y="666" on="0"/>
        <pt x="213" y="701" on="0"/>
        <pt x="258" y="703" on="1"/>
        <pt x="258" y="764" on="1"/>
        <pt x="286" y="764" on="1"/>
        <pt x="286" y="703" on="1"/>
        <pt x="321" y="701" on="0"/>
        <pt x="391" y="674" on="0"/>
      </contour>
    </TTGlyph>
    <TTGlyph name="e" xMin="36" yMin="-7" xMax="402" yMax="383">
      <contour>
        <pt x="231" y="356" on="1"/>
        <pt x="197" y="356" on="0"/>
        <pt x="138" y="331" on="0"/>
        <pt x="93" y="288" on="0"/>
        <pt x="66" y="230" on="0"/>
        <pt x="65" y="197" on="1"/>
        <pt x="64" y="183" on="0"/>
        <pt x="67" y="159" on="0"/>
        <pt x="69" y="147" on="1"/>
        <pt x="144" y="177" on="0"/>
        <pt x="291" y="236" on="0"/>
        <pt x="366" y="266" on="1"/>
        <pt x="347" y="306" on="0"/>
        <pt x="276" y="356" on="0"/>
      </contour>
      <contour>
        <pt x="402" y="251" on="1"/>
        <pt x="321" y="218" on="0"/>
        <pt x="159" y="154" on="0"/>
        <pt x="78" y="121" on="1"/>
        <pt x="97" y="76" on="0"/>
        <pt x="178" y="21" on="0"/>
        <pt x="231" y="21" on="1"/>
        <pt x="265" y="21" on="0"/>
        <pt x="323" y="45" on="0"/>
        <pt x="346" y="66" on="1"/>
        <pt x="350" y="61" on="0"/>
        <pt x="358" y="51" on="0"/>
        <pt x="363" y="46" on="1"/>
        <pt x="337" y="21" on="0"/>
        <pt x="270" y="-7" on="0"/>
        <pt x="231" y="-7" on="1"/>
        <pt x="190" y="-7" on="0"/>
        <pt x="119" y="24" on="0"/>
        <pt x="67" y="76" on="0"/>
        <pt x="36" y="147" on="0"/>
        <pt x="36" y="188" on="1"/>
        <pt x="36" y="228" on="0"/>
        <pt x="67" y="300" on="0"/>
        <pt x="119" y="352" on="0"/>
        <pt x="190" y="383" on="0"/>
        <pt x="231" y="383" on="1"/>
        <pt x="291" y="383" on="0"/>
        <pt x="382" y="309" on="0"/>
      </contour>
    </TTGlyph>
    <TTGlyph name="eacute" xMin="36" yMin="-7" xMax="402" yMax="612">
      <component glyphName="e" x="0" y="0" flags="0x204"/>
      <component glyphName="acute" x="130" y="0" flags="0x4"/>
    </TTGlyph>
    <TTGlyph name="ecircumflex" xMin="36" yMin="-7" xMax="402" yMax="660">
      <component glyphName="e" x="0" y="0" flags="0x204"/>
      <component glyphName="asciicircum" x="0" y="0" flags="0x4"/>
    </TTGlyph>
    <TTGlyph name="edieresis" xMin="36" yMin="-7" xMax="402" yMax="531">
      <component glyphName="e" x="0" y="0" flags="0x204"/>
      <component glyphName="dieresis" x="45" y="0" flags="0x4"/>
    </TTGlyph>
    <TTGlyph name="egrave" xMin="36" yMin="-7" xMax="402" yMax="612">
      <component glyphName="e" x="0" y="0" flags="0x204"/>
      <component glyphName="grave" x="134" y="0" flags="0x4"/>
    </TTGlyph>
    <TTGlyph name="eight" xMin="50" yMin="-8" xMax="462" yMax="658">
      <contour>
        <pt x="134" y="508" on="1"/>
        <pt x="134" y="485" on="0"/>
        <pt x="153" y="446" on="0"/>
        <pt x="185" y="418" on="0"/>
        <pt x="229" y="402" on="0"/>
        <pt x="254" y="402" on="1"/>
        <pt x="279" y="402" on="0"/>
        <pt x="322" y="418" on="0"/>
        <pt x="354" y="446" on="0"/>
        <pt x="372" y="485" on="0"/>
        <pt x="372" y="508" on="1"/>
        <pt x="372" y="533" on="0"/>
        <pt x="354" y="577" on="0"/>
        <pt x="322" y="611" on="0"/>
        <pt x="279" y="631" on="0"/>
        <pt x="254" y="631" on="1"/>
        <pt x="229" y="631" on="0"/>
        <pt x="185" y="611" on="0"/>
        <pt x="153" y="577" on="0"/>
        <pt x="134" y="533" on="0"/>
      </contour>
      <contour>
        <pt x="78" y="198" on="1"/>
        <pt x="78" y="162" on="0"/>
        <pt x="105" y="97" on="0"/>
        <pt x="152" y="48" on="0"/>
        <pt x="216" y="19" on="0"/>
        <pt x="253" y="19" on="1"/>
        <pt x="290" y="19" on="0"/>
        <pt x="357" y="48" on="0"/>
        <pt x="406" y="97" on="0"/>
        <pt x="435" y="162" on="0"/>
        <pt x="435" y="198" on="1"/>
        <pt x="435" y="234" on="0"/>
        <pt x="406" y="298" on="0"/>
        <pt x="357" y="346" on="0"/>
        <pt x="291" y="373" on="0"/>
        <pt x="254" y="373" on="1"/>
        <pt x="217" y="373" on="0"/>
        <pt x="153" y="346" on="0"/>
        <pt x="105" y="298" on="0"/>
        <pt x="78" y="234" on="0"/>
      </contour>
      <contour>
        <pt x="50" y="198" on="1"/>
        <pt x="50" y="232" on="0"/>
        <pt x="71" y="293" on="0"/>
        <pt x="108" y="343" on="0"/>
        <pt x="160" y="380" on="0"/>
        <pt x="191" y="389" on="1"/>
        <pt x="153" y="404" on="0"/>
        <pt x="105" y="471" on="0"/>
        <pt x="105" y="514" on="1"/>
        <pt x="105" y="544" on="0"/>
        <pt x="128" y="596" on="0"/>
        <pt x="169" y="635" on="0"/>
        <pt x="222" y="658" on="0"/>
        <pt x="252" y="658" on="1"/>
        <pt x="283" y="658" on="0"/>
        <pt x="336" y="635" on="0"/>
        <pt x="376" y="595" on="0"/>
        <pt x="399" y="541" on="0"/>
        <pt x="399" y="511" on="1"/>
        <pt x="399" y="469" on="0"/>
        <pt x="354" y="405" on="0"/>
        <pt x="317" y="389" on="1"/>
        <pt x="348" y="380" on="0"/>
        <pt x="401" y="344" on="0"/>
        <pt x="440" y="294" on="0"/>
        <pt x="462" y="232" on="0"/>
        <pt x="462" y="198" on="1"/>
        <pt x="462" y="155" on="0"/>
        <pt x="429" y="80" on="0"/>
        <pt x="373" y="24" on="0"/>
        <pt x="297" y="-8" on="0"/>
        <pt x="255" y="-8" on="1"/>
        <pt x="213" y="-8" on="0"/>
        <pt x="138" y="24" on="0"/>
        <pt x="82" y="80" on="0"/>
        <pt x="50" y="155" on="0"/>
      </contour>
    </TTGlyph>
    <TTGlyph name="emdash" xMin="99" yMin="178" xMax="601" yMax="205">
      <contour>
        <pt x="99" y="178" on="1"/>
        <pt x="99" y="205" on="1"/>
        <pt x="601" y="205" on="1"/>
        <pt x="601" y="178" on="1"/>
      </contour>
    </TTGlyph>
    <TTGlyph name="endash" xMin="100" yMin="178" xMax="401" yMax="205">
      <contour>
        <pt x="100" y="178" on="1"/>
        <pt x="100" y="205" on="1"/>
        <pt x="401" y="205" on="1"/>
        <pt x="401" y="178" on="1"/>
      </contour>
    </TTGlyph>
    <TTGlyph name="equal" xMin="100" yMin="142" xMax="606" yMax="364">
      <contour>
        <pt x="606" y="170" on="1"/>
        <pt x="606" y="142" on="1"/>
        <pt x="100" y="142" on="1"/>
        <pt x="100" y="170" on="1"/>
      </contour>
      <contour>
        <pt x="606" y="364" on="1"/>
        <pt x="606" y="336" on="1"/>
        <pt x="100" y="336" on="1"/>
        <pt x="100" y="364" on="1"/>
      </contour>
    </TTGlyph>
    <TTGlyph name="eth" xMin="52" yMin="-6" xMax="443" yMax="728">
      <contour>
        <pt x="80" y="188" on="1"/>
        <pt x="80" y="153" on="0"/>
        <pt x="106" y="92" on="0"/>
        <pt x="151" y="47" on="0"/>
        <pt x="213" y="21" on="0"/>
        <pt x="248" y="21" on="1"/>
        <pt x="283" y="21" on="0"/>
        <pt x="345" y="48" on="0"/>
        <pt x="390" y="93" on="0"/>
        <pt x="416" y="154" on="0"/>
        <pt x="416" y="189" on="1"/>
        <pt x="416" y="224" on="0"/>
        <pt x="389" y="286" on="0"/>
        <pt x="343" y="331" on="0"/>
        <pt x="282" y="356" on="0"/>
        <pt x="247" y="356" on="1"/>
        <pt x="212" y="356" on="0"/>
        <pt x="151" y="330" on="0"/>
        <pt x="106" y="284" on="0"/>
        <pt x="80" y="223" on="0"/>
      </contour>
      <contour>
        <pt x="143" y="544" on="1"/>
        <pt x="161" y="563" on="0"/>
        <pt x="197" y="602" on="0"/>
        <pt x="215" y="621" on="1"/>
        <pt x="193" y="645" on="0"/>
        <pt x="147" y="690" on="0"/>
        <pt x="121" y="710" on="1"/>
        <pt x="126" y="715" on="0"/>
        <pt x="134" y="723" on="0"/>
        <pt x="138" y="728" on="1"/>
        <pt x="163" y="710" on="0"/>
        <pt x="210" y="666" on="0"/>
        <pt x="233" y="641" on="1"/>
        <pt x="250" y="659" on="0"/>
        <pt x="282" y="694" on="0"/>
        <pt x="298" y="712" on="1"/>
        <pt x="303" y="708" on="0"/>
        <pt x="311" y="700" on="0"/>
        <pt x="316" y="696" on="1"/>
        <pt x="299" y="678" on="0"/>
        <pt x="266" y="641" on="0"/>
        <pt x="249" y="622" on="1"/>
        <pt x="288" y="575" on="0"/>
        <pt x="358" y="468" on="0"/>
        <pt x="412" y="356" on="0"/>
        <pt x="443" y="243" on="0"/>
        <pt x="443" y="190" on="1"/>
        <pt x="443" y="149" on="0"/>
        <pt x="413" y="78" on="0"/>
        <pt x="361" y="25" on="0"/>
        <pt x="289" y="-6" on="0"/>
        <pt x="249" y="-6" on="1"/>
        <pt x="208" y="-6" on="0"/>
        <pt x="137" y="23" on="0"/>
        <pt x="83" y="76" on="0"/>
        <pt x="52" y="146" on="0"/>
        <pt x="52" y="187" on="1"/>
        <pt x="52" y="227" on="0"/>
        <pt x="82" y="299" on="0"/>
        <pt x="134" y="352" on="0"/>
        <pt x="205" y="384" on="0"/>
        <pt x="246" y="384" on="1"/>
        <pt x="291" y="384" on="0"/>
        <pt x="365" y="344" on="0"/>
        <pt x="389" y="312" on="1"/>
        <pt x="376" y="365" on="0"/>
        <pt x="302" y="517" on="0"/>
        <pt x="230" y="602" on="1"/>
        <pt x="161" y="527" on="1"/>
        <pt x="156" y="532" on="0"/>
        <pt x="148" y="539" on="0"/>
      </contour>
    </TTGlyph>
    <TTGlyph name="exclam" xMin="74" yMin="29" xMax="126" yMax="750">
      <contour>
        <pt x="100" y="29" on="1"/>
        <pt x="90" y="29" on="0"/>
        <pt x="74" y="44" on="0"/>
        <pt x="74" y="55" on="1"/>
        <pt x="74" y="67" on="0"/>
        <pt x="90" y="82" on="0"/>
        <pt x="100" y="82" on="1"/>
        <pt x="110" y="82" on="0"/>
        <pt x="126" y="67" on="0"/>
        <pt x="126" y="55" on="1"/>
        <pt x="126" y="44" on="0"/>
        <pt x="110" y="29" on="0"/>
        <pt x="100" y="29" on="1"/>
      </contour>
      <contour>
        <pt x="86" y="750" on="1"/>
        <pt x="114" y="750" on="1"/>
        <pt x="114" y="166" on="1"/>
        <pt x="86" y="166" on="1"/>
      </contour>
    </TTGlyph>
    <TTGlyph name="exclamdown" xMin="74" yMin="-210" xMax="126" yMax="511">
      <component glyphName="exclam" x="0" y="540" scalex="1.0" scaley="-0.999938964844" flags="0x4"/>
    </TTGlyph>
    <TTGlyph name="f" xMin="22" yMin="0" xMax="283" yMax="750">
      <contour>
        <pt x="22" y="347" on="1"/>
        <pt x="22" y="374" on="1"/>
        <pt x="87" y="374" on="1"/>
        <pt x="87" y="518" on="1"/>
        <pt x="87" y="573" on="0"/>
        <pt x="118" y="659" on="0"/>
        <pt x="171" y="717" on="0"/>
        <pt x="242" y="748" on="0"/>
        <pt x="283" y="750" on="1"/>
        <pt x="283" y="723" on="1"/>
        <pt x="249" y="723" on="0"/>
        <pt x="188" y="694" on="0"/>
        <pt x="142" y="642" on="0"/>
        <pt x="115" y="567" on="0"/>
        <pt x="115" y="520" on="1"/>
        <pt x="115" y="374" on="1"/>
        <pt x="242" y="374" on="1"/>
        <pt x="242" y="347" on="1"/>
        <pt x="115" y="347" on="1"/>
        <pt x="115" y="0" on="1"/>
        <pt x="87" y="0" on="1"/>
        <pt x="87" y="347" on="1"/>
      </contour>
    </TTGlyph>
    <TTGlyph name="five" xMin="113" yMin="-8" xMax="462" yMax="650">
      <contour>
        <pt x="143" y="331" on="1"/>
        <pt x="143" y="650" on="1"/>
        <pt x="430" y="650" on="1"/>
        <pt x="430" y="623" on="1"/>
        <pt x="171" y="623" on="1"/>
        <pt x="171" y="382" on="1"/>
        <pt x="191" y="390" on="0"/>
        <pt x="232" y="401" on="0"/>
        <pt x="255" y="401" on="1"/>
        <pt x="297" y="401" on="0"/>
        <pt x="373" y="369" on="0"/>
        <pt x="429" y="314" on="0"/>
        <pt x="462" y="240" on="0"/>
        <pt x="462" y="198" on="1"/>
        <pt x="462" y="155" on="0"/>
        <pt x="429" y="80" on="0"/>
        <pt x="373" y="24" on="0"/>
        <pt x="297" y="-8" on="0"/>
        <pt x="255" y="-8" on="1"/>
        <pt x="213" y="-8" on="0"/>
        <pt x="141" y="22" on="0"/>
        <pt x="113" y="49" on="1"/>
        <pt x="118" y="54" on="0"/>
        <pt x="128" y="63" on="0"/>
        <pt x="134" y="68" on="1"/>
        <pt x="157" y="45" on="0"/>
        <pt x="218" y="19" on="0"/>
        <pt x="253" y="19" on="1"/>
        <pt x="290" y="19" on="0"/>
        <pt x="357" y="48" on="0"/>
        <pt x="406" y="97" on="0"/>
        <pt x="435" y="162" on="0"/>
        <pt x="435" y="198" on="1"/>
        <pt x="435" y="234" on="0"/>
        <pt x="406" y="298" on="0"/>
        <pt x="357" y="346" on="0"/>
        <pt x="290" y="373" on="0"/>
        <pt x="253" y="373" on="1"/>
        <pt x="218" y="373" on="0"/>
        <pt x="160" y="350" on="0"/>
      </contour>
    </TTGlyph>
    <TTGlyph name="four" xMin="37" yMin="0" xMax="500" yMax="658">
      <contour>
        <pt x="375" y="576" on="1"/>
        <pt x="305" y="484" on="0"/>
        <pt x="165" y="302" on="0"/>
        <pt x="95" y="210" on="1"/>
        <pt x="375" y="210" on="1"/>
      </contour>
      <contour>
        <pt x="37" y="183" on="1"/>
        <pt x="129" y="302" on="0"/>
        <pt x="311" y="539" on="0"/>
        <pt x="403" y="658" on="1"/>
        <pt x="403" y="210" on="1"/>
        <pt x="500" y="210" on="1"/>
        <pt x="500" y="183" on="1"/>
        <pt x="403" y="183" on="1"/>
        <pt x="403" y="0" on="1"/>
        <pt x="375" y="0" on="1"/>
        <pt x="375" y="183" on="1"/>
      </contour>
    </TTGlyph>
    <TTGlyph name="g" xMin="49" yMin="-250" xMax="440" yMax="383">
      <contour>
        <pt x="77" y="188" on="1"/>
        <pt x="77" y="153" on="0"/>
        <pt x="103" y="92" on="0"/>
        <pt x="148" y="47" on="0"/>
        <pt x="209" y="21" on="0"/>
        <pt x="244" y="21" on="1"/>
        <pt x="279" y="21" on="0"/>
        <pt x="341" y="47" on="0"/>
        <pt x="387" y="92" on="0"/>
        <pt x="413" y="153" on="0"/>
        <pt x="413" y="188" on="1"/>
        <pt x="413" y="223" on="0"/>
        <pt x="387" y="284" on="0"/>
        <pt x="341" y="330" on="0"/>
        <pt x="279" y="356" on="0"/>
        <pt x="244" y="356" on="1"/>
        <pt x="209" y="356" on="0"/>
        <pt x="148" y="330" on="0"/>
        <pt x="103" y="284" on="0"/>
        <pt x="77" y="223" on="0"/>
      </contour>
      <contour>
        <pt x="419" y="375" on="1"/>
        <pt x="440" y="375" on="1"/>
        <pt x="440" y="-18" on="1"/>
        <pt x="440" y="-26" on="1"/>
        <pt x="440" y="-79" on="0"/>
        <pt x="411" y="-161" on="0"/>
        <pt x="360" y="-218" on="0"/>
        <pt x="292" y="-249" on="0"/>
        <pt x="253" y="-250" on="1"/>
        <pt x="211" y="-248" on="0"/>
        <pt x="126" y="-221" on="0"/>
        <pt x="100" y="-190" on="1"/>
        <pt x="105" y="-185" on="0"/>
        <pt x="116" y="-176" on="0"/>
        <pt x="121" y="-171" on="1"/>
        <pt x="144" y="-198" on="0"/>
        <pt x="217" y="-222" on="0"/>
        <pt x="252" y="-222" on="1"/>
        <pt x="285" y="-222" on="0"/>
        <pt x="344" y="-194" on="0"/>
        <pt x="387" y="-143" on="0"/>
        <pt x="413" y="-71" on="0"/>
        <pt x="413" y="-27" on="1"/>
        <pt x="413" y="47" on="1"/>
        <pt x="413" y="61" on="0"/>
        <pt x="415" y="87" on="0"/>
        <pt x="415" y="101" on="1"/>
        <pt x="406" y="79" on="0"/>
        <pt x="373" y="40" on="0"/>
        <pt x="329" y="11" on="0"/>
        <pt x="274" y="-6" on="0"/>
        <pt x="244" y="-6" on="1"/>
        <pt x="203" y="-6" on="0"/>
        <pt x="132" y="24" on="0"/>
        <pt x="79" y="77" on="0"/>
        <pt x="49" y="147" on="0"/>
        <pt x="49" y="188" on="1"/>
        <pt x="49" y="228" on="0"/>
        <pt x="79" y="299" on="0"/>
        <pt x="132" y="352" on="0"/>
        <pt x="203" y="383" on="0"/>
        <pt x="244" y="383" on="1"/>
        <pt x="274" y="383" on="0"/>
        <pt x="328" y="366" on="0"/>
        <pt x="373" y="336" on="0"/>
        <pt x="406" y="296" on="0"/>
        <pt x="415" y="274" on="1"/>
        <pt x="415" y="299" on="0"/>
        <pt x="417" y="349" on="0"/>
      </contour>
    </TTGlyph>
    <TTGlyph name="germandbls" xMin="27" yMin="-8" xMax="488" yMax="658">
      <contour>
        <pt x="179" y="19" on="1"/>
        <pt x="181" y="26" on="0"/>
        <pt x="187" y="37" on="0"/>
        <pt x="190" y="43" on="1"/>
        <pt x="231" y="18" on="0"/>
        <pt x="279" y="18" on="1"/>
        <pt x="316" y="18" on="0"/>
        <pt x="383" y="47" on="0"/>
        <pt x="432" y="96" on="0"/>
        <pt x="461" y="162" on="0"/>
        <pt x="461" y="198" on="1"/>
        <pt x="461" y="234" on="0"/>
        <pt x="433" y="297" on="0"/>
        <pt x="384" y="345" on="0"/>
        <pt x="318" y="373" on="0"/>
        <pt x="281" y="373" on="1"/>
        <pt x="281" y="387" on="1"/>
        <pt x="281" y="401" on="1"/>
        <pt x="305" y="401" on="0"/>
        <pt x="348" y="417" on="0"/>
        <pt x="379" y="445" on="0"/>
        <pt x="398" y="484" on="0"/>
        <pt x="398" y="508" on="1"/>
        <pt x="398" y="532" on="0"/>
        <pt x="381" y="576" on="0"/>
        <pt x="350" y="610" on="0"/>
        <pt x="307" y="630" on="0"/>
        <pt x="282" y="630" on="1"/>
        <pt x="249" y="630" on="0"/>
        <pt x="190" y="602" on="0"/>
        <pt x="145" y="549" on="0"/>
        <pt x="119" y="474" on="0"/>
        <pt x="119" y="428" on="1"/>
        <pt x="119" y="0" on="1"/>
        <pt x="91" y="0" on="1"/>
        <pt x="91" y="363" on="1"/>
        <pt x="27" y="363" on="1"/>
        <pt x="27" y="390" on="1"/>
        <pt x="91" y="390" on="1"/>
        <pt x="91" y="425" on="1"/>
        <pt x="91" y="480" on="0"/>
        <pt x="122" y="566" on="0"/>
        <pt x="174" y="625" on="0"/>
        <pt x="243" y="657" on="0"/>
        <pt x="281" y="658" on="1"/>
        <pt x="311" y="657" on="0"/>
        <pt x="363" y="634" on="0"/>
        <pt x="402" y="594" on="0"/>
        <pt x="425" y="541" on="0"/>
        <pt x="425" y="511" on="1"/>
        <pt x="425" y="469" on="0"/>
        <pt x="380" y="405" on="0"/>
        <pt x="343" y="389" on="1"/>
        <pt x="374" y="380" on="0"/>
        <pt x="427" y="344" on="0"/>
        <pt x="466" y="294" on="0"/>
        <pt x="488" y="232" on="0"/>
        <pt x="488" y="198" on="1"/>
        <pt x="488" y="155" on="0"/>
        <pt x="455" y="80" on="0"/>
        <pt x="399" y="24" on="0"/>
        <pt x="323" y="-8" on="0"/>
        <pt x="281" y="-8" on="1"/>
        <pt x="252" y="-8" on="0"/>
        <pt x="202" y="6" on="0"/>
      </contour>
    </TTGlyph>
    <TTGlyph name="grave" xMin="-21" yMin="479" xMax="98" yMax="612">
      <contour>
        <pt x="8" y="612" on="1"/>
        <pt x="31" y="579" on="0"/>
        <pt x="75" y="512" on="0"/>
        <pt x="98" y="479" on="1"/>
        <pt x="74" y="479" on="1"/>
        <pt x="50" y="512" on="0"/>
        <pt x="2" y="579" on="0"/>
        <pt x="-21" y="612" on="1"/>
      </contour>
    </TTGlyph>
    <TTGlyph name="greater" xMin="115" yMin="-15" xMax="553" yMax="491">
      <contour>
        <pt x="115" y="-15" on="1"/>
        <pt x="115" y="21" on="1"/>
        <pt x="210" y="75" on="0"/>
        <pt x="398" y="184" on="0"/>
        <pt x="493" y="238" on="1"/>
        <pt x="398" y="292" on="0"/>
        <pt x="210" y="401" on="0"/>
        <pt x="115" y="455" on="1"/>
        <pt x="115" y="491" on="1"/>
        <pt x="225" y="428" on="0"/>
        <pt x="443" y="301" on="0"/>
        <pt x="553" y="238" on="1"/>
        <pt x="443" y="175" on="0"/>
        <pt x="225" y="48" on="0"/>
      </contour>
    </TTGlyph>
    <TTGlyph name="guillemotleft" xMin="117" yMin="77" xMax="459" yMax="400">
      <contour>
        <pt x="459" y="77" on="1"/>
        <pt x="288" y="239" on="1"/>
        <pt x="331" y="280" on="0"/>
        <pt x="416" y="359" on="0"/>
        <pt x="459" y="400" on="1"/>
        <pt x="459" y="368" on="1"/>
        <pt x="427" y="336" on="0"/>
        <pt x="364" y="271" on="0"/>
        <pt x="332" y="239" on="1"/>
        <pt x="364" y="206" on="0"/>
        <pt x="427" y="141" on="0"/>
        <pt x="459" y="109" on="1"/>
      </contour>
      <contour>
        <pt x="288" y="77" on="1"/>
        <pt x="117" y="239" on="1"/>
        <pt x="160" y="280" on="0"/>
        <pt x="245" y="359" on="0"/>
        <pt x="288" y="400" on="1"/>
        <pt x="288" y="367" on="1"/>
        <pt x="256" y="335" on="0"/>
        <pt x="193" y="271" on="0"/>
        <pt x="161" y="239" on="1"/>
        <pt x="193" y="206" on="0"/>
        <pt x="256" y="141" on="0"/>
        <pt x="288" y="109" on="1"/>
      </contour>
    </TTGlyph>
    <TTGlyph name="guillemotright" xMin="117" yMin="77" xMax="459" yMax="400">
      <component glyphName="guillemotleft" x="576" y="0" scalex="-0.999938964844" scaley="1.0" flags="0x4"/>
    </TTGlyph>
    <TTGlyph name="guilsinglleft" xMin="117" yMin="77" xMax="288" yMax="400">
      <contour>
        <pt x="288" y="77" on="1"/>
        <pt x="117" y="239" on="1"/>
        <pt x="160" y="280" on="0"/>
        <pt x="245" y="359" on="0"/>
        <pt x="288" y="400" on="1"/>
        <pt x="288" y="367" on="1"/>
        <pt x="256" y="335" on="0"/>
        <pt x="193" y="271" on="0"/>
        <pt x="161" y="239" on="1"/>
        <pt x="193" y="206" on="0"/>
        <pt x="256" y="141" on="0"/>
        <pt x="288" y="109" on="1"/>
      </contour>
    </TTGlyph>
    <TTGlyph name="guilsinglright" xMin="117" yMin="77" xMax="288" yMax="400">
      <component glyphName="guilsinglleft" x="405" y="0" scalex="-0.999938964844" scaley="1.0" flags="0x4"/>
    </TTGlyph>
    <TTGlyph name="h" xMin="110" yMin="0" xMax="418" yMax="750">
      <contour>
        <pt x="110" y="750" on="1"/>
        <pt x="138" y="750" on="1"/>
        <pt x="138" y="322" on="1"/>
        <pt x="135" y="277" on="1"/>
        <pt x="155" y="325" on="0"/>
        <pt x="242" y="382" on="0"/>
        <pt x="299" y="382" on="1"/>
        <pt x="353" y="382" on="0"/>
        <pt x="416" y="320" on="0"/>
        <pt x="418" y="270" on="1"/>
        <pt x="418" y="0" on="1"/>
        <pt x="390" y="0" on="1"/>
        <pt x="390" y="268" on="1"/>
        <pt x="388" y="303" on="0"/>
        <pt x="342" y="353" on="0"/>
        <pt x="299" y="355" on="1"/>
        <pt x="267" y="355" on="0"/>
        <pt x="208" y="334" on="0"/>
        <pt x="164" y="296" on="0"/>
        <pt x="138" y="243" on="0"/>
        <pt x="138" y="212" on="1"/>
        <pt x="138" y="0" on="1"/>
        <pt x="110" y="0" on="1"/>
      </contour>
    </TTGlyph>
    <TTGlyph name="hyphen" xMin="53" yMin="177" xMax="237" yMax="204">
      <contour>
        <pt x="53" y="177" on="1"/>
        <pt x="53" y="204" on="1"/>
        <pt x="237" y="204" on="1"/>
        <pt x="237" y="177" on="1"/>
      </contour>
    </TTGlyph>
    <TTGlyph name="i" xMin="68" yMin="0" xMax="121" yMax="531">
      <contour>
        <pt x="68" y="504" on="1"/>
        <pt x="68" y="515" on="0"/>
        <pt x="84" y="531" on="0"/>
        <pt x="95" y="531" on="1"/>
        <pt x="105" y="531" on="0"/>
        <pt x="121" y="515" on="0"/>
        <pt x="121" y="504" on="1"/>
        <pt x="121" y="493" on="0"/>
        <pt x="105" y="478" on="0"/>
        <pt x="95" y="478" on="1"/>
        <pt x="84" y="478" on="0"/>
        <pt x="68" y="493" on="0"/>
      </contour>
      <contour>
        <pt x="108" y="0" on="1"/>
        <pt x="80" y="0" on="1"/>
        <pt x="80" y="375" on="1"/>
        <pt x="108" y="375" on="1"/>
      </contour>
    </TTGlyph>
    <TTGlyph name="iacute" xMin="75" yMin="0" xMax="198" yMax="612">
      <contour>
        <pt x="103" y="0" on="1"/>
        <pt x="75" y="0" on="1"/>
        <pt x="75" y="375" on="1"/>
        <pt x="103" y="375" on="1"/>
      </contour>
      <contour>
        <pt x="78" y="479" on="1"/>
        <pt x="101" y="512" on="0"/>
        <pt x="145" y="579" on="0"/>
        <pt x="168" y="612" on="1"/>
        <pt x="198" y="612" on="1"/>
        <pt x="174" y="579" on="0"/>
        <pt x="126" y="512" on="0"/>
        <pt x="103" y="479" on="1"/>
      </contour>
    </TTGlyph>
    <TTGlyph name="icircumflex" xMin="-4" yMin="0" xMax="236" yMax="660">
      <contour>
        <pt x="130" y="0" on="1"/>
        <pt x="102" y="0" on="1"/>
        <pt x="102" y="375" on="1"/>
        <pt x="130" y="375" on="1"/>
      </contour>
      <contour>
        <pt x="116" y="660" on="1"/>
        <pt x="146" y="615" on="0"/>
        <pt x="206" y="524" on="0"/>
        <pt x="236" y="479" on="1"/>
        <pt x="211" y="479" on="1"/>
        <pt x="187" y="514" on="0"/>
        <pt x="140" y="582" on="0"/>
        <pt x="116" y="617" on="1"/>
        <pt x="92" y="582" on="0"/>
        <pt x="45" y="514" on="0"/>
        <pt x="21" y="479" on="1"/>
        <pt x="-4" y="479" on="1"/>
        <pt x="26" y="524" on="0"/>
        <pt x="86" y="615" on="0"/>
      </contour>
    </TTGlyph>
    <TTGlyph name="idieresis" xMin="32" yMin="0" xMax="250" yMax="531">
      <contour>
        <pt x="159" y="0" on="1"/>
        <pt x="131" y="0" on="1"/>
        <pt x="131" y="375" on="1"/>
        <pt x="159" y="375" on="1"/>
      </contour>
      <contour>
        <pt x="198" y="504" on="1"/>
        <pt x="198" y="515" on="0"/>
        <pt x="213" y="531" on="0"/>
        <pt x="224" y="531" on="1"/>
        <pt x="235" y="531" on="0"/>
        <pt x="250" y="515" on="0"/>
        <pt x="250" y="504" on="1"/>
        <pt x="250" y="493" on="0"/>
        <pt x="235" y="478" on="0"/>
        <pt x="224" y="478" on="1"/>
        <pt x="213" y="478" on="0"/>
        <pt x="198" y="493" on="0"/>
      </contour>
      <contour>
        <pt x="32" y="504" on="1"/>
        <pt x="32" y="515" on="0"/>
        <pt x="48" y="531" on="0"/>
        <pt x="59" y="531" on="1"/>
        <pt x="70" y="531" on="0"/>
        <pt x="85" y="515" on="0"/>
        <pt x="85" y="504" on="1"/>
        <pt x="85" y="493" on="0"/>
        <pt x="70" y="478" on="0"/>
        <pt x="59" y="478" on="1"/>
        <pt x="48" y="478" on="0"/>
        <pt x="32" y="493" on="0"/>
      </contour>
    </TTGlyph>
    <TTGlyph name="igrave" xMin="-13" yMin="0" xMax="108" yMax="612">
      <contour>
        <pt x="108" y="0" on="1"/>
        <pt x="80" y="0" on="1"/>
        <pt x="80" y="375" on="1"/>
        <pt x="108" y="375" on="1"/>
      </contour>
      <contour>
        <pt x="16" y="612" on="1"/>
        <pt x="39" y="579" on="0"/>
        <pt x="83" y="512" on="0"/>
        <pt x="106" y="479" on="1"/>
        <pt x="82" y="479" on="1"/>
        <pt x="58" y="512" on="0"/>
        <pt x="10" y="579" on="0"/>
        <pt x="-13" y="612" on="1"/>
      </contour>
    </TTGlyph>
    <TTGlyph name="j" xMin="49" yMin="-180" xMax="145" yMax="531">
      <contour>
        <pt x="92" y="504" on="1"/>
        <pt x="92" y="515" on="0"/>
        <pt x="107" y="531" on="0"/>
        <pt x="118" y="531" on="1"/>
        <pt x="129" y="531" on="0"/>
        <pt x="145" y="515" on="0"/>
        <pt x="145" y="504" on="1"/>
        <pt x="145" y="493" on="0"/>
        <pt x="129" y="478" on="0"/>
        <pt x="118" y="478" on="1"/>
        <pt x="107" y="478" on="0"/>
        <pt x="92" y="493" on="0"/>
      </contour>
      <contour>
        <pt x="70" y="-180" on="1"/>
        <pt x="65" y="-175" on="0"/>
        <pt x="54" y="-166" on="0"/>
        <pt x="49" y="-161" on="1"/>
        <pt x="74" y="-135" on="0"/>
        <pt x="104" y="-58" on="0"/>
        <pt x="104" y="-8" on="1"/>
        <pt x="104" y="375" on="1"/>
        <pt x="132" y="375" on="1"/>
        <pt x="132" y="-6" on="1"/>
        <pt x="132" y="-64" on="0"/>
        <pt x="99" y="-151" on="0"/>
      </contour>
    </TTGlyph>
    <TTGlyph name="k" xMin="84" yMin="0" xMax="370" yMax="750">
      <contour>
        <pt x="327" y="384" on="1"/>
        <pt x="332" y="379" on="0"/>
        <pt x="339" y="371" on="0"/>
        <pt x="344" y="366" on="1"/>
        <pt x="306" y="331" on="0"/>
        <pt x="239" y="266" on="0"/>
        <pt x="202" y="231" on="1"/>
        <pt x="370" y="0" on="1"/>
        <pt x="337" y="0" on="1"/>
        <pt x="298" y="54" on="0"/>
        <pt x="219" y="158" on="0"/>
        <pt x="180" y="212" on="1"/>
        <pt x="163" y="196" on="0"/>
        <pt x="129" y="163" on="0"/>
        <pt x="111" y="147" on="1"/>
        <pt x="111" y="0" on="1"/>
        <pt x="84" y="0" on="1"/>
        <pt x="84" y="750" on="1"/>
        <pt x="111" y="750" on="1"/>
        <pt x="111" y="183" on="1"/>
        <pt x="167" y="235" on="0"/>
        <pt x="271" y="332" on="0"/>
      </contour>
    </TTGlyph>
    <TTGlyph name="l" xMin="80" yMin="0" xMax="108" yMax="750">
      <contour>
        <pt x="108" y="0" on="1"/>
        <pt x="80" y="0" on="1"/>
        <pt x="80" y="750" on="1"/>
        <pt x="108" y="750" on="1"/>
      </contour>
    </TTGlyph>
    <TTGlyph name="less" xMin="115" yMin="-15" xMax="553" yMax="491">
      <contour>
        <pt x="553" y="21" on="1"/>
        <pt x="553" y="-15" on="1"/>
        <pt x="443" y="48" on="0"/>
        <pt x="225" y="175" on="0"/>
        <pt x="115" y="238" on="1"/>
        <pt x="225" y="301" on="0"/>
        <pt x="443" y="428" on="0"/>
        <pt x="553" y="491" on="1"/>
        <pt x="553" y="455" on="1"/>
        <pt x="458" y="401" on="0"/>
        <pt x="270" y="292" on="0"/>
        <pt x="175" y="238" on="1"/>
        <pt x="270" y="184" on="0"/>
        <pt x="458" y="75" on="0"/>
      </contour>
    </TTGlyph>
    <TTGlyph name="logicalnot" xMin="100" yMin="148" xMax="460" yMax="242">
      <contour>
        <pt x="432" y="148" on="1"/>
        <pt x="432" y="219" on="1"/>
        <pt x="100" y="219" on="1"/>
        <pt x="100" y="242" on="1"/>
        <pt x="460" y="242" on="1"/>
        <pt x="460" y="148" on="1"/>
      </contour>
    </TTGlyph>
    <TTGlyph name="m" xMin="110" yMin="0" xMax="698" yMax="382">
      <contour>
        <pt x="110" y="375" on="1"/>
        <pt x="136" y="375" on="1"/>
        <pt x="136" y="331" on="1"/>
        <pt x="135" y="317" on="0"/>
        <pt x="135" y="291" on="0"/>
        <pt x="135" y="277" on="1"/>
        <pt x="155" y="325" on="0"/>
        <pt x="242" y="382" on="0"/>
        <pt x="299" y="382" on="1"/>
        <pt x="350" y="382" on="0"/>
        <pt x="412" y="327" on="0"/>
        <pt x="417" y="282" on="1"/>
        <pt x="438" y="327" on="0"/>
        <pt x="525" y="382" on="0"/>
        <pt x="580" y="382" on="1"/>
        <pt x="634" y="382" on="0"/>
        <pt x="696" y="320" on="0"/>
        <pt x="698" y="270" on="1"/>
        <pt x="698" y="0" on="1"/>
        <pt x="670" y="0" on="1"/>
        <pt x="670" y="268" on="1"/>
        <pt x="668" y="303" on="0"/>
        <pt x="622" y="353" on="0"/>
        <pt x="579" y="355" on="1"/>
        <pt x="547" y="355" on="0"/>
        <pt x="490" y="334" on="0"/>
        <pt x="446" y="298" on="0"/>
        <pt x="419" y="247" on="0"/>
        <pt x="418" y="217" on="1"/>
        <pt x="418" y="0" on="1"/>
        <pt x="390" y="0" on="1"/>
        <pt x="390" y="268" on="1"/>
        <pt x="388" y="303" on="0"/>
        <pt x="342" y="353" on="0"/>
        <pt x="299" y="355" on="1"/>
        <pt x="267" y="355" on="0"/>
        <pt x="208" y="334" on="0"/>
        <pt x="164" y="296" on="0"/>
        <pt x="138" y="243" on="0"/>
        <pt x="138" y="212" on="1"/>
        <pt x="138" y="0" on="1"/>
        <pt x="110" y="0" on="1"/>
      </contour>
    </TTGlyph>
    <TTGlyph name="macron" xMin="85" yMin="489" xMax="315" yMax="511">
      <contour>
        <pt x="85" y="489" on="1"/>
        <pt x="85" y="511" on="1"/>
        <pt x="315" y="511" on="1"/>
        <pt x="315" y="489" on="1"/>
      </contour>
    </TTGlyph>
    <TTGlyph name="mu" xMin="110" yMin="-201" xMax="418" yMax="375">
      <contour>
        <pt x="418" y="-2" on="1"/>
        <pt x="390" y="-2" on="1"/>
        <pt x="390" y="53" on="1"/>
        <pt x="393" y="98" on="1"/>
        <pt x="373" y="50" on="0"/>
        <pt x="285" y="-7" on="0"/>
        <pt x="229" y="-7" on="1"/>
        <pt x="197" y="-7" on="0"/>
        <pt x="151" y="17" on="0"/>
        <pt x="138" y="39" on="1"/>
        <pt x="138" y="-201" on="1"/>
        <pt x="110" y="-201" on="1"/>
        <pt x="110" y="375" on="1"/>
        <pt x="138" y="375" on="1"/>
        <pt x="138" y="107" on="1"/>
        <pt x="140" y="72" on="0"/>
        <pt x="186" y="22" on="0"/>
        <pt x="229" y="20" on="1"/>
        <pt x="261" y="20" on="0"/>
        <pt x="320" y="41" on="0"/>
        <pt x="364" y="79" on="0"/>
        <pt x="390" y="132" on="0"/>
        <pt x="390" y="163" on="1"/>
        <pt x="390" y="375" on="1"/>
        <pt x="418" y="375" on="1"/>
      </contour>
    </TTGlyph>
    <TTGlyph name="multiply" xMin="126" yMin="0" xMax="401" yMax="275">
      <contour>
        <pt x="381" y="0" on="1"/>
        <pt x="351" y="29" on="0"/>
        <pt x="292" y="89" on="0"/>
        <pt x="263" y="118" on="1"/>
        <pt x="233" y="89" on="0"/>
        <pt x="175" y="29" on="0"/>
        <pt x="146" y="0" on="1"/>
        <pt x="135" y="9" on="0"/>
        <pt x="126" y="20" on="1"/>
        <pt x="155" y="49" on="0"/>
        <pt x="214" y="108" on="0"/>
        <pt x="243" y="138" on="1"/>
        <pt x="127" y="254" on="1"/>
        <pt x="146" y="274" on="1"/>
        <pt x="263" y="157" on="1"/>
        <pt x="292" y="187" on="0"/>
        <pt x="352" y="245" on="0"/>
        <pt x="381" y="275" on="1"/>
        <pt x="386" y="270" on="0"/>
        <pt x="395" y="260" on="0"/>
        <pt x="400" y="255" on="1"/>
        <pt x="283" y="138" on="1"/>
        <pt x="312" y="109" on="0"/>
        <pt x="371" y="49" on="0"/>
        <pt x="401" y="20" on="1"/>
      </contour>
    </TTGlyph>
    <TTGlyph name="n" xMin="110" yMin="0" xMax="418" yMax="382">
      <contour>
        <pt x="110" y="375" on="1"/>
        <pt x="136" y="375" on="1"/>
        <pt x="136" y="331" on="1"/>
        <pt x="135" y="317" on="0"/>
        <pt x="135" y="291" on="0"/>
        <pt x="135" y="277" on="1"/>
        <pt x="155" y="325" on="0"/>
        <pt x="243" y="382" on="0"/>
        <pt x="299" y="382" on="1"/>
        <pt x="353" y="382" on="0"/>
        <pt x="416" y="320" on="0"/>
        <pt x="418" y="270" on="1"/>
        <pt x="418" y="0" on="1"/>
        <pt x="390" y="0" on="1"/>
        <pt x="390" y="268" on="1"/>
        <pt x="388" y="303" on="0"/>
        <pt x="342" y="353" on="0"/>
        <pt x="299" y="355" on="1"/>
        <pt x="267" y="355" on="0"/>
        <pt x="208" y="334" on="0"/>
        <pt x="164" y="296" on="0"/>
        <pt x="138" y="243" on="0"/>
        <pt x="138" y="212" on="1"/>
        <pt x="138" y="0" on="1"/>
        <pt x="110" y="0" on="1"/>
      </contour>
    </TTGlyph>
    <TTGlyph name="nine" xMin="49" yMin="-8" xMax="463" yMax="634">
      <contour>
        <pt x="435" y="429" on="1"/>
        <pt x="435" y="466" on="0"/>
        <pt x="407" y="530" on="0"/>
        <pt x="359" y="578" on="0"/>
        <pt x="294" y="606" on="0"/>
        <pt x="257" y="606" on="1"/>
        <pt x="220" y="606" on="0"/>
        <pt x="154" y="578" on="0"/>
        <pt x="105" y="530" on="0"/>
        <pt x="77" y="466" on="0"/>
        <pt x="77" y="429" on="1"/>
        <pt x="77" y="392" on="0"/>
        <pt x="105" y="328" on="0"/>
        <pt x="154" y="280" on="0"/>
        <pt x="220" y="252" on="0"/>
        <pt x="257" y="252" on="1"/>
        <pt x="294" y="252" on="0"/>
        <pt x="359" y="280" on="0"/>
        <pt x="407" y="328" on="0"/>
        <pt x="435" y="392" on="0"/>
      </contour>
      <contour>
        <pt x="463" y="429" on="1"/>
        <pt x="463" y="357" on="0"/>
        <pt x="401" y="233" on="0"/>
        <pt x="304" y="125" on="0"/>
        <pt x="186" y="32" on="0"/>
        <pt x="131" y="-8" on="1"/>
        <pt x="122" y="3" on="0"/>
        <pt x="113" y="15" on="1"/>
        <pt x="233" y="95" on="0"/>
        <pt x="366" y="239" on="0"/>
        <pt x="391" y="290" on="1"/>
        <pt x="368" y="260" on="0"/>
        <pt x="298" y="225" on="0"/>
        <pt x="256" y="225" on="1"/>
        <pt x="213" y="225" on="0"/>
        <pt x="138" y="257" on="0"/>
        <pt x="82" y="313" on="0"/>
        <pt x="49" y="387" on="0"/>
        <pt x="49" y="429" on="1"/>
        <pt x="49" y="471" on="0"/>
        <pt x="82" y="546" on="0"/>
        <pt x="138" y="602" on="0"/>
        <pt x="213" y="634" on="0"/>
        <pt x="256" y="634" on="1"/>
        <pt x="299" y="634" on="0"/>
        <pt x="374" y="602" on="0"/>
        <pt x="430" y="546" on="0"/>
        <pt x="463" y="471" on="0"/>
      </contour>
    </TTGlyph>
    <TTGlyph name="ntilde" xMin="110" yMin="0" xMax="427" yMax="533">
      <component glyphName="n" x="0" y="0" flags="0x4"/>
      <component glyphName="asciitilde" x="6" y="-10" flags="0x4"/>
    </TTGlyph>
    <TTGlyph name="numbersign" xMin="28" yMin="0" xMax="507" yMax="643">
      <contour>
        <pt x="190" y="400" on="1"/>
        <pt x="185" y="361" on="0"/>
        <pt x="177" y="284" on="0"/>
        <pt x="172" y="245" on="1"/>
        <pt x="328" y="245" on="1"/>
        <pt x="333" y="284" on="0"/>
        <pt x="341" y="361" on="0"/>
        <pt x="346" y="400" on="1"/>
      </contour>
      <contour>
        <pt x="299" y="0" on="1"/>
        <pt x="306" y="55" on="0"/>
        <pt x="318" y="163" on="0"/>
        <pt x="324" y="218" on="1"/>
        <pt x="168" y="218" on="1"/>
        <pt x="162" y="163" on="0"/>
        <pt x="150" y="55" on="0"/>
        <pt x="143" y="0" on="1"/>
        <pt x="115" y="0" on="1"/>
        <pt x="122" y="55" on="0"/>
        <pt x="134" y="163" on="0"/>
        <pt x="140" y="218" on="1"/>
        <pt x="28" y="218" on="1"/>
        <pt x="31" y="245" on="1"/>
        <pt x="144" y="245" on="1"/>
        <pt x="149" y="284" on="0"/>
        <pt x="157" y="361" on="0"/>
        <pt x="162" y="400" on="1"/>
        <pt x="51" y="400" on="1"/>
        <pt x="54" y="427" on="1"/>
        <pt x="166" y="427" on="1"/>
        <pt x="172" y="481" on="0"/>
        <pt x="185" y="589" on="0"/>
        <pt x="192" y="643" on="1"/>
        <pt x="220" y="643" on="1"/>
        <pt x="213" y="589" on="0"/>
        <pt x="200" y="481" on="0"/>
        <pt x="194" y="427" on="1"/>
        <pt x="350" y="427" on="1"/>
        <pt x="356" y="481" on="0"/>
        <pt x="369" y="589" on="0"/>
        <pt x="376" y="643" on="1"/>
        <pt x="404" y="643" on="1"/>
        <pt x="397" y="589" on="0"/>
        <pt x="384" y="481" on="0"/>
        <pt x="378" y="427" on="1"/>
        <pt x="507" y="427" on="1"/>
        <pt x="504" y="400" on="1"/>
        <pt x="374" y="400" on="1"/>
        <pt x="369" y="361" on="0"/>
        <pt x="361" y="284" on="0"/>
        <pt x="356" y="245" on="1"/>
        <pt x="484" y="245" on="1"/>
        <pt x="484" y="238" on="0"/>
        <pt x="482" y="225" on="0"/>
        <pt x="481" y="218" on="1"/>
        <pt x="352" y="218" on="1"/>
        <pt x="346" y="163" on="0"/>
        <pt x="334" y="55" on="0"/>
        <pt x="327" y="0" on="1"/>
      </contour>
    </TTGlyph>
    <TTGlyph name="o" xMin="36" yMin="-7" xMax="428" yMax="384">
      <contour>
        <pt x="36" y="188" on="1"/>
        <pt x="36" y="228" on="0"/>
        <pt x="67" y="300" on="0"/>
        <pt x="119" y="353" on="0"/>
        <pt x="190" y="384" on="0"/>
        <pt x="231" y="384" on="1"/>
        <pt x="272" y="384" on="0"/>
        <pt x="344" y="353" on="0"/>
        <pt x="397" y="300" on="0"/>
        <pt x="428" y="228" on="0"/>
        <pt x="428" y="188" on="1"/>
        <pt x="428" y="147" on="0"/>
        <pt x="397" y="76" on="0"/>
        <pt x="344" y="24" on="0"/>
        <pt x="272" y="-7" on="0"/>
        <pt x="231" y="-7" on="1"/>
        <pt x="190" y="-7" on="0"/>
        <pt x="119" y="24" on="0"/>
        <pt x="67" y="76" on="0"/>
        <pt x="36" y="147" on="0"/>
      </contour>
      <contour>
        <pt x="64" y="188" on="1"/>
        <pt x="64" y="153" on="0"/>
        <pt x="90" y="92" on="0"/>
        <pt x="135" y="47" on="0"/>
        <pt x="196" y="21" on="0"/>
        <pt x="231" y="21" on="1"/>
        <pt x="266" y="21" on="0"/>
        <pt x="327" y="47" on="0"/>
        <pt x="373" y="92" on="0"/>
        <pt x="399" y="153" on="0"/>
        <pt x="399" y="188" on="1"/>
        <pt x="399" y="223" on="0"/>
        <pt x="373" y="284" on="0"/>
        <pt x="327" y="330" on="0"/>
        <pt x="266" y="356" on="0"/>
        <pt x="231" y="356" on="1"/>
        <pt x="196" y="356" on="0"/>
        <pt x="135" y="330" on="0"/>
        <pt x="90" y="284" on="0"/>
        <pt x="64" y="223" on="0"/>
      </contour>
    </TTGlyph>
    <TTGlyph name="oacute" xMin="36" yMin="-7" xMax="428" yMax="612">
      <component glyphName="o" x="0" y="0" flags="0x204"/>
      <component glyphName="acute" x="131" y="0" flags="0x4"/>
    </TTGlyph>
    <TTGlyph name="ocircumflex" xMin="36" yMin="-7" xMax="428" yMax="660">
      <component glyphName="o" x="0" y="0" flags="0x204"/>
      <component glyphName="asciicircum" x="-1" y="0" flags="0x4"/>
    </TTGlyph>
    <TTGlyph name="odieresis" xMin="36" yMin="-7" xMax="428" yMax="531">
      <component glyphName="o" x="0" y="0" flags="0x204"/>
      <component glyphName="dieresis" x="50" y="0" flags="0x4"/>
    </TTGlyph>
    <TTGlyph name="ograve" xMin="36" yMin="-7" xMax="428" yMax="612">
      <component glyphName="o" x="0" y="0" flags="0x204"/>
      <component glyphName="grave" x="134" y="0" flags="0x4"/>
    </TTGlyph>
    <TTGlyph name="one" xMin="34" yMin="0" xMax="166" yMax="650">
      <contour>
        <pt x="34" y="623" on="1"/>
        <pt x="34" y="650" on="1"/>
        <pt x="166" y="650" on="1"/>
        <pt x="166" y="0" on="1"/>
        <pt x="138" y="0" on="1"/>
        <pt x="138" y="623" on="1"/>
      </contour>
    </TTGlyph>
    <TTGlyph name="onehalf" xMin="121" yMin="-19" xMax="867" yMax="735">
      <component glyphName="one" x="97" y="234" scalex="0.709899902344" scaley="0.709716796875" flags="0x4"/>
      <component glyphName="two" x="544" y="0" scalex="0.707092285156" scaley="0.707275390625" flags="0x4"/>
      <component glyphName="slash" x="270" y="0" scalex="1.0" scaley="0.998962402344" flags="0x4"/>
    </TTGlyph>
    <TTGlyph name="onequarter" xMin="135" yMin="-19" xMax="845" yMax="735">
      <component glyphName="slash" x="270" y="0" scalex="1.0" scaley="0.998962402344" flags="0x4"/>
      <component glyphName="four" x="474" y="0" scalex="0.742980957031" scaley="0.744689941406" flags="0x4"/>
      <component glyphName="one" x="111" y="234" scalex="0.708923339844" scaley="0.709350585938" flags="0x4"/>
    </TTGlyph>
    <TTGlyph name="onesuperior" xMin="67" yMin="401" xMax="128" yMax="700">
      <component glyphName="one" x="52" y="401" scalex="0.458129882812" scaley="0.460021972656" flags="0x4"/>
    </TTGlyph>
    <TTGlyph name="ordfeminine" xMin="93" yMin="300" xMax="375" yMax="582">
      <component glyphName="a" x="58" y="306" scalex="0.721374511719" scaley="0.721252441406" flags="0x4"/>
    </TTGlyph>
    <TTGlyph name="ordmasculine" xMin="90" yMin="300" xMax="373" yMax="582">
      <component glyphName="o" x="65" y="306" scale="0.721252441406" flags="0x4"/>
    </TTGlyph>
    <TTGlyph name="oslash" xMin="36" yMin="-12" xMax="427" yMax="387">
      <contour>
        <pt x="64" y="188" on="1"/>
        <pt x="64" y="153" on="0"/>
        <pt x="89" y="94" on="0"/>
        <pt x="110" y="71" on="1"/>
        <pt x="164" y="135" on="0"/>
        <pt x="270" y="263" on="0"/>
        <pt x="324" y="327" on="1"/>
        <pt x="304" y="341" on="0"/>
        <pt x="257" y="356" on="0"/>
        <pt x="231" y="356" on="1"/>
        <pt x="196" y="356" on="0"/>
        <pt x="135" y="330" on="0"/>
        <pt x="90" y="284" on="0"/>
        <pt x="64" y="223" on="0"/>
      </contour>
      <contour>
        <pt x="231" y="21" on="1"/>
        <pt x="266" y="21" on="0"/>
        <pt x="328" y="47" on="0"/>
        <pt x="373" y="92" on="0"/>
        <pt x="399" y="153" on="0"/>
        <pt x="399" y="188" on="1"/>
        <pt x="399" y="226" on="0"/>
        <pt x="368" y="290" on="0"/>
        <pt x="342" y="313" on="1"/>
        <pt x="288" y="249" on="0"/>
        <pt x="180" y="121" on="0"/>
        <pt x="126" y="57" on="1"/>
        <pt x="171" y="21" on="0"/>
      </contour>
      <contour>
        <pt x="36" y="188" on="1"/>
        <pt x="36" y="228" on="0"/>
        <pt x="67" y="300" on="0"/>
        <pt x="119" y="352" on="0"/>
        <pt x="190" y="383" on="0"/>
        <pt x="231" y="383" on="1"/>
        <pt x="263" y="383" on="0"/>
        <pt x="320" y="365" on="0"/>
        <pt x="343" y="348" on="1"/>
        <pt x="351" y="358" on="0"/>
        <pt x="367" y="377" on="0"/>
        <pt x="375" y="387" on="1"/>
        <pt x="380" y="383" on="0"/>
        <pt x="387" y="376" on="0"/>
        <pt x="392" y="372" on="1"/>
        <pt x="384" y="363" on="0"/>
        <pt x="368" y="344" on="0"/>
        <pt x="360" y="335" on="1"/>
        <pt x="391" y="309" on="0"/>
        <pt x="427" y="232" on="0"/>
        <pt x="427" y="188" on="1"/>
        <pt x="427" y="147" on="0"/>
        <pt x="396" y="76" on="0"/>
        <pt x="343" y="24" on="0"/>
        <pt x="272" y="-7" on="0"/>
        <pt x="231" y="-7" on="1"/>
        <pt x="196" y="-7" on="0"/>
        <pt x="134" y="16" on="0"/>
        <pt x="109" y="36" on="1"/>
        <pt x="98" y="24" on="0"/>
        <pt x="79" y="0" on="0"/>
        <pt x="69" y="-12" on="1"/>
        <pt x="65" y="-8" on="0"/>
        <pt x="57" y="-2" on="0"/>
        <pt x="53" y="2" on="1"/>
        <pt x="63" y="15" on="0"/>
        <pt x="82" y="38" on="0"/>
        <pt x="92" y="50" on="1"/>
        <pt x="66" y="76" on="0"/>
        <pt x="36" y="147" on="0"/>
      </contour>
    </TTGlyph>
    <TTGlyph name="otilde" xMin="36" yMin="-7" xMax="428" yMax="543">
      <component glyphName="o" x="0" y="0" flags="0x204"/>
      <component glyphName="asciitilde" x="-40" y="0" flags="0x4"/>
    </TTGlyph>
    <TTGlyph name="p" xMin="67" yMin="-250" xMax="458" yMax="382">
      <contour>
        <pt x="430" y="187" on="1"/>
        <pt x="430" y="222" on="0"/>
        <pt x="404" y="283" on="0"/>
        <pt x="359" y="328" on="0"/>
        <pt x="298" y="354" on="0"/>
        <pt x="263" y="354" on="1"/>
        <pt x="228" y="354" on="0"/>
        <pt x="166" y="328" on="0"/>
        <pt x="121" y="283" on="0"/>
        <pt x="95" y="222" on="0"/>
        <pt x="95" y="187" on="1"/>
        <pt x="95" y="152" on="0"/>
        <pt x="121" y="91" on="0"/>
        <pt x="166" y="45" on="0"/>
        <pt x="228" y="19" on="0"/>
        <pt x="263" y="19" on="1"/>
        <pt x="298" y="19" on="0"/>
        <pt x="359" y="45" on="0"/>
        <pt x="404" y="91" on="0"/>
        <pt x="430" y="152" on="0"/>
      </contour>
      <contour>
        <pt x="458" y="187" on="1"/>
        <pt x="458" y="146" on="0"/>
        <pt x="428" y="75" on="0"/>
        <pt x="375" y="23" on="0"/>
        <pt x="304" y="-8" on="0"/>
        <pt x="263" y="-8" on="1"/>
        <pt x="232" y="-8" on="0"/>
        <pt x="178" y="9" on="0"/>
        <pt x="133" y="39" on="0"/>
        <pt x="101" y="78" on="0"/>
        <pt x="93" y="100" on="1"/>
        <pt x="93" y="88" on="0"/>
        <pt x="95" y="64" on="0"/>
        <pt x="96" y="53" on="1"/>
        <pt x="96" y="-250" on="1"/>
        <pt x="67" y="-250" on="1"/>
        <pt x="67" y="375" on="1"/>
        <pt x="92" y="375" on="1"/>
        <pt x="92" y="271" on="1"/>
        <pt x="101" y="293" on="0"/>
        <pt x="133" y="334" on="0"/>
        <pt x="178" y="364" on="0"/>
        <pt x="233" y="382" on="0"/>
        <pt x="263" y="382" on="1"/>
        <pt x="304" y="382" on="0"/>
        <pt x="375" y="351" on="0"/>
        <pt x="428" y="299" on="0"/>
        <pt x="458" y="227" on="0"/>
      </contour>
    </TTGlyph>
    <TTGlyph name="paragraph" xMin="38" yMin="0" xMax="392" yMax="750">
      <contour>
        <pt x="229" y="0" on="1"/>
        <pt x="201" y="0" on="1"/>
        <pt x="201" y="423" on="1"/>
        <pt x="167" y="423" on="0"/>
        <pt x="107" y="448" on="0"/>
        <pt x="63" y="492" on="0"/>
        <pt x="38" y="552" on="0"/>
        <pt x="38" y="586" on="1"/>
        <pt x="38" y="620" on="0"/>
        <pt x="63" y="680" on="0"/>
        <pt x="107" y="724" on="0"/>
        <pt x="167" y="750" on="0"/>
        <pt x="201" y="750" on="1"/>
        <pt x="392" y="750" on="1"/>
        <pt x="392" y="0" on="1"/>
        <pt x="364" y="0" on="1"/>
        <pt x="364" y="723" on="1"/>
        <pt x="229" y="723" on="1"/>
      </contour>
    </TTGlyph>
    <TTGlyph name="parenleft" xMin="141" yMin="-163" xMax="323" yMax="747">
      <contour>
        <pt x="141" y="292" on="1"/>
        <pt x="141" y="367" on="0"/>
        <pt x="169" y="503" on="0"/>
        <pt x="215" y="619" on="0"/>
        <pt x="274" y="714" on="0"/>
        <pt x="306" y="747" on="1"/>
        <pt x="310" y="741" on="0"/>
        <pt x="318" y="730" on="0"/>
        <pt x="323" y="724" on="1"/>
        <pt x="294" y="691" on="0"/>
        <pt x="239" y="601" on="0"/>
        <pt x="195" y="491" on="0"/>
        <pt x="169" y="363" on="0"/>
        <pt x="169" y="292" on="1"/>
        <pt x="169" y="221" on="0"/>
        <pt x="195" y="93" on="0"/>
        <pt x="239" y="-17" on="0"/>
        <pt x="294" y="-107" on="0"/>
        <pt x="323" y="-140" on="1"/>
        <pt x="318" y="-146" on="0"/>
        <pt x="310" y="-157" on="0"/>
        <pt x="306" y="-163" on="1"/>
        <pt x="274" y="-130" on="0"/>
        <pt x="215" y="-35" on="0"/>
        <pt x="169" y="81" on="0"/>
        <pt x="141" y="217" on="0"/>
      </contour>
    </TTGlyph>
    <TTGlyph name="parenright" xMin="104" yMin="-164" xMax="286" yMax="746">
      <contour>
        <pt x="286" y="291" on="1"/>
        <pt x="286" y="216" on="0"/>
        <pt x="258" y="80" on="0"/>
        <pt x="212" y="-36" on="0"/>
        <pt x="152" y="-131" on="0"/>
        <pt x="121" y="-164" on="1"/>
        <pt x="116" y="-158" on="0"/>
        <pt x="108" y="-147" on="0"/>
        <pt x="104" y="-141" on="1"/>
        <pt x="133" y="-108" on="0"/>
        <pt x="188" y="-18" on="0"/>
        <pt x="232" y="92" on="0"/>
        <pt x="258" y="220" on="0"/>
        <pt x="258" y="291" on="1"/>
        <pt x="258" y="362" on="0"/>
        <pt x="232" y="490" on="0"/>
        <pt x="188" y="600" on="0"/>
        <pt x="133" y="690" on="0"/>
        <pt x="104" y="723" on="1"/>
        <pt x="108" y="729" on="0"/>
        <pt x="116" y="740" on="0"/>
        <pt x="121" y="746" on="1"/>
        <pt x="152" y="713" on="0"/>
        <pt x="212" y="618" on="0"/>
        <pt x="258" y="502" on="0"/>
        <pt x="286" y="366" on="0"/>
      </contour>
    </TTGlyph>
    <TTGlyph name="percent" xMin="104" yMin="0" xMax="636" yMax="501">
      <contour>
        <pt x="436" y="112" on="1"/>
        <pt x="436" y="77" on="0"/>
        <pt x="486" y="27" on="0"/>
        <pt x="522" y="27" on="1"/>
        <pt x="558" y="27" on="0"/>
        <pt x="608" y="77" on="0"/>
        <pt x="608" y="112" on="1"/>
        <pt x="608" y="147" on="0"/>
        <pt x="558" y="197" on="0"/>
        <pt x="522" y="197" on="1"/>
        <pt x="486" y="197" on="0"/>
        <pt x="436" y="147" on="0"/>
      </contour>
      <contour>
        <pt x="522" y="0" on="1"/>
        <pt x="499" y="0" on="0"/>
        <pt x="457" y="18" on="0"/>
        <pt x="426" y="48" on="0"/>
        <pt x="408" y="89" on="0"/>
        <pt x="408" y="113" on="1"/>
        <pt x="408" y="136" on="0"/>
        <pt x="426" y="177" on="0"/>
        <pt x="457" y="207" on="0"/>
        <pt x="499" y="224" on="0"/>
        <pt x="522" y="224" on="1"/>
        <pt x="545" y="224" on="0"/>
        <pt x="586" y="207" on="0"/>
        <pt x="618" y="177" on="0"/>
        <pt x="636" y="136" on="0"/>
        <pt x="636" y="113" on="1"/>
        <pt x="636" y="89" on="0"/>
        <pt x="618" y="48" on="0"/>
        <pt x="586" y="18" on="0"/>
        <pt x="545" y="0" on="0"/>
      </contour>
      <contour>
        <pt x="132" y="388" on="1"/>
        <pt x="132" y="353" on="0"/>
        <pt x="182" y="304" on="0"/>
        <pt x="218" y="304" on="1"/>
        <pt x="254" y="304" on="0"/>
        <pt x="304" y="353" on="0"/>
        <pt x="304" y="388" on="1"/>
        <pt x="304" y="423" on="0"/>
        <pt x="254" y="473" on="0"/>
        <pt x="218" y="473" on="1"/>
        <pt x="182" y="473" on="0"/>
        <pt x="132" y="423" on="0"/>
      </contour>
      <contour>
        <pt x="218" y="276" on="1"/>
        <pt x="195" y="276" on="0"/>
        <pt x="153" y="294" on="0"/>
        <pt x="122" y="324" on="0"/>
        <pt x="104" y="365" on="0"/>
        <pt x="104" y="389" on="1"/>
        <pt x="104" y="412" on="0"/>
        <pt x="122" y="453" on="0"/>
        <pt x="153" y="483" on="0"/>
        <pt x="195" y="501" on="0"/>
        <pt x="218" y="501" on="1"/>
        <pt x="241" y="501" on="0"/>
        <pt x="282" y="483" on="0"/>
        <pt x="314" y="453" on="0"/>
        <pt x="332" y="412" on="0"/>
        <pt x="332" y="389" on="1"/>
        <pt x="332" y="365" on="0"/>
        <pt x="314" y="324" on="0"/>
        <pt x="282" y="294" on="0"/>
        <pt x="241" y="276" on="0"/>
      </contour>
      <contour>
        <pt x="201" y="0" on="1"/>
        <pt x="276" y="126" on="0"/>
        <pt x="424" y="374" on="0"/>
        <pt x="499" y="500" on="1"/>
        <pt x="530" y="500" on="1"/>
        <pt x="455" y="374" on="0"/>
        <pt x="307" y="126" on="0"/>
        <pt x="232" y="0" on="1"/>
      </contour>
    </TTGlyph>
    <TTGlyph name="period" xMin="59" yMin="0" xMax="112" yMax="53">
      <contour>
        <pt x="59" y="26" on="1"/>
        <pt x="59" y="37" on="0"/>
        <pt x="75" y="53" on="0"/>
        <pt x="86" y="53" on="1"/>
        <pt x="97" y="53" on="0"/>
        <pt x="112" y="37" on="0"/>
        <pt x="112" y="26" on="1"/>
        <pt x="112" y="15" on="0"/>
        <pt x="97" y="0" on="0"/>
        <pt x="86" y="0" on="1"/>
        <pt x="75" y="0" on="0"/>
        <pt x="59" y="15" on="0"/>
      </contour>
    </TTGlyph>
    <TTGlyph name="periodcentered" xMin="59" yMin="254" xMax="112" yMax="307">
      <component glyphName="period" x="0" y="254" flags="0x4"/>
    </TTGlyph>
    <TTGlyph name="plus" xMin="86" yMin="51" xMax="446" yMax="411">
      <contour>
        <pt x="252" y="51" on="1"/>
        <pt x="252" y="218" on="1"/>
        <pt x="86" y="218" on="1"/>
        <pt x="86" y="245" on="1"/>
        <pt x="252" y="245" on="1"/>
        <pt x="252" y="411" on="1"/>
        <pt x="280" y="411" on="1"/>
        <pt x="280" y="245" on="1"/>
        <pt x="446" y="245" on="1"/>
        <pt x="446" y="218" on="1"/>
        <pt x="280" y="218" on="1"/>
        <pt x="280" y="51" on="1"/>
      </contour>
    </TTGlyph>
    <TTGlyph name="plusminus" xMin="86" yMin="129" xMax="446" yMax="571">
      <contour>
        <pt x="252" y="211" on="1"/>
        <pt x="252" y="378" on="1"/>
        <pt x="86" y="378" on="1"/>
        <pt x="86" y="405" on="1"/>
        <pt x="252" y="405" on="1"/>
        <pt x="252" y="571" on="1"/>
        <pt x="280" y="571" on="1"/>
        <pt x="280" y="405" on="1"/>
        <pt x="446" y="405" on="1"/>
        <pt x="446" y="378" on="1"/>
        <pt x="280" y="378" on="1"/>
        <pt x="280" y="211" on="1"/>
      </contour>
      <contour>
        <pt x="446" y="129" on="1"/>
        <pt x="86" y="129" on="1"/>
        <pt x="86" y="156" on="1"/>
        <pt x="446" y="156" on="1"/>
      </contour>
    </TTGlyph>
    <TTGlyph name="q" xMin="52" yMin="-250" xMax="444" yMax="382">
      <contour>
        <pt x="80" y="187" on="1"/>
        <pt x="80" y="152" on="0"/>
        <pt x="106" y="91" on="0"/>
        <pt x="151" y="45" on="0"/>
        <pt x="213" y="19" on="0"/>
        <pt x="248" y="19" on="1"/>
        <pt x="283" y="19" on="0"/>
        <pt x="344" y="45" on="0"/>
        <pt x="390" y="91" on="0"/>
        <pt x="416" y="152" on="0"/>
        <pt x="416" y="187" on="1"/>
        <pt x="416" y="222" on="0"/>
        <pt x="390" y="283" on="0"/>
        <pt x="344" y="328" on="0"/>
        <pt x="283" y="354" on="0"/>
        <pt x="248" y="354" on="1"/>
        <pt x="213" y="354" on="0"/>
        <pt x="151" y="328" on="0"/>
        <pt x="106" y="283" on="0"/>
        <pt x="80" y="222" on="0"/>
      </contour>
      <contour>
        <pt x="52" y="187" on="1"/>
        <pt x="52" y="227" on="0"/>
        <pt x="83" y="299" on="0"/>
        <pt x="136" y="351" on="0"/>
        <pt x="207" y="382" on="0"/>
        <pt x="248" y="382" on="1"/>
        <pt x="278" y="382" on="0"/>
        <pt x="332" y="364" on="0"/>
        <pt x="377" y="334" on="0"/>
        <pt x="410" y="293" on="0"/>
        <pt x="419" y="271" on="1"/>
        <pt x="419" y="375" on="1"/>
        <pt x="444" y="375" on="1"/>
        <pt x="444" y="-250" on="1"/>
        <pt x="415" y="-250" on="1"/>
        <pt x="415" y="53" on="1"/>
        <pt x="416" y="64" on="0"/>
        <pt x="417" y="88" on="0"/>
        <pt x="418" y="100" on="1"/>
        <pt x="409" y="78" on="0"/>
        <pt x="377" y="39" on="0"/>
        <pt x="333" y="9" on="0"/>
        <pt x="279" y="-8" on="0"/>
        <pt x="248" y="-8" on="1"/>
        <pt x="207" y="-8" on="0"/>
        <pt x="136" y="23" on="0"/>
        <pt x="83" y="75" on="0"/>
        <pt x="52" y="146" on="0"/>
      </contour>
    </TTGlyph>
    <TTGlyph name="question" xMin="33" yMin="20" xMax="417" yMax="732">
      <contour>
        <pt x="58" y="587" on="1"/>
        <pt x="52" y="589" on="0"/>
        <pt x="39" y="593" on="0"/>
        <pt x="33" y="595" on="1"/>
        <pt x="42" y="622" on="0"/>
        <pt x="76" y="672" on="0"/>
        <pt x="124" y="710" on="0"/>
        <pt x="185" y="732" on="0"/>
        <pt x="221" y="732" on="1"/>
        <pt x="262" y="732" on="0"/>
        <pt x="334" y="701" on="0"/>
        <pt x="387" y="648" on="0"/>
        <pt x="417" y="577" on="0"/>
        <pt x="417" y="537" on="1"/>
        <pt x="417" y="483" on="0"/>
        <pt x="364" y="401" on="0"/>
        <pt x="319" y="369" on="1"/>
        <pt x="301" y="355" on="0"/>
        <pt x="267" y="336" on="0"/>
        <pt x="242" y="311" on="0"/>
        <pt x="227" y="274" on="0"/>
        <pt x="227" y="242" on="1"/>
        <pt x="227" y="164" on="1"/>
        <pt x="199" y="164" on="1"/>
        <pt x="199" y="261" on="1"/>
        <pt x="199" y="292" on="0"/>
        <pt x="221" y="330" on="0"/>
        <pt x="258" y="360" on="0"/>
        <pt x="304" y="387" on="0"/>
        <pt x="328" y="408" on="1"/>
        <pt x="360" y="435" on="0"/>
        <pt x="389" y="500" on="0"/>
        <pt x="389" y="537" on="1"/>
        <pt x="389" y="573" on="0"/>
        <pt x="363" y="634" on="0"/>
        <pt x="318" y="679" on="0"/>
        <pt x="257" y="705" on="0"/>
        <pt x="221" y="705" on="1"/>
        <pt x="162" y="705" on="0"/>
        <pt x="75" y="641" on="0"/>
      </contour>
      <contour>
        <pt x="213" y="20" on="1"/>
        <pt x="203" y="20" on="0"/>
        <pt x="187" y="35" on="0"/>
        <pt x="187" y="46" on="1"/>
        <pt x="187" y="58" on="0"/>
        <pt x="203" y="73" on="0"/>
        <pt x="213" y="73" on="1"/>
        <pt x="223" y="73" on="0"/>
        <pt x="239" y="58" on="0"/>
        <pt x="239" y="46" on="1"/>
        <pt x="239" y="35" on="0"/>
        <pt x="223" y="20" on="0"/>
      </contour>
    </TTGlyph>
    <TTGlyph name="questiondown" xMin="36" yMin="-193" xMax="420" yMax="519">
      <component glyphName="question" x="453" y="539" scale="-0.999938964844" flags="0x4"/>
    </TTGlyph>
    <TTGlyph name="quotedbl" xMin="63" yMin="472" xMax="227" yMax="720">
      <contour>
        <pt x="196" y="472" on="1"/>
        <pt x="196" y="720" on="1"/>
        <pt x="227" y="720" on="1"/>
        <pt x="226" y="657" on="0"/>
        <pt x="224" y="535" on="0"/>
        <pt x="223" y="472" on="1"/>
      </contour>
      <contour>
        <pt x="63" y="472" on="1"/>
        <pt x="63" y="720" on="1"/>
        <pt x="94" y="720" on="1"/>
        <pt x="93" y="657" on="0"/>
        <pt x="91" y="535" on="0"/>
        <pt x="90" y="472" on="1"/>
      </contour>
    </TTGlyph>
    <TTGlyph name="quotedblbase" xMin="20" yMin="-48" xMax="190" yMax="92">
      <contour>
        <pt x="33" y="-48" on="1"/>
        <pt x="29" y="-43" on="0"/>
        <pt x="23" y="-34" on="0"/>
        <pt x="20" y="-29" on="1"/>
        <pt x="41" y="-9" on="0"/>
        <pt x="60" y="50" on="0"/>
        <pt x="53" y="85" on="1"/>
        <pt x="59" y="87" on="0"/>
        <pt x="72" y="90" on="0"/>
        <pt x="78" y="92" on="1"/>
        <pt x="86" y="52" on="0"/>
        <pt x="62" y="-22" on="0"/>
      </contour>
      <contour>
        <pt x="137" y="-48" on="1"/>
        <pt x="133" y="-43" on="0"/>
        <pt x="127" y="-34" on="0"/>
        <pt x="124" y="-29" on="1"/>
        <pt x="145" y="-9" on="0"/>
        <pt x="164" y="50" on="0"/>
        <pt x="157" y="85" on="1"/>
        <pt x="163" y="87" on="0"/>
        <pt x="176" y="90" on="0"/>
        <pt x="182" y="92" on="1"/>
        <pt x="190" y="52" on="0"/>
        <pt x="166" y="-22" on="0"/>
      </contour>
    </TTGlyph>
    <TTGlyph name="quotedblleft" xMin="23" yMin="571" xMax="194" yMax="711">
      <contour>
        <pt x="194" y="590" on="1"/>
        <pt x="190" y="585" on="0"/>
        <pt x="184" y="576" on="0"/>
        <pt x="181" y="571" on="1"/>
        <pt x="152" y="597" on="0"/>
        <pt x="127" y="671" on="0"/>
        <pt x="135" y="711" on="1"/>
        <pt x="141" y="709" on="0"/>
        <pt x="154" y="706" on="0"/>
        <pt x="161" y="704" on="1"/>
        <pt x="154" y="669" on="0"/>
        <pt x="173" y="610" on="0"/>
      </contour>
      <contour>
        <pt x="90" y="590" on="1"/>
        <pt x="86" y="585" on="0"/>
        <pt x="80" y="576" on="0"/>
        <pt x="77" y="571" on="1"/>
        <pt x="48" y="597" on="0"/>
        <pt x="23" y="671" on="0"/>
        <pt x="31" y="711" on="1"/>
        <pt x="37" y="709" on="0"/>
        <pt x="50" y="706" on="0"/>
        <pt x="57" y="704" on="1"/>
        <pt x="50" y="669" on="0"/>
        <pt x="69" y="610" on="0"/>
      </contour>
    </TTGlyph>
    <TTGlyph name="quotedblright" xMin="37" yMin="571" xMax="208" yMax="711">
      <contour>
        <pt x="50" y="571" on="1"/>
        <pt x="47" y="576" on="0"/>
        <pt x="41" y="585" on="0"/>
        <pt x="37" y="590" on="1"/>
        <pt x="58" y="610" on="0"/>
        <pt x="77" y="669" on="0"/>
        <pt x="70" y="704" on="1"/>
        <pt x="77" y="706" on="0"/>
        <pt x="90" y="709" on="0"/>
        <pt x="96" y="711" on="1"/>
        <pt x="104" y="671" on="0"/>
        <pt x="79" y="597" on="0"/>
      </contour>
      <contour>
        <pt x="154" y="571" on="1"/>
        <pt x="151" y="576" on="0"/>
        <pt x="145" y="585" on="0"/>
        <pt x="141" y="590" on="1"/>
        <pt x="162" y="610" on="0"/>
        <pt x="181" y="669" on="0"/>
        <pt x="174" y="704" on="1"/>
        <pt x="181" y="706" on="0"/>
        <pt x="194" y="709" on="0"/>
        <pt x="200" y="711" on="1"/>
        <pt x="208" y="671" on="0"/>
        <pt x="183" y="597" on="0"/>
      </contour>
    </TTGlyph>
    <TTGlyph name="quoteleft" xMin="30" yMin="571" xMax="97" yMax="711">
      <contour>
        <pt x="97" y="590" on="1"/>
        <pt x="93" y="585" on="0"/>
        <pt x="87" y="576" on="0"/>
        <pt x="84" y="571" on="1"/>
        <pt x="55" y="597" on="0"/>
        <pt x="30" y="671" on="0"/>
        <pt x="38" y="711" on="1"/>
        <pt x="44" y="709" on="0"/>
        <pt x="58" y="706" on="0"/>
        <pt x="64" y="704" on="1"/>
        <pt x="57" y="669" on="0"/>
        <pt x="76" y="610" on="0"/>
      </contour>
    </TTGlyph>
    <TTGlyph name="quoteright" xMin="54" yMin="571" xMax="121" yMax="711">
      <contour>
        <pt x="67" y="571" on="1"/>
        <pt x="64" y="576" on="0"/>
        <pt x="58" y="585" on="0"/>
        <pt x="54" y="590" on="1"/>
        <pt x="75" y="610" on="0"/>
        <pt x="94" y="669" on="0"/>
        <pt x="87" y="704" on="1"/>
        <pt x="93" y="706" on="0"/>
        <pt x="107" y="709" on="0"/>
        <pt x="113" y="711" on="1"/>
        <pt x="121" y="671" on="0"/>
        <pt x="96" y="597" on="0"/>
      </contour>
    </TTGlyph>
    <TTGlyph name="quotesinglbase" xMin="20" yMin="-48" xMax="86" yMax="92">
      <contour>
        <pt x="33" y="-48" on="1"/>
        <pt x="29" y="-43" on="0"/>
        <pt x="23" y="-34" on="0"/>
        <pt x="20" y="-29" on="1"/>
        <pt x="41" y="-9" on="0"/>
        <pt x="60" y="50" on="0"/>
        <pt x="53" y="85" on="1"/>
        <pt x="59" y="87" on="0"/>
        <pt x="72" y="90" on="0"/>
        <pt x="78" y="92" on="1"/>
        <pt x="86" y="52" on="0"/>
        <pt x="62" y="-22" on="0"/>
      </contour>
    </TTGlyph>
    <TTGlyph name="quotesingle" xMin="62" yMin="472" xMax="93" yMax="720">
      <contour>
        <pt x="62" y="472" on="1"/>
        <pt x="62" y="720" on="1"/>
        <pt x="93" y="720" on="1"/>
        <pt x="92" y="657" on="0"/>
        <pt x="90" y="535" on="0"/>
        <pt x="89" y="472" on="1"/>
      </contour>
    </TTGlyph>
    <TTGlyph name="r" xMin="110" yMin="0" xMax="296" yMax="382">
      <contour>
        <pt x="295" y="355" on="1"/>
        <pt x="263" y="354" on="0"/>
        <pt x="206" y="332" on="0"/>
        <pt x="163" y="294" on="0"/>
        <pt x="138" y="242" on="0"/>
        <pt x="138" y="212" on="1"/>
        <pt x="138" y="0" on="1"/>
        <pt x="110" y="0" on="1"/>
        <pt x="110" y="375" on="1"/>
        <pt x="136" y="375" on="1"/>
        <pt x="136" y="331" on="1"/>
        <pt x="135" y="317" on="0"/>
        <pt x="135" y="291" on="0"/>
        <pt x="135" y="277" on="1"/>
        <pt x="157" y="326" on="0"/>
        <pt x="245" y="381" on="0"/>
        <pt x="296" y="382" on="1"/>
      </contour>
    </TTGlyph>
    <TTGlyph name="registered" xMin="143" yMin="117" xMax="657" yMax="628">
      <contour>
        <pt x="399" y="135" on="1"/>
        <pt x="448" y="135" on="0"/>
        <pt x="535" y="171" on="0"/>
        <pt x="600" y="234" on="0"/>
        <pt x="637" y="321" on="0"/>
        <pt x="637" y="371" on="1"/>
        <pt x="637" y="423" on="0"/>
        <pt x="600" y="510" on="0"/>
        <pt x="535" y="574" on="0"/>
        <pt x="448" y="610" on="0"/>
        <pt x="399" y="610" on="1"/>
        <pt x="350" y="610" on="0"/>
        <pt x="264" y="574" on="0"/>
        <pt x="200" y="510" on="0"/>
        <pt x="163" y="423" on="0"/>
        <pt x="163" y="371" on="1"/>
        <pt x="163" y="321" on="0"/>
        <pt x="200" y="234" on="0"/>
        <pt x="264" y="171" on="0"/>
        <pt x="350" y="135" on="0"/>
      </contour>
      <contour>
        <pt x="400" y="117" on="1"/>
        <pt x="346" y="117" on="0"/>
        <pt x="252" y="155" on="0"/>
        <pt x="183" y="223" on="0"/>
        <pt x="143" y="317" on="0"/>
        <pt x="143" y="372" on="1"/>
        <pt x="143" y="427" on="0"/>
        <pt x="183" y="521" on="0"/>
        <pt x="252" y="590" on="0"/>
        <pt x="346" y="628" on="0"/>
        <pt x="400" y="628" on="1"/>
        <pt x="454" y="628" on="0"/>
        <pt x="548" y="590" on="0"/>
        <pt x="617" y="521" on="0"/>
        <pt x="657" y="427" on="0"/>
        <pt x="657" y="372" on="1"/>
        <pt x="657" y="317" on="0"/>
        <pt x="617" y="223" on="0"/>
        <pt x="548" y="155" on="0"/>
        <pt x="454" y="117" on="0"/>
      </contour>
      <contour>
        <pt x="345" y="381" on="1"/>
        <pt x="396" y="381" on="1"/>
        <pt x="422" y="381" on="0"/>
        <pt x="456" y="395" on="0"/>
        <pt x="476" y="418" on="0"/>
        <pt x="484" y="444" on="0"/>
        <pt x="484" y="456" on="1"/>
        <pt x="484" y="485" on="0"/>
        <pt x="434" y="528" on="0"/>
        <pt x="396" y="528" on="1"/>
        <pt x="345" y="528" on="1"/>
      </contour>
      <contour>
        <pt x="331" y="210" on="1"/>
        <pt x="331" y="541" on="1"/>
        <pt x="400" y="541" on="1"/>
        <pt x="414" y="541" on="0"/>
        <pt x="448" y="532" on="0"/>
        <pt x="478" y="511" on="0"/>
        <pt x="498" y="479" on="0"/>
        <pt x="498" y="456" on="1"/>
        <pt x="498" y="422" on="0"/>
        <pt x="461" y="378" on="0"/>
        <pt x="426" y="371" on="1"/>
        <pt x="445" y="330" on="0"/>
        <pt x="483" y="250" on="0"/>
        <pt x="502" y="210" on="1"/>
        <pt x="488" y="210" on="1"/>
        <pt x="469" y="250" on="0"/>
        <pt x="432" y="329" on="0"/>
        <pt x="413" y="370" on="1"/>
        <pt x="408" y="369" on="0"/>
        <pt x="398" y="368" on="0"/>
        <pt x="393" y="368" on="1"/>
        <pt x="345" y="368" on="1"/>
        <pt x="345" y="210" on="1"/>
      </contour>
    </TTGlyph>
    <TTGlyph name="s" xMin="57" yMin="-8" xMax="291" yMax="380">
      <contour>
        <pt x="276" y="337" on="1"/>
        <pt x="272" y="332" on="0"/>
        <pt x="263" y="322" on="0"/>
        <pt x="259" y="317" on="1"/>
        <pt x="245" y="334" on="0"/>
        <pt x="196" y="353" on="0"/>
        <pt x="174" y="353" on="1"/>
        <pt x="162" y="353" on="0"/>
        <pt x="135" y="345" on="0"/>
        <pt x="113" y="329" on="0"/>
        <pt x="98" y="301" on="0"/>
        <pt x="98" y="282" on="1"/>
        <pt x="98" y="256" on="0"/>
        <pt x="127" y="228" on="0"/>
        <pt x="170" y="210" on="0"/>
        <pt x="220" y="196" on="0"/>
        <pt x="263" y="173" on="0"/>
        <pt x="291" y="136" on="0"/>
        <pt x="291" y="103" on="1"/>
        <pt x="291" y="85" on="0"/>
        <pt x="278" y="46" on="0"/>
        <pt x="249" y="13" on="0"/>
        <pt x="204" y="-8" on="0"/>
        <pt x="172" y="-8" on="1"/>
        <pt x="144" y="-8" on="0"/>
        <pt x="78" y="13" on="0"/>
        <pt x="57" y="39" on="1"/>
        <pt x="62" y="44" on="0"/>
        <pt x="71" y="53" on="0"/>
        <pt x="76" y="58" on="1"/>
        <pt x="83" y="49" on="0"/>
        <pt x="107" y="35" on="0"/>
        <pt x="134" y="25" on="0"/>
        <pt x="163" y="19" on="0"/>
        <pt x="176" y="19" on="1"/>
        <pt x="188" y="19" on="0"/>
        <pt x="218" y="29" on="0"/>
        <pt x="245" y="49" on="0"/>
        <pt x="263" y="79" on="0"/>
        <pt x="263" y="100" on="1"/>
        <pt x="263" y="128" on="0"/>
        <pt x="235" y="159" on="0"/>
        <pt x="192" y="178" on="0"/>
        <pt x="142" y="191" on="0"/>
        <pt x="99" y="211" on="0"/>
        <pt x="70" y="246" on="0"/>
        <pt x="70" y="278" on="1"/>
        <pt x="70" y="303" on="0"/>
        <pt x="89" y="341" on="0"/>
        <pt x="119" y="367" on="0"/>
        <pt x="157" y="380" on="0"/>
        <pt x="175" y="380" on="1"/>
        <pt x="196" y="380" on="0"/>
        <pt x="255" y="361" on="0"/>
      </contour>
    </TTGlyph>
    <TTGlyph name="section" xMin="138" yMin="-18" xMax="377" yMax="736">
      <contour>
        <pt x="177" y="321" on="1"/>
        <pt x="189" y="294" on="0"/>
        <pt x="239" y="267" on="0"/>
        <pt x="268" y="269" on="1"/>
        <pt x="287" y="270" on="0"/>
        <pt x="318" y="289" on="0"/>
        <pt x="340" y="317" on="0"/>
        <pt x="350" y="351" on="0"/>
        <pt x="348" y="369" on="1"/>
        <pt x="345" y="389" on="0"/>
        <pt x="326" y="421" on="0"/>
        <pt x="298" y="443" on="0"/>
        <pt x="264" y="453" on="0"/>
        <pt x="247" y="452" on="1"/>
        <pt x="221" y="450" on="0"/>
        <pt x="186" y="423" on="0"/>
        <pt x="168" y="385" on="0"/>
        <pt x="167" y="341" on="0"/>
      </contour>
      <contour>
        <pt x="242" y="153" on="1"/>
        <pt x="213" y="201" on="0"/>
        <pt x="174" y="269" on="0"/>
        <pt x="156" y="300" on="1"/>
        <pt x="144" y="321" on="0"/>
        <pt x="138" y="367" on="0"/>
        <pt x="148" y="411" on="0"/>
        <pt x="174" y="449" on="0"/>
        <pt x="194" y="462" on="1"/>
        <pt x="219" y="476" on="0"/>
        <pt x="274" y="476" on="0"/>
        <pt x="298" y="465" on="1"/>
        <pt x="283" y="490" on="0"/>
        <pt x="255" y="541" on="0"/>
        <pt x="240" y="567" on="1"/>
        <pt x="225" y="593" on="0"/>
        <pt x="211" y="631" on="0"/>
        <pt x="209" y="659" on="0"/>
        <pt x="217" y="680" on="0"/>
        <pt x="224" y="688" on="1"/>
        <pt x="235" y="703" on="0"/>
        <pt x="280" y="727" on="0"/>
        <pt x="297" y="736" on="1"/>
        <pt x="300" y="731" on="0"/>
        <pt x="307" y="719" on="0"/>
        <pt x="311" y="713" on="1"/>
        <pt x="298" y="705" on="0"/>
        <pt x="275" y="693" on="0"/>
        <pt x="263" y="685" on="1"/>
        <pt x="237" y="670" on="0"/>
        <pt x="242" y="619" on="0"/>
        <pt x="271" y="569" on="1"/>
        <pt x="293" y="531" on="0"/>
        <pt x="336" y="456" on="0"/>
        <pt x="358" y="418" on="1"/>
        <pt x="371" y="397" on="0"/>
        <pt x="377" y="352" on="0"/>
        <pt x="366" y="308" on="0"/>
        <pt x="339" y="271" on="0"/>
        <pt x="319" y="258" on="1"/>
        <pt x="295" y="243" on="0"/>
        <pt x="240" y="242" on="0"/>
        <pt x="215" y="254" on="1"/>
        <pt x="275" y="152" on="1"/>
        <pt x="290" y="126" on="0"/>
        <pt x="304" y="88" on="0"/>
        <pt x="306" y="59" on="0"/>
        <pt x="298" y="38" on="0"/>
        <pt x="291" y="30" on="1"/>
        <pt x="279" y="14" on="0"/>
        <pt x="235" y="-9" on="0"/>
        <pt x="218" y="-18" on="1"/>
        <pt x="215" y="-12" on="0"/>
        <pt x="208" y="0" on="0"/>
        <pt x="204" y="6" on="1"/>
        <pt x="217" y="13" on="0"/>
        <pt x="240" y="26" on="0"/>
        <pt x="252" y="33" on="1"/>
        <pt x="278" y="48" on="0"/>
        <pt x="272" y="101" on="0"/>
      </contour>
    </TTGlyph>
    <TTGlyph name="semicolon" xMin="7" yMin="-120" xMax="136" yMax="303">
      <contour>
        <pt x="83" y="276" on="1"/>
        <pt x="83" y="287" on="0"/>
        <pt x="99" y="303" on="0"/>
        <pt x="110" y="303" on="1"/>
        <pt x="120" y="303" on="0"/>
        <pt x="136" y="287" on="0"/>
        <pt x="136" y="276" on="1"/>
        <pt x="136" y="265" on="0"/>
        <pt x="120" y="250" on="0"/>
        <pt x="110" y="250" on="1"/>
        <pt x="99" y="250" on="0"/>
        <pt x="83" y="265" on="0"/>
      </contour>
      <contour>
        <pt x="119" y="86" on="1"/>
        <pt x="97" y="34" on="0"/>
        <pt x="55" y="-68" on="0"/>
        <pt x="33" y="-120" on="1"/>
        <pt x="7" y="-120" on="1"/>
        <pt x="27" y="-68" on="0"/>
        <pt x="64" y="34" on="0"/>
        <pt x="84" y="86" on="1"/>
      </contour>
    </TTGlyph>
    <TTGlyph name="seven" xMin="14" yMin="0" xMax="417" yMax="650">
      <contour>
        <pt x="14" y="622" on="1"/>
        <pt x="14" y="650" on="1"/>
        <pt x="417" y="650" on="1"/>
        <pt x="344" y="486" on="0"/>
        <pt x="198" y="164" on="0"/>
        <pt x="125" y="0" on="1"/>
        <pt x="92" y="0" on="1"/>
        <pt x="163" y="156" on="0"/>
        <pt x="302" y="466" on="0"/>
        <pt x="373" y="622" on="1"/>
      </contour>
    </TTGlyph>
    <TTGlyph name="six" xMin="50" yMin="-8" xMax="463" yMax="634">
      <contour>
        <pt x="77" y="196" on="1"/>
        <pt x="77" y="159" on="0"/>
        <pt x="105" y="95" on="0"/>
        <pt x="153" y="47" on="0"/>
        <pt x="218" y="19" on="0"/>
        <pt x="255" y="19" on="1"/>
        <pt x="292" y="19" on="0"/>
        <pt x="358" y="47" on="0"/>
        <pt x="407" y="95" on="0"/>
        <pt x="435" y="159" on="0"/>
        <pt x="435" y="196" on="1"/>
        <pt x="435" y="233" on="0"/>
        <pt x="407" y="297" on="0"/>
        <pt x="358" y="345" on="0"/>
        <pt x="292" y="373" on="0"/>
        <pt x="255" y="373" on="1"/>
        <pt x="218" y="373" on="0"/>
        <pt x="153" y="345" on="0"/>
        <pt x="105" y="297" on="0"/>
        <pt x="77" y="233" on="0"/>
      </contour>
      <contour>
        <pt x="50" y="194" on="1"/>
        <pt x="50" y="266" on="0"/>
        <pt x="112" y="391" on="0"/>
        <pt x="208" y="500" on="0"/>
        <pt x="325" y="593" on="0"/>
        <pt x="381" y="634" on="1"/>
        <pt x="386" y="628" on="0"/>
        <pt x="395" y="616" on="0"/>
        <pt x="400" y="611" on="1"/>
        <pt x="340" y="571" on="0"/>
        <pt x="247" y="494" on="0"/>
        <pt x="179" y="424" on="0"/>
        <pt x="134" y="361" on="0"/>
        <pt x="122" y="336" on="1"/>
        <pt x="145" y="365" on="0"/>
        <pt x="214" y="401" on="0"/>
        <pt x="256" y="401" on="1"/>
        <pt x="299" y="401" on="0"/>
        <pt x="374" y="369" on="0"/>
        <pt x="430" y="313" on="0"/>
        <pt x="463" y="238" on="0"/>
        <pt x="463" y="196" on="1"/>
        <pt x="463" y="154" on="0"/>
        <pt x="430" y="80" on="0"/>
        <pt x="374" y="24" on="0"/>
        <pt x="299" y="-8" on="0"/>
        <pt x="256" y="-8" on="1"/>
        <pt x="214" y="-8" on="0"/>
        <pt x="139" y="24" on="0"/>
        <pt x="83" y="78" on="0"/>
        <pt x="50" y="152" on="0"/>
      </contour>
    </TTGlyph>
    <TTGlyph name="slash" xMin="17" yMin="-19" xMax="323" yMax="736">
      <contour>
        <pt x="17" y="-19" on="1"/>
        <pt x="87" y="171" on="0"/>
        <pt x="225" y="546" on="0"/>
        <pt x="295" y="736" on="1"/>
        <pt x="323" y="736" on="1"/>
        <pt x="253" y="546" on="0"/>
        <pt x="115" y="171" on="0"/>
        <pt x="45" y="-19" on="1"/>
      </contour>
    </TTGlyph>
    <TTGlyph name="sterling" xMin="27" yMin="0" xMax="498" yMax="634">
      <contour>
        <pt x="128" y="27" on="1"/>
        <pt x="327" y="27" on="1"/>
        <pt x="360" y="27" on="1"/>
        <pt x="421" y="27" on="0"/>
        <pt x="470" y="48" on="0"/>
        <pt x="470" y="79" on="1"/>
        <pt x="470" y="134" on="1"/>
        <pt x="498" y="134" on="1"/>
        <pt x="498" y="86" on="1"/>
        <pt x="498" y="69" on="0"/>
        <pt x="494" y="38" on="0"/>
        <pt x="472" y="14" on="0"/>
        <pt x="424" y="0" on="0"/>
        <pt x="380" y="0" on="1"/>
        <pt x="27" y="0" on="1"/>
        <pt x="27" y="27" on="1"/>
        <pt x="71" y="27" on="1"/>
        <pt x="88" y="27" on="0"/>
        <pt x="109" y="40" on="0"/>
        <pt x="120" y="72" on="0"/>
        <pt x="123" y="126" on="0"/>
        <pt x="123" y="167" on="1"/>
        <pt x="123" y="303" on="1"/>
        <pt x="58" y="303" on="1"/>
        <pt x="58" y="331" on="1"/>
        <pt x="123" y="331" on="1"/>
        <pt x="123" y="500" on="1"/>
        <pt x="123" y="570" on="0"/>
        <pt x="216" y="634" on="0"/>
        <pt x="294" y="634" on="1"/>
        <pt x="361" y="634" on="0"/>
        <pt x="432" y="583" on="0"/>
        <pt x="452" y="543" on="1"/>
        <pt x="447" y="540" on="0"/>
        <pt x="437" y="534" on="0"/>
        <pt x="432" y="531" on="1"/>
        <pt x="421" y="551" on="0"/>
        <pt x="397" y="580" on="0"/>
        <pt x="365" y="598" on="0"/>
        <pt x="323" y="607" on="0"/>
        <pt x="294" y="607" on="1"/>
        <pt x="253" y="607" on="0"/>
        <pt x="198" y="590" on="0"/>
        <pt x="165" y="561" on="0"/>
        <pt x="151" y="522" on="0"/>
        <pt x="151" y="499" on="1"/>
        <pt x="151" y="331" on="1"/>
        <pt x="277" y="331" on="1"/>
        <pt x="277" y="303" on="1"/>
        <pt x="151" y="303" on="1"/>
        <pt x="151" y="152" on="1"/>
        <pt x="151" y="120" on="1"/>
        <pt x="151" y="91" on="0"/>
        <pt x="142" y="41" on="0"/>
      </contour>
    </TTGlyph>
    <TTGlyph name="t" xMin="42" yMin="0" xMax="279" yMax="619">
      <contour>
        <pt x="130" y="619" on="1"/>
        <pt x="157" y="619" on="1"/>
        <pt x="157" y="370" on="1"/>
        <pt x="279" y="370" on="1"/>
        <pt x="279" y="343" on="1"/>
        <pt x="157" y="343" on="1"/>
        <pt x="157" y="0" on="1"/>
        <pt x="130" y="0" on="1"/>
        <pt x="130" y="343" on="1"/>
        <pt x="42" y="343" on="1"/>
        <pt x="42" y="370" on="1"/>
        <pt x="130" y="370" on="1"/>
      </contour>
    </TTGlyph>
    <TTGlyph name="thorn" xMin="67" yMin="-250" xMax="458" yMax="750">
      <contour>
        <pt x="430" y="187" on="1"/>
        <pt x="430" y="222" on="0"/>
        <pt x="404" y="283" on="0"/>
        <pt x="359" y="328" on="0"/>
        <pt x="298" y="354" on="0"/>
        <pt x="263" y="354" on="1"/>
        <pt x="228" y="354" on="0"/>
        <pt x="166" y="328" on="0"/>
        <pt x="121" y="283" on="0"/>
        <pt x="95" y="222" on="0"/>
        <pt x="95" y="187" on="1"/>
        <pt x="95" y="152" on="0"/>
        <pt x="121" y="91" on="0"/>
        <pt x="166" y="45" on="0"/>
        <pt x="228" y="19" on="0"/>
        <pt x="263" y="19" on="1"/>
        <pt x="298" y="19" on="0"/>
        <pt x="359" y="45" on="0"/>
        <pt x="404" y="91" on="0"/>
        <pt x="430" y="152" on="0"/>
      </contour>
      <contour>
        <pt x="458" y="187" on="1"/>
        <pt x="458" y="146" on="0"/>
        <pt x="428" y="75" on="0"/>
        <pt x="375" y="23" on="0"/>
        <pt x="304" y="-8" on="0"/>
        <pt x="263" y="-8" on="1"/>
        <pt x="232" y="-8" on="0"/>
        <pt x="178" y="9" on="0"/>
        <pt x="133" y="39" on="0"/>
        <pt x="101" y="78" on="0"/>
        <pt x="93" y="100" on="1"/>
        <pt x="93" y="88" on="0"/>
        <pt x="95" y="64" on="0"/>
        <pt x="96" y="53" on="1"/>
        <pt x="96" y="-250" on="1"/>
        <pt x="67" y="-250" on="1"/>
        <pt x="67" y="750" on="1"/>
        <pt x="95" y="750" on="1"/>
        <pt x="95" y="329" on="1"/>
        <pt x="94" y="315" on="0"/>
        <pt x="93" y="285" on="0"/>
        <pt x="92" y="271" on="1"/>
        <pt x="101" y="293" on="0"/>
        <pt x="133" y="333" on="0"/>
        <pt x="178" y="363" on="0"/>
        <pt x="233" y="381" on="0"/>
        <pt x="263" y="381" on="1"/>
        <pt x="304" y="381" on="0"/>
        <pt x="375" y="350" on="0"/>
        <pt x="428" y="298" on="0"/>
        <pt x="458" y="227" on="0"/>
      </contour>
    </TTGlyph>
    <TTGlyph name="three" xMin="86" yMin="-8" xMax="444" yMax="650">
      <contour>
        <pt x="173" y="354" on="1"/>
        <pt x="223" y="422" on="0"/>
        <pt x="321" y="555" on="0"/>
        <pt x="371" y="622" on="1"/>
        <pt x="103" y="622" on="1"/>
        <pt x="103" y="650" on="1"/>
        <pt x="424" y="650" on="1"/>
        <pt x="377" y="587" on="0"/>
        <pt x="284" y="464" on="0"/>
        <pt x="236" y="401" on="1"/>
        <pt x="279" y="400" on="0"/>
        <pt x="354" y="369" on="0"/>
        <pt x="411" y="315" on="0"/>
        <pt x="444" y="241" on="0"/>
        <pt x="444" y="198" on="1"/>
        <pt x="444" y="155" on="0"/>
        <pt x="411" y="80" on="0"/>
        <pt x="355" y="24" on="0"/>
        <pt x="280" y="-8" on="0"/>
        <pt x="237" y="-8" on="1"/>
        <pt x="192" y="-8" on="0"/>
        <pt x="115" y="28" on="0"/>
        <pt x="86" y="59" on="1"/>
        <pt x="91" y="64" on="0"/>
        <pt x="101" y="76" on="0"/>
        <pt x="106" y="81" on="1"/>
        <pt x="129" y="54" on="0"/>
        <pt x="196" y="19" on="0"/>
        <pt x="235" y="19" on="1"/>
        <pt x="272" y="19" on="0"/>
        <pt x="338" y="48" on="0"/>
        <pt x="388" y="97" on="0"/>
        <pt x="417" y="162" on="0"/>
        <pt x="417" y="198" on="1"/>
        <pt x="417" y="235" on="0"/>
        <pt x="388" y="300" on="0"/>
        <pt x="338" y="348" on="0"/>
        <pt x="272" y="376" on="0"/>
        <pt x="235" y="376" on="1"/>
        <pt x="218" y="376" on="0"/>
        <pt x="187" y="364" on="0"/>
      </contour>
    </TTGlyph>
    <TTGlyph name="threequarters" xMin="150" yMin="-19" xMax="1044" yMax="736">
      <component glyphName="three" x="84" y="206" scalex="0.771057128906" scaley="0.772338867188" flags="0x4"/>
      <component glyphName="slash" x="440" y="0" flags="0x4"/>
      <component glyphName="four" x="672" y="0" scale="0.744689941406" flags="0x4"/>
    </TTGlyph>
    <TTGlyph name="threesuperior" xMin="92" yMin="376" xMax="268" yMax="700">
      <component glyphName="three" x="50" y="380" scalex="0.493041992188" scaley="0.492431640625" flags="0x4"/>
    </TTGlyph>
    <TTGlyph name="two" xMin="49" yMin="0" xMax="458" yMax="658">
      <contour>
        <pt x="122" y="27" on="1"/>
        <pt x="458" y="27" on="1"/>
        <pt x="458" y="0" on="1"/>
        <pt x="53" y="0" on="1"/>
        <pt x="117" y="62" on="0"/>
        <pt x="237" y="182" on="0"/>
        <pt x="330" y="296" on="0"/>
        <pt x="386" y="402" on="0"/>
        <pt x="386" y="449" on="1"/>
        <pt x="386" y="501" on="0"/>
        <pt x="356" y="571" on="0"/>
        <pt x="310" y="613" on="0"/>
        <pt x="257" y="631" on="0"/>
        <pt x="233" y="631" on="1"/>
        <pt x="186" y="631" on="0"/>
        <pt x="125" y="597" on="0"/>
        <pt x="90" y="548" on="0"/>
        <pt x="77" y="490" on="0"/>
        <pt x="77" y="466" on="1"/>
        <pt x="77" y="397" on="0"/>
        <pt x="117" y="354" on="1"/>
        <pt x="112" y="349" on="0"/>
        <pt x="104" y="342" on="0"/>
        <pt x="99" y="338" on="1"/>
        <pt x="76" y="361" on="0"/>
        <pt x="49" y="426" on="0"/>
        <pt x="49" y="466" on="1"/>
        <pt x="49" y="506" on="0"/>
        <pt x="73" y="576" on="0"/>
        <pt x="120" y="628" on="0"/>
        <pt x="188" y="658" on="0"/>
        <pt x="233" y="658" on="1"/>
        <pt x="273" y="658" on="0"/>
        <pt x="340" y="628" on="0"/>
        <pt x="388" y="575" on="0"/>
        <pt x="414" y="503" on="0"/>
        <pt x="414" y="461" on="1"/>
        <pt x="414" y="405" on="0"/>
        <pt x="360" y="294" on="0"/>
        <pt x="275" y="186" on="0"/>
        <pt x="171" y="79" on="0"/>
      </contour>
    </TTGlyph>
    <TTGlyph name="twosuperior" xMin="100" yMin="375" xMax="302" yMax="699">
      <component glyphName="two" x="76" y="375" scalex="0.495056152344" scaley="0.493896484375" flags="0x4"/>
    </TTGlyph>
    <TTGlyph name="u" xMin="110" yMin="-7" xMax="418" yMax="375">
      <contour>
        <pt x="418" y="-2" on="1"/>
        <pt x="390" y="-2" on="1"/>
        <pt x="390" y="53" on="1"/>
        <pt x="393" y="98" on="1"/>
        <pt x="373" y="50" on="0"/>
        <pt x="284" y="-7" on="0"/>
        <pt x="229" y="-7" on="1"/>
        <pt x="175" y="-7" on="0"/>
        <pt x="112" y="55" on="0"/>
        <pt x="110" y="105" on="1"/>
        <pt x="110" y="375" on="1"/>
        <pt x="138" y="375" on="1"/>
        <pt x="138" y="107" on="1"/>
        <pt x="140" y="72" on="0"/>
        <pt x="186" y="22" on="0"/>
        <pt x="229" y="20" on="1"/>
        <pt x="261" y="20" on="0"/>
        <pt x="320" y="41" on="0"/>
        <pt x="364" y="79" on="0"/>
        <pt x="390" y="132" on="0"/>
        <pt x="390" y="163" on="1"/>
        <pt x="390" y="375" on="1"/>
        <pt x="418" y="375" on="1"/>
      </contour>
    </TTGlyph>
    <TTGlyph name="uacute" xMin="110" yMin="-7" xMax="418" yMax="612">
      <component glyphName="u" x="0" y="0" flags="0x204"/>
      <component glyphName="acute" x="131" y="0" flags="0x4"/>
    </TTGlyph>
    <TTGlyph name="ucircumflex" xMin="110" yMin="-7" xMax="418" yMax="660">
      <component glyphName="u" x="0" y="0" flags="0x204"/>
      <component glyphName="asciicircum" x="34" y="0" flags="0x4"/>
    </TTGlyph>
    <TTGlyph name="udieresis" xMin="110" yMin="-7" xMax="418" yMax="531">
      <component glyphName="u" x="0" y="0" flags="0x204"/>
      <component glyphName="dieresis" x="76" y="0" flags="0x4"/>
    </TTGlyph>
    <TTGlyph name="ugrave" xMin="110" yMin="-7" xMax="418" yMax="612">
      <component glyphName="u" x="0" y="0" flags="0x204"/>
      <component glyphName="grave" x="187" y="0" flags="0x4"/>
    </TTGlyph>
    <TTGlyph name="underscore" xMin="100" yMin="0" xMax="500" yMax="27">
      <contour>
        <pt x="500" y="0" on="1"/>
        <pt x="100" y="0" on="1"/>
        <pt x="100" y="27" on="1"/>
        <pt x="500" y="27" on="1"/>
      </contour>
    </TTGlyph>
    <TTGlyph name="v" xMin="54" yMin="-23" xMax="457" yMax="375">
      <contour>
        <pt x="256" y="-23" on="1"/>
        <pt x="154" y="177" on="0"/>
        <pt x="54" y="375" on="1"/>
        <pt x="83" y="375" on="1"/>
        <pt x="126" y="290" on="0"/>
        <pt x="214" y="117" on="0"/>
        <pt x="256" y="30" on="1"/>
        <pt x="297" y="117" on="0"/>
        <pt x="385" y="289" on="0"/>
        <pt x="429" y="375" on="1"/>
        <pt x="457" y="375" on="1"/>
        <pt x="406" y="275" on="0"/>
        <pt x="307" y="77" on="0"/>
      </contour>
    </TTGlyph>
    <TTGlyph name="w" xMin="56" yMin="-23" xMax="726" yMax="375">
      <contour>
        <pt x="376" y="278" on="1"/>
        <pt x="364" y="302" on="0"/>
        <pt x="340" y="351" on="0"/>
        <pt x="328" y="375" on="1"/>
        <pt x="357" y="375" on="1"/>
        <pt x="399" y="289" on="0"/>
        <pt x="485" y="116" on="0"/>
        <pt x="527" y="30" on="1"/>
        <pt x="569" y="117" on="0"/>
        <pt x="654" y="289" on="0"/>
        <pt x="697" y="375" on="1"/>
        <pt x="726" y="375" on="1"/>
        <pt x="626" y="176" on="0"/>
        <pt x="527" y="-23" on="1"/>
        <pt x="493" y="46" on="0"/>
        <pt x="425" y="181" on="0"/>
        <pt x="391" y="250" on="1"/>
        <pt x="357" y="181" on="0"/>
        <pt x="289" y="46" on="0"/>
        <pt x="255" y="-23" on="1"/>
        <pt x="156" y="176" on="0"/>
        <pt x="56" y="375" on="1"/>
        <pt x="85" y="375" on="1"/>
        <pt x="127" y="289" on="0"/>
        <pt x="213" y="116" on="0"/>
        <pt x="255" y="30" on="1"/>
        <pt x="284" y="93" on="0"/>
        <pt x="346" y="216" on="0"/>
      </contour>
    </TTGlyph>
    <TTGlyph name="x" xMin="41" yMin="0" xMax="354" yMax="375">
      <contour>
        <pt x="178" y="190" on="1"/>
        <pt x="144" y="237" on="0"/>
        <pt x="76" y="328" on="0"/>
        <pt x="42" y="375" on="1"/>
        <pt x="77" y="375" on="1"/>
        <pt x="200" y="207" on="1"/>
        <pt x="230" y="249" on="0"/>
        <pt x="290" y="332" on="0"/>
        <pt x="320" y="374" on="1"/>
        <pt x="354" y="374" on="1"/>
        <pt x="319" y="326" on="0"/>
        <pt x="251" y="231" on="0"/>
        <pt x="217" y="183" on="1"/>
        <pt x="352" y="0" on="1"/>
        <pt x="318" y="0" on="1"/>
        <pt x="287" y="42" on="0"/>
        <pt x="226" y="125" on="0"/>
        <pt x="195" y="167" on="1"/>
        <pt x="165" y="125" on="0"/>
        <pt x="106" y="42" on="0"/>
        <pt x="76" y="0" on="1"/>
        <pt x="41" y="0" on="1"/>
        <pt x="76" y="48" on="0"/>
        <pt x="143" y="142" on="0"/>
      </contour>
    </TTGlyph>
    <TTGlyph name="y" xMin="42" yMin="-250" xMax="451" yMax="375">
      <contour>
        <pt x="139" y="-250" on="1"/>
        <pt x="107" y="-250" on="1"/>
        <pt x="139" y="-188" on="0"/>
        <pt x="200" y="-65" on="0"/>
        <pt x="231" y="-3" on="1"/>
        <pt x="42" y="375" on="1"/>
        <pt x="73" y="375" on="1"/>
        <pt x="117" y="288" on="0"/>
        <pt x="205" y="114" on="0"/>
        <pt x="247" y="26" on="1"/>
        <pt x="288" y="114" on="0"/>
        <pt x="376" y="288" on="0"/>
        <pt x="420" y="375" on="1"/>
        <pt x="451" y="375" on="1"/>
        <pt x="373" y="218" on="0"/>
        <pt x="217" y="-93" on="0"/>
      </contour>
    </TTGlyph>
    <TTGlyph name="yacute" xMin="42" yMin="-250" xMax="451" yMax="612">
      <component glyphName="y" x="0" y="0" flags="0x4"/>
      <component glyphName="acute" x="141" y="0" flags="0x4"/>
    </TTGlyph>
    <TTGlyph name="ydieresis" xMin="42" yMin="-250" xMax="451" yMax="531">
      <component glyphName="y" x="0" y="0" flags="0x4"/>
      <component glyphName="dieresis" x="71" y="0" flags="0x4"/>
    </TTGlyph>
    <TTGlyph name="yen" xMin="41" yMin="0" xMax="594" yMax="700">
      <contour>
        <pt x="483" y="127" on="1"/>
        <pt x="483" y="100" on="1"/>
        <pt x="334" y="100" on="1"/>
        <pt x="334" y="0" on="1"/>
        <pt x="302" y="0" on="1"/>
        <pt x="302" y="100" on="1"/>
        <pt x="150" y="100" on="1"/>
        <pt x="150" y="127" on="1"/>
        <pt x="302" y="127" on="1"/>
        <pt x="302" y="263" on="1"/>
        <pt x="150" y="263" on="1"/>
        <pt x="150" y="290" on="1"/>
        <pt x="286" y="290" on="1"/>
        <pt x="224" y="393" on="0"/>
        <pt x="103" y="597" on="0"/>
        <pt x="41" y="700" on="1"/>
        <pt x="75" y="700" on="1"/>
        <pt x="133" y="603" on="0"/>
        <pt x="248" y="411" on="0"/>
        <pt x="306" y="314" on="1"/>
        <pt x="318" y="287" on="1"/>
        <pt x="319" y="287" on="1"/>
        <pt x="322" y="294" on="0"/>
        <pt x="327" y="307" on="0"/>
        <pt x="330" y="314" on="1"/>
        <pt x="388" y="411" on="0"/>
        <pt x="502" y="603" on="0"/>
        <pt x="560" y="700" on="1"/>
        <pt x="594" y="700" on="1"/>
        <pt x="532" y="597" on="0"/>
        <pt x="411" y="393" on="0"/>
        <pt x="349" y="290" on="1"/>
        <pt x="483" y="290" on="1"/>
        <pt x="483" y="263" on="1"/>
        <pt x="334" y="263" on="1"/>
        <pt x="334" y="127" on="1"/>
      </contour>
    </TTGlyph>
    <TTGlyph name="z" xMin="42" yMin="0" xMax="402" yMax="410">
      <contour>
        <pt x="122" y="375" on="1"/>
        <pt x="384" y="375" on="1"/>
        <pt x="384" y="348" on="1"/>
        <pt x="304" y="267" on="0"/>
        <pt x="159" y="108" on="0"/>
        <pt x="80" y="27" on="1"/>
        <pt x="402" y="27" on="1"/>
        <pt x="402" y="0" on="1"/>
        <pt x="42" y="0" on="1"/>
        <pt x="42" y="27" on="1"/>
        <pt x="122" y="108" on="0"/>
        <pt x="267" y="267" on="0"/>
        <pt x="346" y="348" on="1"/>
        <pt x="126" y="348" on="1"/>
        <pt x="95" y="348" on="0"/>
        <pt x="63" y="368" on="0"/>
        <pt x="63" y="397" on="1"/>
        <pt x="63" y="410" on="1"/>
        <pt x="92" y="410" on="1"/>
        <pt x="92" y="398" on="1"/>
        <pt x="92" y="387" on="0"/>
        <pt x="105" y="375" on="0"/>
      </contour>
    </TTGlyph>
    <TTGlyph name="zero" xMin="36" yMin="-7" xMax="573" yMax="658">
      <contour>
        <pt x="36" y="327" on="1"/>
        <pt x="36" y="380" on="0"/>
        <pt x="68" y="497" on="0"/>
        <pt x="134" y="595" on="0"/>
        <pt x="236" y="658" on="0"/>
        <pt x="308" y="658" on="1"/>
        <pt x="378" y="658" on="0"/>
        <pt x="479" y="593" on="0"/>
        <pt x="544" y="495" on="0"/>
        <pt x="573" y="378" on="0"/>
        <pt x="573" y="324" on="1"/>
        <pt x="573" y="253" on="0"/>
        <pt x="528" y="132" on="0"/>
        <pt x="454" y="43" on="0"/>
        <pt x="355" y="-7" on="0"/>
        <pt x="301" y="-7" on="1"/>
        <pt x="247" y="-7" on="0"/>
        <pt x="150" y="45" on="0"/>
        <pt x="78" y="134" on="0"/>
        <pt x="36" y="256" on="0"/>
      </contour>
      <contour>
        <pt x="65" y="328" on="1"/>
        <pt x="65" y="259" on="0"/>
        <pt x="104" y="146" on="0"/>
        <pt x="171" y="65" on="0"/>
        <pt x="257" y="20" on="0"/>
        <pt x="303" y="20" on="1"/>
        <pt x="349" y="20" on="0"/>
        <pt x="436" y="63" on="0"/>
        <pt x="503" y="143" on="0"/>
        <pt x="545" y="255" on="0"/>
        <pt x="545" y="323" on="1"/>
        <pt x="545" y="389" on="0"/>
        <pt x="511" y="501" on="0"/>
        <pt x="448" y="584" on="0"/>
        <pt x="360" y="631" on="0"/>
        <pt x="307" y="631" on="1"/>
        <pt x="254" y="631" on="0"/>
        <pt x="165" y="586" on="0"/>
        <pt x="101" y="505" on="0"/>
        <pt x="65" y="394" on="0"/>
      </contour>
    </TTGlyph>
</ttFont>
